;TYPE=PLATED
;Layer: PTH_Through
;EasyEDA Pro v2.2.23.6, 2024-08-03 20:46:29
;Gerber Generator version 0.3
M48
METRIC,LZ,000.00000
;Hole size 1 = 0.30000 METRIC
T01C0.30000
;Hole size 2 = 0.30002 METRIC
T02C0.30002
;Hole size 3 = 0.30400 METRIC
T03C0.30400
;Hole size 4 = 0.30500 METRIC
T04C0.30500
;Hole size 5 = 0.35000 METRIC
T05C0.35000
;Hole size 6 = 0.84999 METRIC
T06C0.84999
;Hole size 7 = 0.90002 METRIC
T07C0.90002
;Hole size 8 = 0.91440 METRIC
T08C0.91440
;Hole size 9 = 1.10002 METRIC
T09C1.10002
;Hole size 10 = 1.15001 METRIC
T10C1.15001
;Hole size 11 = 1.50002 METRIC
T11C1.50002
;Hole size 12 = 3.20040 METRIC
T12C3.20040
;Hole size 13 = 4.39999 METRIC
T13C4.39999
%
G05
G90
T01
X52.64989Y8.24998
X54.84989Y8.26708
X57.15592Y8.26708
T02
X82.95488Y20.67088
X82.95488Y19.27088
X82.25488Y21.37087
X81.55488Y20.67088
X81.55488Y19.27088
X84.35487Y19.27088
X84.35487Y20.67088
X83.65487Y21.37087
X83.65487Y19.97088
X82.25488Y19.97088
X82.25488Y18.57088
X83.65487Y18.57088
T03
X1.91Y5.89932
X1.91Y7.89932
X1.91Y9.89932
X1.91Y11.89932
X1.91Y13.89932
X1.91Y15.89933
X1.91Y17.89933
X1.91Y19.89933
X1.91Y21.89933
X1.91Y23.89933
X1.91Y25.89933
X1.91Y27.89933
X1.91Y29.89933
X1.91Y31.89933
X3.91Y5.89932
X3.91Y7.89932
X3.91Y9.89932
X3.91Y11.89932
X3.91Y13.89932
X3.91Y15.89933
X3.91Y17.89933
X3.91Y19.89933
X3.91Y21.89933
X3.91Y23.89933
X3.91Y25.89933
X3.91Y27.89933
X3.91Y29.89933
X3.91Y31.89933
X5.91Y1.89932
X5.91Y3.89932
X5.91Y5.89932
X5.91Y7.89932
X5.91Y9.89932
X5.91Y11.89932
X5.91Y13.89932
X5.91Y15.89933
X5.91Y17.89933
X5.91Y19.89933
X5.91Y21.89933
X5.91Y23.89933
X5.91Y25.89933
X5.91Y27.89933
X5.91Y29.89933
X5.91Y31.89933
X5.91Y33.89934
X5.91Y35.89934
X7.91Y1.89932
X7.91Y3.89932
X7.91Y5.89932
X7.91Y7.89932
X7.91Y9.89932
X7.91Y11.89932
X7.91Y13.89932
X7.91Y15.89933
X7.91Y17.89933
X7.91Y19.89933
X7.91Y21.89933
X7.91Y23.89933
X7.91Y25.89933
X7.91Y27.89933
X7.91Y29.89933
X7.91Y31.89933
X7.91Y33.89934
X7.91Y35.89934
X9.91001Y1.89932
X9.91001Y3.89932
X9.91001Y5.89932
X9.91001Y7.89932
X9.91001Y15.89933
X9.91001Y17.89933
X9.91001Y25.89933
X9.91001Y27.89933
X9.91001Y35.89934
X11.91001Y1.89932
X11.91001Y3.89932
X11.91001Y5.89932
X11.91001Y7.89932
X11.91001Y15.89933
X11.91001Y17.89933
X11.91001Y25.89933
X11.91001Y27.89933
X11.91001Y35.89934
X13.91001Y1.89932
X13.91001Y3.89932
X13.91001Y5.89932
X13.91001Y7.89932
X13.91001Y9.89932
X13.91001Y15.89933
X13.91001Y17.89933
X13.91001Y19.89933
X13.91001Y25.89933
X13.91001Y27.89933
X13.91001Y29.89933
X13.91001Y33.89934
X13.91001Y35.89934
X15.91001Y1.89932
X15.91001Y3.89932
X15.91001Y5.89932
X17.91001Y1.89932
X17.91001Y5.89932
X19.91001Y1.89932
X19.91001Y5.89932
X21.91001Y3.89932
X23.91001Y3.89932
X23.91001Y7.89932
X23.91001Y9.89932
X23.91001Y11.89932
X23.91001Y13.89932
X23.91001Y15.89933
X23.91001Y17.89933
X23.91001Y19.89933
X23.91001Y21.89933
X23.91001Y23.89933
X23.91001Y25.89933
X23.91001Y27.89933
X23.91001Y29.89933
X25.91001Y3.89932
X25.91001Y7.89932
X25.91001Y9.89932
X25.91001Y11.89932
X25.91001Y13.89932
X25.91001Y15.89933
X25.91001Y17.89933
X25.91001Y19.89933
X25.91001Y21.89933
X25.91001Y23.89933
X25.91001Y25.89933
X27.91002Y3.89932
X27.91002Y7.89932
X27.91002Y9.89932
X27.91002Y11.89932
X27.91002Y13.89932
X27.91002Y15.89933
X27.91002Y17.89933
X27.91002Y19.89933
X27.91002Y21.89933
X27.91002Y23.89933
X27.91002Y25.89933
X29.91002Y1.89932
X29.91002Y3.89932
X29.91002Y5.89932
X29.91002Y7.89932
X29.91002Y9.89932
X29.91002Y11.89932
X29.91002Y13.89932
X29.91002Y15.89933
X29.91002Y17.89933
X29.91002Y19.89933
X29.91002Y21.89933
X29.91002Y23.89933
X29.91002Y25.89933
X29.91002Y27.89933
X29.91002Y29.89933
X31.91002Y3.89932
X31.91002Y7.89932
X31.91002Y9.89932
X31.91002Y11.89932
X31.91002Y13.89932
X31.91002Y15.89933
X31.91002Y17.89933
X31.91002Y19.89933
X31.91002Y21.89933
X31.91002Y23.89933
X31.91002Y29.89933
X33.91002Y3.89932
X33.91002Y7.89932
X33.91002Y9.89932
X33.91002Y11.89932
X33.91002Y13.89932
X33.91002Y15.89933
X33.91002Y17.89933
X33.91002Y19.89933
X33.91002Y21.89933
X33.91002Y23.89933
X33.91002Y25.89933
X33.91002Y27.89933
X33.91002Y29.89933
X35.91002Y3.89932
X35.91002Y7.89932
X35.91002Y9.89932
X35.91002Y11.89932
X35.91002Y13.89932
X35.91002Y15.89933
X35.91002Y17.89933
X35.91002Y19.89933
X35.91002Y21.89933
X35.91002Y23.89933
X35.91002Y25.89933
X37.91002Y3.89932
X37.91002Y7.89932
X37.91002Y9.89932
X37.91002Y11.89932
X37.91002Y13.89932
X37.91002Y15.89933
X37.91002Y17.89933
X37.91002Y19.89933
X37.91002Y21.89933
X37.91002Y23.89933
X37.91002Y25.89933
X39.91002Y23.89933
X39.91002Y25.89933
X41.91002Y25.89933
X41.91002Y27.89933
X41.91002Y29.89933
X43.91002Y29.89933
X45.91003Y25.89933
X45.91003Y27.89933
X45.91003Y29.89933
X47.91003Y25.89933
X49.91003Y25.89933
X51.91003Y25.89933
X53.91003Y25.89933
X53.91003Y27.89933
X53.91003Y29.89933
X55.91003Y29.89933
X57.91003Y25.89933
X57.91003Y27.89933
X57.91003Y29.89933
X59.91003Y25.89933
X61.91003Y25.89933
X63.91003Y25.89933
X65.91004Y25.89933
X65.91004Y27.89933
X65.91004Y29.89933
X67.91004Y29.89933
X69.91004Y25.89933
X69.91004Y27.89933
X69.91004Y29.89933
X71.91004Y25.89933
X15.90001Y9.90001
X15.90001Y15.90001
X15.90001Y17.90001
X15.90001Y19.90001
X15.90001Y25.90001
X15.90001Y27.90002
X15.90001Y35.90002
X17.90001Y17.90001
X17.90001Y25.90001
X17.90001Y27.90002
X17.90001Y35.90002
X19.90001Y9.90001
X19.90001Y15.90001
X19.90001Y17.90001
X19.90001Y25.90001
X19.90001Y27.90002
X19.90001Y35.90002
X21.90001Y9.90001
X21.90001Y11.90001
X21.90001Y13.90001
X21.90001Y15.90001
X21.90001Y17.90001
X21.90001Y19.90001
X21.90001Y21.90001
X21.90001Y23.90001
X21.90001Y25.90001
X21.90001Y27.90002
X21.90001Y29.90002
X21.90001Y31.90002
X21.90001Y33.90002
X21.90001Y35.90002
X23.90001Y31.90002
X23.90001Y33.90002
X23.90001Y35.90002
X25.90001Y31.90002
X25.90001Y35.90002
X27.90002Y35.90002
X29.90002Y31.90002
X29.90002Y33.90002
X29.90002Y35.90002
X33.90002Y31.90002
X33.90002Y33.90002
X33.90002Y35.90002
X35.90002Y35.90002
X37.90002Y35.90002
X39.90002Y35.90002
X41.90002Y3.9
X41.90002Y7.9
X41.90002Y9.90001
X41.90002Y15.90001
X41.90002Y17.90001
X41.90002Y19.90001
X41.90002Y21.90001
X41.90002Y23.90001
X41.90002Y31.90002
X41.90002Y33.90002
X41.90002Y35.90002
X43.90002Y3.9
X43.90002Y7.9
X43.90002Y19.90001
X45.90003Y3.9
X45.90003Y7.9
X45.90003Y19.90001
X45.90003Y21.90001
X45.90003Y31.90002
X45.90003Y33.90002
X45.90003Y35.90002
X47.90003Y3.9
X47.90003Y35.90002
X49.90003Y3.9
X49.90003Y35.90002
X51.90003Y3.9
X51.90003Y35.90002
X53.90003Y3.9
X53.90003Y31.90002
X53.90003Y33.90002
X53.90003Y35.90002
X55.90003Y3.9
X57.90003Y3.9
X61.90002Y19.9
X57.90003Y31.90002
X57.90003Y33.90002
X57.90003Y35.90002
X59.90003Y3.9
X59.90003Y19.9
X59.90003Y35.90002
X61.90003Y3.9
X68.19986Y15.90001
X61.90003Y35.90002
X63.90003Y3.9
X63.90003Y35.90002
X65.90004Y1.9
X65.89987Y19.9
X65.90004Y31.90002
X65.90004Y33.90002
X65.90004Y35.90002
X69.90004Y31.90002
X69.90004Y33.90002
X69.90004Y35.90002
X72.3Y15.9
X71.90004Y35.90002
X73.90004Y35.90002
X75.90004Y29.90002
X75.90004Y31.90002
X75.90004Y33.90002
X75.90004Y35.90002
X77.90004Y29.90002
X77.90004Y31.90002
X77.90004Y33.90002
X77.90004Y35.90002
X79.90004Y11.90001
X79.90004Y13.90001
X79.90004Y15.90001
X79.90004Y17.90001
X79.90004Y19.90001
X79.90004Y21.90001
X79.90004Y23.90001
X79.90004Y31.90002
X79.90004Y33.90002
X79.90004Y35.90002
X81.90004Y11.90001
X81.90004Y13.90001
X81.90004Y15.90001
X81.90004Y23.90001
X81.90004Y27.90002
X81.90004Y31.90002
X81.90004Y33.90002
X81.90004Y35.90002
X83.90005Y11.90001
X83.90005Y13.90001
X83.90005Y15.90001
X83.90005Y23.90001
X83.90005Y27.90002
X83.90005Y31.90002
X83.90005Y33.90002
X83.90005Y35.90002
X85.90005Y11.90001
X85.90005Y13.90001
X85.90005Y15.90001
X85.90005Y17.90001
X85.90005Y19.90001
X85.90005Y21.90001
X85.90005Y23.90001
X85.90005Y27.90002
X85.90005Y31.90002
X85.90005Y33.90002
X85.90005Y35.90002
X87.90005Y11.90001
X87.90005Y13.90001
X87.90005Y15.90001
X87.90005Y17.90001
X87.90005Y19.90001
X87.90005Y21.90001
X87.90005Y23.90001
X87.90005Y27.90002
X87.90005Y31.90002
X87.90005Y33.90002
X87.90005Y35.90002
X89.90005Y11.90001
X89.90005Y13.90001
X89.90005Y15.90001
X89.90005Y17.90001
X89.90005Y19.90001
X89.90005Y21.90001
X89.90005Y23.90001
X89.90005Y27.90002
X89.90005Y31.90002
X89.90005Y33.90002
X89.90005Y35.90002
X91.90005Y27.90002
X91.90005Y31.90002
X91.90005Y33.90002
X91.90005Y35.90002
X93.90005Y31.90002
X93.90005Y33.90002
X93.90005Y35.90002
X95.90005Y29.90002
X95.90005Y31.90002
X97.90005Y31.90002
X61.94988Y21.80001
X65.94987Y21.8
X63.90002Y19.9
X59.90003Y15.89997
X61.94988Y15.89997
X68.19986Y13.84997
X65.89987Y15.89997
X59.90003Y13.84997
X61.94988Y13.84997
X59.84996Y17.94996
X61.84995Y17.94996
X63.84995Y17.94996
X65.84979Y17.94996
X68.19993Y19.94996
X70.34994Y19.94996
X72.29978Y19.94996
X68.17486Y17.94996
X70.32486Y17.94996
T04
X77.44985Y23.44995
X78.09984Y25.14995
T05
X50.3499Y14.39997
X49.3499Y21.04996
X52.64989Y21.04996
T06
X81.76974Y1.88
X81.76974Y4.42
X80.49992Y3.15
X80.49974Y5.69
X79.22974Y1.88
X79.22974Y4.42
X77.95974Y3.15
X77.95974Y5.69
X76.68974Y1.88
X76.68974Y4.42
X75.42025Y3.15
X75.42025Y5.69
X74.15025Y1.88
X74.15025Y4.42
X72.88025Y3.15
X72.88025Y5.69
X71.61025Y1.88
X71.61025Y4.42
X70.34025Y3.15
X70.34025Y5.69
X69.07025Y1.88
X69.07025Y4.42
X67.80025Y3.15
X67.80025Y5.69
T07
X97.34982Y19.34994
X97.34982Y21.34993
X97.34982Y23.34995
X97.34982Y25.34995
X97.34982Y27.34995
X97.34982Y29.34994
T08
X63.27502Y27.9822G85X63.27502Y29.46779
X63.27499Y32.58214G85X63.27499Y34.06776
X72.72499Y27.98217G85X72.72499Y29.46777
X72.72501Y32.58219G85X72.72501Y34.06781
X68.5428Y32.92491G85X67.4572Y32.92491
X51.27502Y27.9822G85X51.27502Y29.46779
X51.27499Y32.58214G85X51.27499Y34.06776
X60.72498Y27.98217G85X60.72498Y29.46777
X60.72501Y32.58219G85X60.72501Y34.06781
X56.5428Y32.92491G85X55.4572Y32.92491
X39.27502Y27.9822G85X39.27502Y29.46779
X39.27499Y32.58214G85X39.27499Y34.06776
X48.72499Y27.98217G85X48.72499Y29.46777
X48.72501Y32.58219G85X48.72501Y34.06781
X44.5428Y32.92491G85X43.4572Y32.92491
X27.27502Y27.9822G85X27.27502Y29.46779
X27.27499Y32.58214G85X27.27499Y34.06776
X36.72498Y27.98217G85X36.72498Y29.46777
X36.72501Y32.58219G85X36.72501Y34.06781
X32.5428Y32.92491G85X31.4572Y32.92491
T09
X44.831Y22.987
X47.371Y22.987
X49.911Y22.987
X52.451Y22.987
T10
X64.3Y2.43499
X64.3Y5.13501
X61.76Y2.43499
X61.76Y5.13501
X59.22Y2.43499
X59.22Y5.13501
X54.14Y2.43499
X54.14Y5.13501
X56.68Y5.13501
X56.68Y2.43499
X51.6Y2.43499
X51.6Y5.13501
X43.98Y2.43499
X43.98Y5.13501
X46.52Y5.13501
X46.52Y2.43499
X49.06Y2.43499
X49.06Y5.13501
X36.36Y2.43499
X36.36Y5.13501
X38.9Y5.13501
X38.9Y2.43499
X41.44Y2.43499
X41.44Y5.13501
X28.74Y2.43499
X28.74Y5.13501
X31.28Y5.13501
X31.28Y2.43499
X33.82Y2.43499
X33.82Y5.13501
X21.12Y2.43499
X21.12Y5.13501
X23.66Y5.13501
X23.66Y2.43499
X26.2Y2.43499
X26.2Y5.13501
T11
X68.0Y26.67489
X56.0Y26.67489
X44.0Y26.67489
X32.0Y26.67489
T12
X3.0Y34.5
X97.0Y34.5
X3.0Y3.0
X97.0Y3.0
T13
X18.34999Y31.95
X11.15001Y31.95
X18.34999Y22.35
X11.15001Y22.35
X18.34999Y12.75
X11.15001Y12.75
M30