;TYPE=PLATED
;Layer: PTH_Through_Via
;EasyEDA Pro v2.2.23.6, 2024-08-03 20:46:29
;Gerber Generator version 0.3
M48
METRIC,LZ,000.00000
;Hole size 1 = 0.30000 METRIC
T01C0.30000
;Hole size 2 = 0.30002 METRIC
T02C0.30002
;Hole size 3 = 0.30400 METRIC
T03C0.30400
;Hole size 4 = 0.30500 METRIC
T04C0.30500
;Hole size 5 = 0.35000 METRIC
T05C0.35000
%
G05
G90
T01
X52.64989Y8.24998
X54.84989Y8.26708
X57.15592Y8.26708
T02
X82.95488Y20.67088
X82.95488Y19.27088
X82.25488Y21.37087
X81.55488Y20.67088
X81.55488Y19.27088
X84.35487Y19.27088
X84.35487Y20.67088
X83.65487Y21.37087
X83.65487Y19.97088
X82.25488Y19.97088
X82.25488Y18.57088
X83.65487Y18.57088
T03
X1.91Y5.89932
X1.91Y7.89932
X1.91Y9.89932
X1.91Y11.89932
X1.91Y13.89932
X1.91Y15.89933
X1.91Y17.89933
X1.91Y19.89933
X1.91Y21.89933
X1.91Y23.89933
X1.91Y25.89933
X1.91Y27.89933
X1.91Y29.89933
X1.91Y31.89933
X3.91Y5.89932
X3.91Y7.89932
X3.91Y9.89932
X3.91Y11.89932
X3.91Y13.89932
X3.91Y15.89933
X3.91Y17.89933
X3.91Y19.89933
X3.91Y21.89933
X3.91Y23.89933
X3.91Y25.89933
X3.91Y27.89933
X3.91Y29.89933
X3.91Y31.89933
X5.91Y1.89932
X5.91Y3.89932
X5.91Y5.89932
X5.91Y7.89932
X5.91Y9.89932
X5.91Y11.89932
X5.91Y13.89932
X5.91Y15.89933
X5.91Y17.89933
X5.91Y19.89933
X5.91Y21.89933
X5.91Y23.89933
X5.91Y25.89933
X5.91Y27.89933
X5.91Y29.89933
X5.91Y31.89933
X5.91Y33.89934
X5.91Y35.89934
X7.91Y1.89932
X7.91Y3.89932
X7.91Y5.89932
X7.91Y7.89932
X7.91Y9.89932
X7.91Y11.89932
X7.91Y13.89932
X7.91Y15.89933
X7.91Y17.89933
X7.91Y19.89933
X7.91Y21.89933
X7.91Y23.89933
X7.91Y25.89933
X7.91Y27.89933
X7.91Y29.89933
X7.91Y31.89933
X7.91Y33.89934
X7.91Y35.89934
X9.91001Y1.89932
X9.91001Y3.89932
X9.91001Y5.89932
X9.91001Y7.89932
X9.91001Y15.89933
X9.91001Y17.89933
X9.91001Y25.89933
X9.91001Y27.89933
X9.91001Y35.89934
X11.91001Y1.89932
X11.91001Y3.89932
X11.91001Y5.89932
X11.91001Y7.89932
X11.91001Y15.89933
X11.91001Y17.89933
X11.91001Y25.89933
X11.91001Y27.89933
X11.91001Y35.89934
X13.91001Y1.89932
X13.91001Y3.89932
X13.91001Y5.89932
X13.91001Y7.89932
X13.91001Y9.89932
X13.91001Y15.89933
X13.91001Y17.89933
X13.91001Y19.89933
X13.91001Y25.89933
X13.91001Y27.89933
X13.91001Y29.89933
X13.91001Y33.89934
X13.91001Y35.89934
X15.91001Y1.89932
X15.91001Y3.89932
X15.91001Y5.89932
X17.91001Y1.89932
X17.91001Y5.89932
X19.91001Y1.89932
X19.91001Y5.89932
X21.91001Y3.89932
X23.91001Y3.89932
X23.91001Y7.89932
X23.91001Y9.89932
X23.91001Y11.89932
X23.91001Y13.89932
X23.91001Y15.89933
X23.91001Y17.89933
X23.91001Y19.89933
X23.91001Y21.89933
X23.91001Y23.89933
X23.91001Y25.89933
X23.91001Y27.89933
X23.91001Y29.89933
X25.91001Y3.89932
X25.91001Y7.89932
X25.91001Y9.89932
X25.91001Y11.89932
X25.91001Y13.89932
X25.91001Y15.89933
X25.91001Y17.89933
X25.91001Y19.89933
X25.91001Y21.89933
X25.91001Y23.89933
X25.91001Y25.89933
X27.91002Y3.89932
X27.91002Y7.89932
X27.91002Y9.89932
X27.91002Y11.89932
X27.91002Y13.89932
X27.91002Y15.89933
X27.91002Y17.89933
X27.91002Y19.89933
X27.91002Y21.89933
X27.91002Y23.89933
X27.91002Y25.89933
X29.91002Y1.89932
X29.91002Y3.89932
X29.91002Y5.89932
X29.91002Y7.89932
X29.91002Y9.89932
X29.91002Y11.89932
X29.91002Y13.89932
X29.91002Y15.89933
X29.91002Y17.89933
X29.91002Y19.89933
X29.91002Y21.89933
X29.91002Y23.89933
X29.91002Y25.89933
X29.91002Y27.89933
X29.91002Y29.89933
X31.91002Y3.89932
X31.91002Y7.89932
X31.91002Y9.89932
X31.91002Y11.89932
X31.91002Y13.89932
X31.91002Y15.89933
X31.91002Y17.89933
X31.91002Y19.89933
X31.91002Y21.89933
X31.91002Y23.89933
X31.91002Y29.89933
X33.91002Y3.89932
X33.91002Y7.89932
X33.91002Y9.89932
X33.91002Y11.89932
X33.91002Y13.89932
X33.91002Y15.89933
X33.91002Y17.89933
X33.91002Y19.89933
X33.91002Y21.89933
X33.91002Y23.89933
X33.91002Y25.89933
X33.91002Y27.89933
X33.91002Y29.89933
X35.91002Y3.89932
X35.91002Y7.89932
X35.91002Y9.89932
X35.91002Y11.89932
X35.91002Y13.89932
X35.91002Y15.89933
X35.91002Y17.89933
X35.91002Y19.89933
X35.91002Y21.89933
X35.91002Y23.89933
X35.91002Y25.89933
X37.91002Y3.89932
X37.91002Y7.89932
X37.91002Y9.89932
X37.91002Y11.89932
X37.91002Y13.89932
X37.91002Y15.89933
X37.91002Y17.89933
X37.91002Y19.89933
X37.91002Y21.89933
X37.91002Y23.89933
X37.91002Y25.89933
X39.91002Y23.89933
X39.91002Y25.89933
X41.91002Y25.89933
X41.91002Y27.89933
X41.91002Y29.89933
X43.91002Y29.89933
X45.91003Y25.89933
X45.91003Y27.89933
X45.91003Y29.89933
X47.91003Y25.89933
X49.91003Y25.89933
X51.91003Y25.89933
X53.91003Y25.89933
X53.91003Y27.89933
X53.91003Y29.89933
X55.91003Y29.89933
X57.91003Y25.89933
X57.91003Y27.89933
X57.91003Y29.89933
X59.91003Y25.89933
X61.91003Y25.89933
X63.91003Y25.89933
X65.91004Y25.89933
X65.91004Y27.89933
X65.91004Y29.89933
X67.91004Y29.89933
X69.91004Y25.89933
X69.91004Y27.89933
X69.91004Y29.89933
X71.91004Y25.89933
X15.90001Y9.90001
X15.90001Y15.90001
X15.90001Y17.90001
X15.90001Y19.90001
X15.90001Y25.90001
X15.90001Y27.90002
X15.90001Y35.90002
X17.90001Y17.90001
X17.90001Y25.90001
X17.90001Y27.90002
X17.90001Y35.90002
X19.90001Y9.90001
X19.90001Y15.90001
X19.90001Y17.90001
X19.90001Y25.90001
X19.90001Y27.90002
X19.90001Y35.90002
X21.90001Y9.90001
X21.90001Y11.90001
X21.90001Y13.90001
X21.90001Y15.90001
X21.90001Y17.90001
X21.90001Y19.90001
X21.90001Y21.90001
X21.90001Y23.90001
X21.90001Y25.90001
X21.90001Y27.90002
X21.90001Y29.90002
X21.90001Y31.90002
X21.90001Y33.90002
X21.90001Y35.90002
X23.90001Y31.90002
X23.90001Y33.90002
X23.90001Y35.90002
X25.90001Y31.90002
X25.90001Y35.90002
X27.90002Y35.90002
X29.90002Y31.90002
X29.90002Y33.90002
X29.90002Y35.90002
X33.90002Y31.90002
X33.90002Y33.90002
X33.90002Y35.90002
X35.90002Y35.90002
X37.90002Y35.90002
X39.90002Y35.90002
X41.90002Y3.9
X41.90002Y7.9
X41.90002Y9.90001
X41.90002Y15.90001
X41.90002Y17.90001
X41.90002Y19.90001
X41.90002Y21.90001
X41.90002Y23.90001
X41.90002Y31.90002
X41.90002Y33.90002
X41.90002Y35.90002
X43.90002Y3.9
X43.90002Y7.9
X43.90002Y19.90001
X45.90003Y3.9
X45.90003Y7.9
X45.90003Y19.90001
X45.90003Y21.90001
X45.90003Y31.90002
X45.90003Y33.90002
X45.90003Y35.90002
X47.90003Y3.9
X47.90003Y35.90002
X49.90003Y3.9
X49.90003Y35.90002
X51.90003Y3.9
X51.90003Y35.90002
X53.90003Y3.9
X53.90003Y31.90002
X53.90003Y33.90002
X53.90003Y35.90002
X55.90003Y3.9
X57.90003Y3.9
X61.90002Y19.9
X57.90003Y31.90002
X57.90003Y33.90002
X57.90003Y35.90002
X59.90003Y3.9
X59.90003Y19.9
X59.90003Y35.90002
X61.90003Y3.9
X68.19986Y15.90001
X61.90003Y35.90002
X63.90003Y3.9
X63.90003Y35.90002
X65.90004Y1.9
X65.89987Y19.9
X65.90004Y31.90002
X65.90004Y33.90002
X65.90004Y35.90002
X69.90004Y31.90002
X69.90004Y33.90002
X69.90004Y35.90002
X72.3Y15.9
X71.90004Y35.90002
X73.90004Y35.90002
X75.90004Y29.90002
X75.90004Y31.90002
X75.90004Y33.90002
X75.90004Y35.90002
X77.90004Y29.90002
X77.90004Y31.90002
X77.90004Y33.90002
X77.90004Y35.90002
X79.90004Y11.90001
X79.90004Y13.90001
X79.90004Y15.90001
X79.90004Y17.90001
X79.90004Y19.90001
X79.90004Y21.90001
X79.90004Y23.90001
X79.90004Y31.90002
X79.90004Y33.90002
X79.90004Y35.90002
X81.90004Y11.90001
X81.90004Y13.90001
X81.90004Y15.90001
X81.90004Y23.90001
X81.90004Y27.90002
X81.90004Y31.90002
X81.90004Y33.90002
X81.90004Y35.90002
X83.90005Y11.90001
X83.90005Y13.90001
X83.90005Y15.90001
X83.90005Y23.90001
X83.90005Y27.90002
X83.90005Y31.90002
X83.90005Y33.90002
X83.90005Y35.90002
X85.90005Y11.90001
X85.90005Y13.90001
X85.90005Y15.90001
X85.90005Y17.90001
X85.90005Y19.90001
X85.90005Y21.90001
X85.90005Y23.90001
X85.90005Y27.90002
X85.90005Y31.90002
X85.90005Y33.90002
X85.90005Y35.90002
X87.90005Y11.90001
X87.90005Y13.90001
X87.90005Y15.90001
X87.90005Y17.90001
X87.90005Y19.90001
X87.90005Y21.90001
X87.90005Y23.90001
X87.90005Y27.90002
X87.90005Y31.90002
X87.90005Y33.90002
X87.90005Y35.90002
X89.90005Y11.90001
X89.90005Y13.90001
X89.90005Y15.90001
X89.90005Y17.90001
X89.90005Y19.90001
X89.90005Y21.90001
X89.90005Y23.90001
X89.90005Y27.90002
X89.90005Y31.90002
X89.90005Y33.90002
X89.90005Y35.90002
X91.90005Y27.90002
X91.90005Y31.90002
X91.90005Y33.90002
X91.90005Y35.90002
X93.90005Y31.90002
X93.90005Y33.90002
X93.90005Y35.90002
X95.90005Y29.90002
X95.90005Y31.90002
X97.90005Y31.90002
X61.94988Y21.80001
X65.94987Y21.8
X63.90002Y19.9
X59.90003Y15.89997
X61.94988Y15.89997
X68.19986Y13.84997
X65.89987Y15.89997
X59.90003Y13.84997
X61.94988Y13.84997
X59.84996Y17.94996
X61.84995Y17.94996
X63.84995Y17.94996
X65.84979Y17.94996
X68.19993Y19.94996
X70.34994Y19.94996
X72.29978Y19.94996
X68.17486Y17.94996
X70.32486Y17.94996
T04
X77.44985Y23.44995
X78.09984Y25.14995
T05
X50.3499Y14.39997
X49.3499Y21.04996
X52.64989Y21.04996
M30