G04 Layer: BottomSolderMaskLayer*
G04 EasyEDA Pro v2.2.23.6, 2024-08-03 20:46:29*
G04 Gerber Generator version 0.3*
G04 Scale: 100 percent, Rotated: No, Reflected: No*
G04 Dimensions in millimeters*
G04 Leading zeros omitted, absolute positions, 3 integers and 5 decimals*
%FSLAX35Y35*%
%MOMM*%
%AMRoundRect*1,1,$1,$2,$3*1,1,$1,$4,$5*1,1,$1,0-$2,0-$3*1,1,$1,0-$4,0-$5*20,1,$1,$2,$3,$4,$5,0*20,1,$1,$4,$5,0-$2,0-$3,0*20,1,$1,0-$2,0-$3,0-$4,0-$5,0*20,1,$1,0-$4,0-$5,$2,$3,0*4,1,4,$2,$3,$4,$5,0-$2,0-$3,0-$4,0-$5,$2,$3,0*%
%ADD10O,1.70002X3.30002*%
%ADD11O,3.10002X1.70002*%
%ADD12C,2.60002*%
%ADD13C,3.4036*%
%ADD14C,1.4732*%
%ADD15C,1.7272*%
%ADD16C,5.89999*%
%ADD17RoundRect,0.09654X-0.85273X0.85273X0.85273X0.85273*%
%ADD18C,1.802*%
%ADD19C,1.502*%
%ADD20RoundRect,0.09551X0.70324X0.76524X0.70324X-0.76524*%
G75*


G04 Pad Start*
G54D10*
G01X6327509Y2872495D03*
G01X6327509Y3332514D03*
G01X7272491Y2872495D03*
G01X7272491Y3332514D03*
G54D11*
G01X6800000Y3292484D03*
G54D12*
G01X6800000Y2667491D03*
G54D10*
G01X5127509Y2872495D03*
G01X5127509Y3332514D03*
G01X6072491Y2872495D03*
G01X6072491Y3332514D03*
G54D11*
G01X5600000Y3292484D03*
G54D12*
G01X5600000Y2667491D03*
G54D10*
G01X3927509Y2872495D03*
G01X3927509Y3332514D03*
G01X4872491Y2872495D03*
G01X4872491Y3332514D03*
G54D11*
G01X4400000Y3292484D03*
G54D12*
G01X4400000Y2667491D03*
G54D13*
G01X300000Y3450000D03*
G01X9700000Y3450000D03*
G01X300000Y300000D03*
G01X9700000Y300000D03*
G54D14*
G01X8176987Y188000D03*
G01X8176987Y442000D03*
G01X8049987Y315000D03*
G01X8049987Y569000D03*
G01X7922987Y188000D03*
G01X7922987Y442000D03*
G01X7795987Y315000D03*
G01X7795987Y569000D03*
G01X7668987Y188000D03*
G01X7668987Y442000D03*
G01X7542012Y315000D03*
G01X7542012Y569000D03*
G01X7415012Y188000D03*
G01X7415012Y442000D03*
G01X7288012Y315000D03*
G01X7288012Y569000D03*
G01X7161012Y188000D03*
G01X7161012Y442000D03*
G01X7034012Y315000D03*
G01X7034012Y569000D03*
G01X6907012Y188000D03*
G01X6907012Y442000D03*
G01X6780012Y315000D03*
G01X6780012Y569000D03*
G54D15*
G01X6430000Y243499D03*
G01X6430000Y513501D03*
G01X6176000Y243499D03*
G01X6176000Y513501D03*
G01X5922000Y243499D03*
G01X5922000Y513501D03*
G01X5414000Y243499D03*
G01X5414000Y513501D03*
G01X5668000Y513501D03*
G01X5668000Y243499D03*
G01X5160000Y243499D03*
G01X5160000Y513501D03*
G01X4398000Y243499D03*
G01X4398000Y513501D03*
G01X4652000Y513501D03*
G01X4652000Y243499D03*
G01X4906000Y243499D03*
G01X4906000Y513501D03*
G01X3636000Y243499D03*
G01X3636000Y513501D03*
G01X3890000Y513501D03*
G01X3890000Y243499D03*
G01X4144000Y243499D03*
G01X4144000Y513501D03*
G01X2874000Y243499D03*
G01X2874000Y513501D03*
G01X3128000Y513501D03*
G01X3128000Y243499D03*
G01X3382000Y243499D03*
G01X3382000Y513501D03*
G01X2112000Y243499D03*
G01X2112000Y513501D03*
G01X2366000Y513501D03*
G01X2366000Y243499D03*
G01X2620000Y243499D03*
G01X2620000Y513501D03*
G54D16*
G01X1834994Y3195000D03*
G01X1115006Y3195000D03*
G01X1834994Y2235000D03*
G01X1115006Y2235000D03*
G01X1834994Y1275000D03*
G01X1115006Y1275000D03*
G54D17*
G01X4483100Y2298700D03*
G54D18*
G01X4737100Y2298700D03*
G01X4991100Y2298700D03*
G01X5245100Y2298700D03*
G54D19*
G01X9734982Y1934996D03*
G01X9734982Y2134996D03*
G01X9734982Y2334995D03*
G01X9734982Y2534995D03*
G01X9734982Y2734995D03*
G54D20*
G01X9734982Y2934994D03*
G54D10*
G01X2727509Y2872495D03*
G01X2727509Y3332514D03*
G01X3672491Y2872495D03*
G01X3672491Y3332514D03*
G54D11*
G01X3200000Y3292484D03*
G54D12*
G01X3200000Y2667491D03*
G04 Pad End*

M02*

