G04 Layer: TopPasteMaskLayer*
G04 EasyEDA Pro v2.2.23.6, 2024-08-03 20:46:29*
G04 Gerber Generator version 0.3*
G04 Scale: 100 percent, Rotated: No, Reflected: No*
G04 Dimensions in millimeters*
G04 Leading zeros omitted, absolute positions, 3 integers and 5 decimals*
%FSLAX35Y35*%
%MOMM*%
%ADD10R,1.25001X0.7*%
%ADD11R,0.6X1.1*%
%ADD12R,0.8X0.9*%
%ADD13R,2.72001X1.3*%
%ADD14R,0.9X0.8*%
%ADD15R,1.5X0.9*%
%ADD16R,0.9X1.5*%
%ADD17R,1.5X0.9*%
%ADD18R,0.9X0.9*%
%ADD19R,0.9X0.8*%
%ADD20R,1.23X1.35999*%
%ADD21R,2.0X1.8*%
G75*


G04 PolygonModel Start*
G36*
G01X6319989Y1159502D02*
G01X6319989Y1079502D01*
G01X6324990Y1074501D01*
G01X6347786Y1074501D01*
G01X6347786Y1111501D01*
G01X6380786Y1111501D01*
G01X6380786Y1074501D01*
G01X6404990Y1074501D01*
G01X6409988Y1079502D01*
G01X6409988Y1159502D01*
G01X6404990Y1164501D01*
G01X6324990Y1164501D01*
G01X6319989Y1159502D01*
G37*
G36*
G01X6324990Y1004501D02*
G01X6347786Y1004501D01*
G01X6347786Y966503D01*
G01X6380786Y966503D01*
G01X6380786Y1004501D01*
G01X6404990Y1004501D01*
G01X6409988Y999502D01*
G01X6409988Y920503D01*
G01X6404990Y915502D01*
G01X6324990Y915502D01*
G01X6319989Y920503D01*
G01X6319989Y999502D01*
G01X6324990Y1004501D01*
G37*
G36*
G01X5532486Y1258001D02*
G01X5532486Y1385999D01*
G01X5537487Y1391001D01*
G01X5652488Y1391001D01*
G01X5657487Y1385999D01*
G01X5657990Y1344996D01*
G01X5612989Y1344996D01*
G01X5612989Y1299997D01*
G01X5656989Y1299997D01*
G01X5657487Y1258001D01*
G01X5652488Y1253000D01*
G01X5537487Y1253000D01*
G01X5532486Y1258001D01*
G37*
G36*
G01X5747487Y1258001D02*
G01X5747489Y1299997D01*
G01X5791987Y1299997D01*
G01X5791987Y1344996D01*
G01X5747990Y1344996D01*
G01X5747487Y1385999D01*
G01X5752488Y1391001D01*
G01X5867486Y1391001D01*
G01X5872488Y1385999D01*
G01X5872488Y1258001D01*
G01X5867486Y1253000D01*
G01X5752488Y1253000D01*
G01X5747487Y1258001D01*
G37*
G36*
G01X4735488Y1269999D02*
G01X4815488Y1269999D01*
G01X4820489Y1275000D01*
G01X4820489Y1297796D01*
G01X4783489Y1297796D01*
G01X4783489Y1330796D01*
G01X4820489Y1330796D01*
G01X4820489Y1355000D01*
G01X4815488Y1359999D01*
G01X4735488Y1359999D01*
G01X4730490Y1355000D01*
G01X4730490Y1275000D01*
G01X4735488Y1269999D01*
G37*
G36*
G01X4890489Y1275000D02*
G01X4890489Y1297796D01*
G01X4928488Y1297796D01*
G01X4928488Y1330796D01*
G01X4890489Y1330796D01*
G01X4890489Y1355000D01*
G01X4895488Y1359999D01*
G01X4974487Y1359999D01*
G01X4979488Y1355000D01*
G01X4979488Y1275000D01*
G01X4974487Y1269999D01*
G01X4895488Y1269999D01*
G01X4890489Y1275000D01*
G37*
G36*
G01X5774491Y1559996D02*
G01X5694491Y1559996D01*
G01X5689490Y1554994D01*
G01X5689490Y1532198D01*
G01X5726490Y1532198D01*
G01X5726490Y1499198D01*
G01X5689490Y1499198D01*
G01X5689490Y1474995D01*
G01X5694491Y1469996D01*
G01X5774491Y1469996D01*
G01X5779489Y1474995D01*
G01X5779489Y1554994D01*
G01X5774491Y1559996D01*
G37*
G36*
G01X5619490Y1554994D02*
G01X5619490Y1532198D01*
G01X5581491Y1532198D01*
G01X5581491Y1499198D01*
G01X5619490Y1499198D01*
G01X5619490Y1474995D01*
G01X5614491Y1469996D01*
G01X5535492Y1469996D01*
G01X5530491Y1474995D01*
G01X5530491Y1554994D01*
G01X5535492Y1559996D01*
G01X5614491Y1559996D01*
G01X5619490Y1554994D01*
G37*
G36*
G01X5425487Y1924997D02*
G01X5505487Y1924997D01*
G01X5510488Y1929999D01*
G01X5510488Y1952795D01*
G01X5473488Y1952795D01*
G01X5473488Y1985795D01*
G01X5510488Y1985795D01*
G01X5510488Y2009999D01*
G01X5505487Y2014997D01*
G01X5425487Y2014997D01*
G01X5420488Y2009999D01*
G01X5420488Y1929999D01*
G01X5425487Y1924997D01*
G37*
G36*
G01X5580488Y1929999D02*
G01X5580488Y1952795D01*
G01X5618486Y1952795D01*
G01X5618486Y1985795D01*
G01X5580488Y1985795D01*
G01X5580488Y2009999D01*
G01X5585487Y2014997D01*
G01X5664486Y2014997D01*
G01X5669487Y2009999D01*
G01X5669487Y1929999D01*
G01X5664486Y1924997D01*
G01X5585487Y1924997D01*
G01X5580488Y1929999D01*
G37*
G36*
G01X5535487Y1679998D02*
G01X5615487Y1679998D01*
G01X5620488Y1684999D01*
G01X5620488Y1707796D01*
G01X5583488Y1707796D01*
G01X5583488Y1740795D01*
G01X5620488Y1740795D01*
G01X5620488Y1764999D01*
G01X5615487Y1769998D01*
G01X5535487Y1769998D01*
G01X5530488Y1764999D01*
G01X5530488Y1684999D01*
G01X5535487Y1679998D01*
G37*
G36*
G01X5690488Y1684999D02*
G01X5690488Y1707796D01*
G01X5728486Y1707796D01*
G01X5728486Y1740795D01*
G01X5690488Y1740795D01*
G01X5690488Y1764999D01*
G01X5695486Y1769998D01*
G01X5774486Y1769998D01*
G01X5779487Y1764999D01*
G01X5779487Y1684999D01*
G01X5774486Y1679998D01*
G01X5695486Y1679998D01*
G01X5690488Y1684999D01*
G37*
G36*
G01X5739987Y915496D02*
G01X5739987Y995496D01*
G01X5734986Y1000497D01*
G01X5712189Y1000497D01*
G01X5712189Y963497D01*
G01X5679190Y963497D01*
G01X5679190Y1000497D01*
G01X5654986Y1000497D01*
G01X5649987Y995496D01*
G01X5649987Y915496D01*
G01X5654986Y910497D01*
G01X5734986Y910497D01*
G01X5739987Y915496D01*
G37*
G36*
G01X5734986Y1070497D02*
G01X5712189Y1070497D01*
G01X5712189Y1108495D01*
G01X5679190Y1108495D01*
G01X5679190Y1070497D01*
G01X5654986Y1070497D01*
G01X5649987Y1075496D01*
G01X5649987Y1154495D01*
G01X5654986Y1159496D01*
G01X5734986Y1159496D01*
G01X5739987Y1154495D01*
G01X5739987Y1075496D01*
G01X5734986Y1070497D01*
G37*
G36*
G01X5439990Y1159500D02*
G01X5439990Y1079500D01*
G01X5444992Y1074499D01*
G01X5467788Y1074499D01*
G01X5467788Y1111499D01*
G01X5500788Y1111499D01*
G01X5500788Y1074499D01*
G01X5524991Y1074499D01*
G01X5529990Y1079500D01*
G01X5529990Y1159500D01*
G01X5524991Y1164499D01*
G01X5444992Y1164499D01*
G01X5439990Y1159500D01*
G37*
G36*
G01X5444992Y1004499D02*
G01X5467788Y1004499D01*
G01X5467788Y966500D01*
G01X5500788Y966500D01*
G01X5500788Y1004499D01*
G01X5524991Y1004499D01*
G01X5529990Y999500D01*
G01X5529990Y920501D01*
G01X5524991Y915500D01*
G01X5444992Y915500D01*
G01X5439990Y920501D01*
G01X5439990Y999500D01*
G01X5444992Y1004499D01*
G37*
G36*
G01X6909987Y1159502D02*
G01X6909987Y1079502D01*
G01X6914989Y1074501D01*
G01X6937785Y1074501D01*
G01X6937785Y1111501D01*
G01X6970785Y1111501D01*
G01X6970785Y1074501D01*
G01X6994989Y1074501D01*
G01X6999987Y1079502D01*
G01X6999987Y1159502D01*
G01X6994989Y1164501D01*
G01X6914989Y1164501D01*
G01X6909987Y1159502D01*
G37*
G36*
G01X6914989Y1004501D02*
G01X6937785Y1004501D01*
G01X6937785Y966503D01*
G01X6970785Y966503D01*
G01X6970785Y1004501D01*
G01X6994989Y1004501D01*
G01X6999987Y999502D01*
G01X6999987Y920503D01*
G01X6994989Y915502D01*
G01X6914989Y915502D01*
G01X6909987Y920503D01*
G01X6909987Y999502D01*
G01X6914989Y1004501D01*
G37*
G36*
G01X4536987Y1467494D02*
G01X4408989Y1467494D01*
G01X4403988Y1472495D01*
G01X4403988Y1587496D01*
G01X4408989Y1592495D01*
G01X4449992Y1592998D01*
G01X4449992Y1547997D01*
G01X4494991Y1547997D01*
G01X4494991Y1591997D01*
G01X4536987Y1592495D01*
G01X4541989Y1587496D01*
G01X4541989Y1472495D01*
G01X4536987Y1467494D01*
G37*
G36*
G01X4536987Y1682495D02*
G01X4494991Y1682497D01*
G01X4494991Y1726996D01*
G01X4449992Y1726996D01*
G01X4449992Y1682998D01*
G01X4408989Y1682495D01*
G01X4403988Y1687496D01*
G01X4403988Y1802494D01*
G01X4408989Y1807496D01*
G01X4536987Y1807496D01*
G01X4541989Y1802494D01*
G01X4541989Y1687496D01*
G01X4536987Y1682495D01*
G37*
G36*
G01X5324492Y2014995D02*
G01X5244492Y2014995D01*
G01X5239490Y2009993D01*
G01X5239490Y1987197D01*
G01X5276491Y1987197D01*
G01X5276491Y1954197D01*
G01X5239490Y1954197D01*
G01X5239490Y1929994D01*
G01X5244492Y1924995D01*
G01X5324492Y1924995D01*
G01X5329490Y1929994D01*
G01X5329490Y2009993D01*
G01X5324492Y2014995D01*
G37*
G36*
G01X5169491Y2009993D02*
G01X5169491Y1987197D01*
G01X5131492Y1987197D01*
G01X5131492Y1954197D01*
G01X5169491Y1954197D01*
G01X5169491Y1929994D01*
G01X5164492Y1924995D01*
G01X5085493Y1924995D01*
G01X5080491Y1929994D01*
G01X5080491Y2009993D01*
G01X5085493Y2014995D01*
G01X5164492Y2014995D01*
G01X5169491Y2009993D01*
G37*
G36*
G01X5430487Y2129997D02*
G01X5510487Y2129997D01*
G01X5515488Y2134998D01*
G01X5515488Y2157795D01*
G01X5478488Y2157795D01*
G01X5478488Y2190794D01*
G01X5515488Y2190794D01*
G01X5515488Y2214998D01*
G01X5510487Y2219997D01*
G01X5430487Y2219997D01*
G01X5425488Y2214998D01*
G01X5425488Y2134998D01*
G01X5430487Y2129997D01*
G37*
G36*
G01X5585488Y2134998D02*
G01X5585488Y2157795D01*
G01X5623486Y2157795D01*
G01X5623486Y2190794D01*
G01X5585488Y2190794D01*
G01X5585488Y2214998D01*
G01X5590487Y2219997D01*
G01X5669486Y2219997D01*
G01X5674487Y2214998D01*
G01X5674487Y2134998D01*
G01X5669486Y2129997D01*
G01X5590487Y2129997D01*
G01X5585488Y2134998D01*
G37*

G04 Pad Start*
G54D10*
G01X6384987Y1449993D03*
G01X6384987Y1260001D03*
G01X6584987Y1354997D03*
G54D11*
G01X5344986Y1459996D03*
G01X5249990Y1459996D03*
G01X5154994Y1459996D03*
G01X5154994Y1729998D03*
G01X5249990Y1729998D03*
G01X5344986Y1729998D03*
G54D12*
G01X4789988Y1969973D03*
G01X4929993Y1969973D03*
G54D13*
G01X4469991Y1224999D03*
G01X4469991Y954997D03*
G54D14*
G01X4804990Y1564994D03*
G01X4804990Y1704999D03*
G54D15*
G01X7570495Y2769095D03*
G01X7570495Y2642095D03*
G01X7570495Y2515095D03*
G01X7570495Y2388095D03*
G01X7570495Y2261095D03*
G01X7570495Y2134095D03*
G01X7570495Y2007095D03*
G01X7570495Y1880095D03*
G01X7570495Y1753095D03*
G01X7570495Y1626095D03*
G01X7570495Y1499095D03*
G01X7570495Y1372095D03*
G01X7570495Y1245095D03*
G01X7570495Y1118095D03*
G54D16*
G01X7747000Y990105D03*
G01X7874000Y990105D03*
G01X8001000Y990105D03*
G01X8128000Y990105D03*
G01X8255000Y990105D03*
G01X8382000Y990105D03*
G01X8509000Y990105D03*
G01X8636000Y990105D03*
G01X8763000Y990105D03*
G01X8890000Y990105D03*
G01X9017000Y990105D03*
G01X9144000Y993102D03*
G54D17*
G01X9320505Y1118095D03*
G01X9320505Y1245095D03*
G01X9320505Y1372095D03*
G01X9320505Y1499095D03*
G01X9320505Y1626095D03*
G01X9320505Y1753095D03*
G01X9320505Y1880095D03*
G01X9320505Y2007095D03*
G01X9320505Y2134095D03*
G01X9320505Y2261095D03*
G01X9320505Y2388095D03*
G01X9320505Y2515095D03*
G01X9320505Y2642095D03*
G01X9320505Y2769095D03*
G54D18*
G01X8435492Y1857083D03*
G01X8295488Y1857083D03*
G01X8155483Y1857083D03*
G01X8155483Y2137093D03*
G01X8295488Y2137093D03*
G01X8435492Y2137093D03*
G01X8435492Y1997088D03*
G01X8155483Y1997088D03*
G01X8295488Y1997088D03*
G54D19*
G01X5924988Y1110000D03*
G01X5924988Y969996D03*
G01X7179986Y1110002D03*
G01X7179986Y969998D03*
G54D20*
G01X6046497Y2235000D03*
G01X6483478Y2235000D03*
G01X6761495Y2235000D03*
G01X7198477Y2235000D03*
G54D14*
G01X6614498Y969998D03*
G01X6614498Y1110002D03*
G54D21*
G01X5204990Y1019998D03*
G01X4804990Y1019998D03*
G54D19*
G01X5804988Y2129998D03*
G01X5804988Y1989993D03*
G54D10*
G01X6959986Y1449993D03*
G01X6959986Y1260001D03*
G01X7159986Y1354997D03*
G04 Pad End*

M02*

