G04 Layer: TopLayer*
G04 EasyEDA Pro v2.2.23.6, 2024-08-03 20:46:29*
G04 Gerber Generator version 0.3*
G04 Scale: 100 percent, Rotated: No, Reflected: No*
G04 Dimensions in millimeters*
G04 Leading zeros omitted, absolute positions, 3 integers and 5 decimals*
%FSLAX35Y35*%
%MOMM*%
%ADD8191C,0.2032*%
%ADD10O,1.6X3.19999*%
%ADD11O,2.99999X1.6*%
%ADD12C,2.49999*%
%ADD13R,0.86401X0.80648*%
%ADD14R,1.25001X0.7*%
%ADD15R,0.6X1.1*%
%ADD16R,1.41X1.35001*%
%ADD17R,0.80648X0.86401*%
%ADD18R,0.8134X0.86401*%
%ADD19R,0.80648X0.86401*%
%ADD20R,0.8X0.9*%
%ADD21R,2.72001X1.3*%
%ADD22R,0.9X0.8*%
%ADD23R,1.5X0.9*%
%ADD24R,0.9X1.5*%
%ADD25R,1.5X0.9*%
%ADD26R,0.9X0.9*%
%ADD27R,0.9X0.8*%
%ADD28R,0.86401X0.80648*%
%ADD29C,3.2004*%
%ADD30C,1.27*%
%ADD31C,1.524*%
%ADD32C,5.79999*%
%ADD33R,1.7X1.7*%
%ADD34C,1.7*%
%ADD35R,1.35001X1.41*%
%ADD36C,1.4*%
%ADD37R,1.4X1.524*%
%ADD38R,1.23X1.35999*%
%ADD39R,2.0X1.8*%
%ADD40C,0.61*%
%ADD41C,0.7*%
%ADD42C,0.5*%
%ADD43C,0.50002*%
%ADD44C,0.3*%
%ADD45C,0.2*%
%ADD46C,0.3048*%
%ADD47C,0.254*%
%ADD48C,0.127*%
G75*


G04 Copper Start*
G36*
G01X7156677Y2792495D02*
G03X7370825Y2731313I115814J0D01*
G01X7370825Y2617654D01*
G03X7364712Y2598091I54160J-27659D01*
G01X7266777Y2500155D01*
G01X4161981Y2500155D01*
G03X4154797Y2497179I0J-10160D01*
G01X3998808Y2341190D01*
G03X3995832Y2334006I7184J-7184D01*
G01X3995832Y35814D01*
G01X300000Y35814D01*
G02X35814Y300000I0J264186D01*
G01X35814Y3450000D01*
G02X300000Y3714186I264186J0D01*
G01X1441212Y3714186D01*
G01X1447643Y903088D01*
G03X1450187Y896387I10160J23D01*
G01X1542338Y792035D01*
G03X1549952Y788600I7616J6725D01*
G01X2170986Y788524D01*
G03X2178172Y791500I1J10160D01*
G01X2278146Y891475D01*
G03X2281122Y898625I-7184J7184D01*
G01X2287992Y2967622D01*
G01X2392815Y3072445D01*
G01X7276828Y3079783D01*
G01X7289568Y3067042D01*
G03X7156677Y2952494I-17077J-114548D01*
G01X7156677Y2792495D01*
G37*
%LPC*%
G36*
G01X104166Y3450000D02*
G03X495834Y3450000I195834J0D01*
G03X104166Y3450000I-195834J0D01*
G37*
G36*
G01X104166Y300000D02*
G03X495834Y300000I195834J0D01*
G03X104166Y300000I-195834J0D01*
G37*
G36*
G01X1998815Y378500D02*
G03X1717185Y378500I-140815J0D01*
G03X1998815Y378500I140815J0D01*
G37*
G36*
G01X2843323Y2792495D02*
G01X2843323Y2952494D01*
G03X2611695Y2952494I-115814J0D01*
G01X2611695Y2792495D01*
G03X2843323Y2792495I115814J0D01*
G37*
G36*
G01X3788305Y2792495D02*
G01X3788305Y2952494D01*
G03X3556677Y2952494I-115814J0D01*
G01X3556677Y2792495D01*
G03X3788305Y2792495I115814J0D01*
G37*
G36*
G01X4043323Y2792495D02*
G01X4043323Y2952494D01*
G03X3811695Y2952494I-115814J0D01*
G01X3811695Y2792495D01*
G03X4043323Y2792495I115814J0D01*
G37*
G36*
G01X4988305Y2792495D02*
G01X4988305Y2952494D01*
G03X4756677Y2952494I-115814J0D01*
G01X4756677Y2792495D01*
G03X4988305Y2792495I115814J0D01*
G37*
G36*
G01X5243323Y2792495D02*
G01X5243323Y2952494D01*
G03X5011695Y2952494I-115814J0D01*
G01X5011695Y2792495D01*
G03X5243323Y2792495I115814J0D01*
G37*
G36*
G01X6188305Y2792495D02*
G01X6188305Y2952494D01*
G03X5956677Y2952494I-115814J0D01*
G01X5956677Y2792495D01*
G03X6188305Y2792495I115814J0D01*
G37*
G36*
G01X6443323Y2792495D02*
G01X6443323Y2952494D01*
G03X6211695Y2952494I-115814J0D01*
G01X6211695Y2792495D01*
G03X6443323Y2792495I115814J0D01*
G37*
%LPD*%
G36*
G01X1493586Y916697D02*
G01X1487186Y3714186D01*
G01X3117913Y3714186D01*
G03X3200000Y3516674I82087J-81698D01*
G03X3282087Y3714186I0J115814D01*
G01X4317913Y3714186D01*
G03X4400000Y3516674I82087J-81698D01*
G03X4482087Y3714186I0J115814D01*
G01X5517913Y3714186D01*
G03X5600000Y3516674I82087J-81698D01*
G03X5682087Y3714186I0J115814D01*
G01X6717913Y3714186D01*
G03X6800000Y3516674I82087J-81698D01*
G03X6882087Y3714186I0J115814D01*
G01X9700000Y3714186D01*
G02X9964186Y3450000I0J-264186D01*
G01X9964186Y2710579D01*
G01X9902376Y2772390D01*
G03X9869980Y2785809I-32395J-32395D01*
G01X9832694Y2785809D01*
G01X9831200Y2787003D01*
G01X9826664Y2791406D01*
G01X9816750Y2802156D01*
G03X9674137Y2821565I-81768J-67161D01*
G03X9644095Y2680809I60845J-86571D01*
G01X9603958Y2680809D01*
G01X9570795Y2713971D01*
G01X9570795Y2884994D01*
G03X9557376Y2917390I-45814J0D01*
G01X9452377Y3022389D01*
G03X9419981Y3035808I-32395J-32395D01*
G01X8074984Y3035808D01*
G03X8042588Y3022389I0J-45814D01*
G01X7708108Y2687909D01*
G01X7681300Y2687909D01*
G03X7645495Y2722909I-35805J-814D01*
G01X7495496Y2722909D01*
G03X7462554Y2701147I0J-35814D01*
G03X7434084Y2685097I14532J-59052D01*
G01X7416799Y2667813D01*
G01X7416799Y2989994D01*
G03X7406310Y3015318I-35814J0D01*
G01X7306354Y3115273D01*
G03X7280976Y3125763I-25324J-25324D01*
G01X2388547Y3118413D01*
G03X2363276Y3107923I54J-35814D01*
G01X2252521Y2997168D01*
G03X2242032Y2971963I25324J-25324D01*
G01X2235197Y913543D01*
G01X2156155Y834500D01*
G01X1566108Y834572D01*
G01X1493586Y916697D01*
G37*
%LPC*%
G36*
G01X2843323Y3252514D02*
G01X2843323Y3412514D01*
G03X2611695Y3412514I-115814J0D01*
G01X2611695Y3252514D01*
G03X2843323Y3252514I115814J0D01*
G37*
G36*
G01X3788305Y3252514D02*
G01X3788305Y3412514D01*
G03X3556677Y3412514I-115814J0D01*
G01X3556677Y3252514D01*
G03X3788305Y3252514I115814J0D01*
G37*
G36*
G01X4043323Y3252514D02*
G01X4043323Y3412514D01*
G03X3811695Y3412514I-115814J0D01*
G01X3811695Y3252514D01*
G03X4043323Y3252514I115814J0D01*
G37*
G36*
G01X4988305Y3252514D02*
G01X4988305Y3412514D01*
G03X4756677Y3412514I-115814J0D01*
G01X4756677Y3252514D01*
G03X4988305Y3252514I115814J0D01*
G37*
G36*
G01X5243323Y3252514D02*
G01X5243323Y3412514D01*
G03X5011695Y3412514I-115814J0D01*
G01X5011695Y3252514D01*
G03X5243323Y3252514I115814J0D01*
G37*
G36*
G01X6188305Y3252514D02*
G01X6188305Y3412514D01*
G03X5956677Y3412514I-115814J0D01*
G01X5956677Y3252514D01*
G03X6188305Y3252514I115814J0D01*
G37*
G36*
G01X6443323Y3252514D02*
G01X6443323Y3412514D01*
G03X6211695Y3412514I-115814J0D01*
G01X6211695Y3252514D01*
G03X6443323Y3252514I115814J0D01*
G37*
G36*
G01X7388305Y3252514D02*
G01X7388305Y3412514D01*
G03X7156677Y3412514I-115814J0D01*
G01X7156677Y3252514D01*
G03X7388305Y3252514I115814J0D01*
G37*
G36*
G01X9504166Y3450000D02*
G03X9895834Y3450000I195834J0D01*
G03X9504166Y3450000I-195834J0D01*
G37*
%LPD*%
G36*
G01X7495336Y35814D02*
G01X4041806Y35814D01*
G01X4041806Y2319171D01*
G01X4176816Y2454181D01*
G01X5628171Y2454181D01*
G01X5466290Y2292300D01*
G02X5413364Y2247232I-307471J307471D01*
G03X5398515Y2218196I20965J-29036D01*
G01X5398515Y2131795D01*
G03X5398920Y2126420I35814J0D01*
G02X5403811Y2075168I-458633J-69625D01*
G02X5398894Y2038831I-232979J13028D01*
G02X5374989Y2032491I-44565J119795D01*
G02X5337065Y2045027I20660J126135D01*
G03X5320650Y2049010I-16415J-31830D01*
G01X5240002Y2049010D01*
G03X5204188Y2013196I0J-35814D01*
G01X5204188Y2008060D01*
G02X5186219Y1951893I-96768J0D01*
G01X5130136Y1895810D01*
G01X4870180Y1895810D01*
G01X4860219Y1905771D01*
G03X4865802Y1924973I-30231J19202D01*
G01X4865802Y2014973D01*
G03X4829988Y2050787I-35814J0D01*
G01X4813399Y2050787D01*
G02X4797914Y2051224I0J274439D01*
G01X4797914Y2181772D01*
G01X4798032Y2184549D01*
G01X4798223Y2185965D01*
G01X4798451Y2186936D01*
G01X4798707Y2187683D01*
G01X4799046Y2188427D01*
G01X4799266Y2188811D01*
G01X4801807Y2192272D01*
G01X4805665Y2196485D01*
G01X4811430Y2202149D01*
G01X4818318Y2208873D01*
G01X4819269Y2209837D01*
G01X4822588Y2213331D01*
G03X4737100Y2419514I-85488J85369D01*
G03X4651612Y2213331I0J-120814D01*
G01X4654931Y2209837D01*
G01X4655882Y2208873D01*
G01X4662770Y2202149D01*
G01X4668535Y2196485D01*
G01X4672393Y2192272D01*
G01X4674934Y2188811D01*
G01X4675154Y2188427D01*
G01X4675493Y2187683D01*
G01X4675749Y2186936D01*
G01X4675977Y2185965D01*
G01X4676168Y2184549D01*
G01X4676286Y2181772D01*
G01X4676286Y2002884D01*
G03X4694098Y1959882I60814J0D01*
G02X4714441Y1920450I-51566J-51566D01*
G01X4616989Y1822998D01*
G03X4599177Y1779996I43002J-43002D01*
G01X4599177Y1659131D01*
G01X4569295Y1629250D01*
G03X4542492Y1641311I-26804J-23753D01*
G01X4407491Y1641311D01*
G03X4371677Y1605497I0J-35814D01*
G01X4371677Y1580885D01*
G02X4353708Y1524718I-96768J0D01*
G01X4216990Y1387999D01*
G03X4199178Y1344997I43002J-43002D01*
G01X4199178Y1164996D01*
G03X4216990Y1121994I60814J0D01*
G01X4277706Y1061278D01*
G02X4299845Y1030799I-85073J-85073D01*
G03X4298177Y1019997I34146J-10803D01*
G01X4298177Y889997D01*
G03X4333991Y854183I35814J0D01*
G01X4605992Y854183D01*
G03X4641806Y889997I0J35814D01*
G01X4641806Y1019997D01*
G03X4605992Y1055811I-35814J0D01*
G01X4472958Y1055811D01*
G02X4426210Y1084782I38325J114044D01*
G01X4386807Y1124185D01*
G01X4605992Y1124185D01*
G03X4641806Y1159999I0J35814D01*
G01X4641806Y1162499D01*
G02X4642725Y1165328I4811J0D01*
G03X4673993Y1181997I-11733J59671D01*
G01X4712993Y1220996D01*
G03X4716330Y1224615I-43002J43002D01*
G02X4718840Y1196797I-152875J-27818D01*
G01X4718840Y1183767D01*
G02X4703812Y1145792I-55494J0D01*
G03X4669177Y1109998I1178J-35795D01*
G01X4669177Y929998D01*
G03X4704991Y894184I35814J0D01*
G01X4747024Y894184D01*
G02X4793771Y865213I-38325J-114044D01*
G01X5001988Y656997D01*
G03X5044990Y639185I43002J43002D01*
G01X6429797Y639185D01*
G01X6504173Y564809D01*
G01X6504173Y405189D01*
G01X6460371Y361387D01*
G01X6457489Y358950D01*
G01X6456197Y358203D01*
G01X6454485Y357570D01*
G01X6451481Y356922D01*
G01X6446734Y356389D01*
G01X6440019Y356028D01*
G01X6427555Y355486D01*
G03X6352777Y324639I2445J-111987D01*
G01X6343709Y316396D01*
G01X6338672Y311891D01*
G01X6334938Y308919D01*
G01X6332370Y307266D01*
G01X6330728Y306513D01*
G01X6329285Y306129D01*
G01X6325499Y305813D01*
G01X6280501Y305813D01*
G01X6276715Y306129D01*
G01X6275272Y306513D01*
G01X6273631Y307266D01*
G01X6271062Y308919D01*
G01X6267328Y311891D01*
G01X6262292Y316396D01*
G01X6253223Y324639D01*
G03X6063991Y242422I-77223J-81140D01*
G03X6254770Y163859I112009J1077D01*
G01X6264769Y173480D01*
G01X6269572Y177897D01*
G01X6273302Y180916D01*
G01X6275972Y182657D01*
G01X6277733Y183479D01*
G01X6280064Y184102D01*
G01X6282017Y184186D01*
G01X6323931Y184186D01*
G01X6326033Y184089D01*
G01X6328267Y183479D01*
G01X6330029Y182657D01*
G01X6332699Y180916D01*
G01X6336428Y177897D01*
G01X6341231Y173480D01*
G01X6351230Y163859D01*
G03X6472730Y139955I78770J79640D01*
G03X6542010Y242590I-42730J103544D01*
G01X6542327Y256219D01*
G01X6542615Y262772D01*
G01X6543121Y267540D01*
G01X6543777Y270640D01*
G01X6544436Y272447D01*
G01X6545651Y274541D01*
G01X6546984Y275993D01*
G01X6607989Y336997D01*
G03X6625801Y379999I-43002J43002D01*
G01X6625801Y589999D01*
G03X6607989Y633001I-60814J0D01*
G01X6506805Y734184D01*
G01X6528824Y734184D01*
G01X6674623Y588385D01*
G01X6675983Y586786D01*
G01X6676631Y585742D01*
G01X6677485Y583864D01*
G01X6678400Y581105D01*
G01X6679248Y577541D01*
G01X6679895Y573654D01*
G01X6680894Y562762D01*
G03X6813522Y475510I99118J6238D01*
G03X6813522Y408490I93490J-33510D01*
G03X6680698Y315000I-33510J-93490D01*
G03X6813522Y221510I99314J0D01*
G03X6907012Y88686I93490J-33510D01*
G03X7000502Y221510I0J99314D01*
G03X7067522Y221510I33510J93490D01*
G03X7161012Y88686I93490J-33510D01*
G03X7254502Y221510I0J99314D01*
G03X7321522Y221510I33510J93490D01*
G03X7418342Y88742I93490J-33510D01*
G01X7419841Y88733D01*
G03X7422633Y88825I219J35813D01*
G01X7430338Y89380D01*
G01X7431390Y89471D01*
G01X7437751Y90118D01*
G01X7440993Y90157D01*
G01X7495336Y35814D01*
G37*
%LPC*%
G36*
G01X4870286Y2298700D02*
G03X5111914Y2298700I120814J0D01*
G03X4870286Y2298700I-120814J0D01*
G37*
G36*
G01X5124286Y2298700D02*
G03X5365914Y2298700I120814J0D01*
G03X5124286Y2298700I-120814J0D01*
G37*
%LPD*%
G36*
G01X5184176Y1504180D02*
G01X5184176Y1404996D01*
G03X5199231Y1375811I35814J0D01*
G01X5045650Y1375811D01*
G02X4987066Y1390028I0J127815D01*
G03X4970650Y1394012I-16415J-31830D01*
G01X4890003Y1394012D01*
G03X4854990Y1365732I0J-35814D01*
G03X4819978Y1394012I-35013J-7534D01*
G01X4739330Y1394012D01*
G03X4730805Y1392982I0J-35814D01*
G01X4730805Y1434807D01*
G01X4767209Y1471212D01*
G02X4823376Y1489180I56167J-78800D01*
G01X4849990Y1489180D01*
G03X4863765Y1491935I0J35814D01*
G02X4924990Y1504180I61225J-146941D01*
G01X5184176Y1504180D01*
G37*
G36*
G01X4940804Y929998D02*
G01X4940804Y1109998D01*
G03X4938606Y1122351I-35814J0D01*
G02X4954654Y1122953I16047J-213584D01*
G01X5378758Y1122953D01*
G03X5390932Y1124184I0J60814D01*
G01X5397602Y1124184D01*
G02X5405975Y1084810I-88396J-39374D01*
G01X5405975Y1075011D01*
G03X5434255Y1039998I35814J0D01*
G03X5405975Y1004985I7534J-35013D01*
G01X5405975Y924338D01*
G03X5441789Y888524I35814J0D01*
G01X5528189Y888524D01*
G03X5537866Y889856I0J35814D01*
G02X5588534Y898403I65324J-232783D01*
G02X5637740Y886394I-11746J-154940D01*
G03X5651788Y883524I14048J32944D01*
G01X5738189Y883524D01*
G03X5752237Y886394I0J35814D01*
G02X5810375Y898822I60951J-142931D01*
G02X5875549Y894458I-5386J-569258D01*
G03X5879988Y894182I4439J35538D01*
G01X5881600Y894182D01*
G02X5937767Y876213I0J-96768D01*
G01X6053167Y760813D01*
G01X5070180Y760813D01*
G01X4942275Y888717D01*
G02X4929458Y903845I85073J85073D01*
G03X4940804Y929998I-24468J26153D01*
G37*
G36*
G01X5660649Y1890982D02*
G03X5696463Y1926796I0J35814D01*
G01X5696463Y2013196D01*
G03X5660649Y2049010I-35814J0D01*
G01X5580002Y2049010D01*
G03X5544989Y2020730I0J-35814D01*
G03X5541041Y2031019I-35013J-7534D01*
G02X5527023Y2071499I99656J57177D01*
G02X5543634Y2110316I88017J-14704D01*
G03X5549989Y2124262I-28658J21480D01*
G03X5585002Y2095981I35013J7534D01*
G01X5665649Y2095981D01*
G03X5690229Y2105748I0J35814D01*
G01X5700284Y2095694D01*
G03X5724980Y2082445I34305J34305D01*
G03X5759988Y2054184I35008J7553D01*
G01X5849988Y2054184D01*
G03X5885802Y2089998I0J35814D01*
G01X5885802Y2169998D01*
G03X5853767Y2205612I-35814J0D01*
G01X5853502Y2208098D01*
G01X5853502Y2264900D01*
G01X5920083Y2331481D01*
G01X6400266Y2331481D01*
G03X6386165Y2303000I21713J-28482D01*
G01X6386165Y2167000D01*
G03X6421979Y2131186I35814J0D01*
G01X6544978Y2131186D01*
G03X6580792Y2167000I0J35814D01*
G01X6580792Y2251599D01*
G02X6585912Y2268825I31538J0D01*
G01X6608569Y2291481D01*
G01X7101163Y2291481D01*
G01X7101163Y2167000D01*
G03X7136977Y2131186I35814J0D01*
G01X7259977Y2131186D01*
G03X7295791Y2167000I0J35814D01*
G01X7295791Y2211258D01*
G01X7298077Y2211481D01*
G01X7457396Y2211481D01*
G02X7460020Y2211186I0J-11811D01*
G03X7464830Y2197595I35476J4909D01*
G03X7459682Y2179095I30666J-18500D01*
G01X7459682Y2168301D01*
G01X6999891Y1708511D01*
G01X6459987Y1708511D01*
G03X6425683Y1694301I0J-48514D01*
G01X6350683Y1619301D01*
G03X6336473Y1584997I34305J-34305D01*
G01X6336473Y1523093D01*
G01X6336250Y1520807D01*
G01X6322487Y1520807D01*
G03X6286673Y1484993I0J-35814D01*
G01X6286673Y1414993D01*
G03X6293587Y1393841I35814J0D01*
G03X6280173Y1384812I16401J-38844D01*
G01X6235173Y1339812D01*
G03X6222823Y1309997I29814J-29814D01*
G01X6222823Y1069998D01*
G03X6235173Y1040183I42164J0D01*
G01X6265173Y1010183D01*
G03X6285973Y998809I29814J29814D01*
G01X6285973Y924340D01*
G03X6321787Y888526I35814J0D01*
G01X6408188Y888526D01*
G03X6434561Y900110I0J35814D01*
G02X6453908Y908608I19347J-17774D01*
G01X6523778Y908608D01*
G02X6548946Y900667I0J-43858D01*
G03X6569498Y894184I20552J29330D01*
G01X6651011Y894184D01*
G02X6671711Y878571I-45385J-81697D01*
G01X6901213Y649068D01*
G03X6937144Y634185I35931J35931D01*
G01X6959084Y634185D01*
G03X6940522Y535490I74928J-65185D01*
G03X6873502Y535490I-33510J-93490D01*
G03X6786250Y668118I-93490J33510D01*
G01X6775358Y669117D01*
G01X6771471Y669764D01*
G01X6767907Y670612D01*
G01X6765148Y671527D01*
G01X6763270Y672381D01*
G01X6762226Y673029D01*
G01X6760627Y674389D01*
G01X6597016Y838000D01*
G03X6554014Y855812I-43002J-43002D01*
G01X6130175Y855812D01*
G01X6026310Y959674D01*
G02X6005802Y1009995I51483J50321D01*
G03X5969988Y1045809I-35814J0D01*
G01X5879988Y1045809D01*
G03X5858271Y1038474I0J-35814D01*
G02X5808508Y1020546I-53283J69871D01*
G02X5752237Y1032929I4681J155314D01*
G03X5738189Y1035799I-14048J-32944D01*
G01X5651788Y1035799D01*
G03X5637740Y1032929I0J-35814D01*
G02X5591048Y1021131I-60951J142931D01*
G02X5546272Y1035899I12141J112076D01*
G03X5535723Y1039998I-18082J-30914D01*
G03X5564003Y1075011I-7534J35013D01*
G01X5564003Y1155658D01*
G03X5534370Y1190935I-35814J0D01*
G02X5483728Y1217263I16351J93321D01*
G01X5472991Y1228000D01*
G03X5429989Y1245812I-43002J-43002D01*
G01X5379989Y1245812D01*
G03X5367816Y1244581I0J-60814D01*
G01X4997044Y1244581D01*
G02X5045650Y1254183I48606J-118213D01*
G01X5454489Y1254183D01*
G02X5500760Y1231113I0J-57936D01*
G03X5529489Y1216683I28729J21384D01*
G01X5670489Y1216683D01*
G03X5706303Y1252497I0J35814D01*
G01X5706303Y1383740D01*
G02X5723782Y1421132I96195J-22185D01*
G02X5770649Y1435983I46867J-66528D01*
G03X5806463Y1471797I0J35814D01*
G01X5806463Y1558197D01*
G03X5770649Y1594011I-35814J0D01*
G01X5690001Y1594011D01*
G03X5654989Y1565731I0J-35814D01*
G03X5619976Y1594011I-35013J-7534D01*
G02X5569319Y1614211I0J73620D01*
G01X5557331Y1626199D01*
G03X5514329Y1644011I-43002J-43002D01*
G01X5392943Y1644011D01*
G03X5396473Y1646346I-17957J30987D01*
G02X5449985Y1664183I53512J-71354D01*
G01X5464329Y1664183D01*
G02X5522913Y1649966I0J-127815D01*
G03X5539329Y1645982I16415J31830D01*
G01X5619976Y1645982D01*
G03X5655790Y1681796I0J35814D01*
G01X5655790Y1768197D01*
G03X5652920Y1782245I-35814J0D01*
G02X5640466Y1843197I142931J60951D01*
G01X5640466Y1889006D01*
G02X5660649Y1890982I20183J-102103D01*
G37*
G36*
G01X7459682Y1835095D02*
G03X7464830Y1816595I35814J0D01*
G03X7459682Y1798095I30666J-18500D01*
G01X7459682Y1708095D01*
G03X7464830Y1689595I35814J0D01*
G03X7459682Y1671095I30666J-18500D01*
G01X7459682Y1581095D01*
G03X7464830Y1562595I35814J0D01*
G03X7459682Y1544095I30666J-18500D01*
G01X7459682Y1454095D01*
G03X7464830Y1435595I35814J0D01*
G03X7459682Y1417095I30666J-18500D01*
G01X7459682Y1327095D01*
G03X7464830Y1308595I35814J0D01*
G03X7459682Y1290095I30666J-18500D01*
G01X7459682Y1200095D01*
G03X7464830Y1181595I35814J0D01*
G03X7459682Y1163095I30666J-18500D01*
G01X7459682Y1073095D01*
G03X7495496Y1037281I35814J0D01*
G01X7645495Y1037281D01*
G03X7666186Y1043863I0J35814D01*
G01X7666186Y915105D01*
G01X7666222Y913512D01*
G01X7485080Y913512D01*
G01X7265920Y1132673D01*
G02X7260800Y1149899I26418J17226D01*
G03X7224986Y1185816I-35866J52D01*
G01X7208723Y1185816D01*
G01X7208500Y1188102D01*
G01X7208500Y1281897D01*
G01X7208723Y1284183D01*
G01X7222486Y1284183D01*
G03X7258300Y1319997I0J35814D01*
G01X7258300Y1389997D01*
G03X7222486Y1425811I-35814J0D01*
G01X7097485Y1425811D01*
G03X7061671Y1389997I0J-35814D01*
G01X7061671Y1319997D01*
G03X7097485Y1284183I35814J0D01*
G01X7111248Y1284183D01*
G01X7111472Y1281897D01*
G01X7111472Y1188102D01*
G02X7105932Y1170944I-29345J0D01*
G03X7099172Y1150002I29053J-20941D01*
G01X7099172Y1070002D01*
G03X7115428Y1040000I35814J0D01*
G03X7099337Y1013435I19557J-30002D01*
G01X7096886Y1013178D01*
G01X7036286Y1013178D01*
G02X7032934Y1013663I0J11811D01*
G03X7005720Y1040000I-34747J-8676D01*
G03X7034000Y1075013I-7534J35013D01*
G01X7034000Y1155660D01*
G03X7010779Y1189187I-35814J0D01*
G01X7022487Y1189187D01*
G03X7058301Y1225001I0J35814D01*
G01X7058301Y1295001D01*
G03X7022487Y1330815I-35814J0D01*
G01X6897486Y1330815D01*
G03X6861672Y1295001I0J-35814D01*
G01X6861672Y1225001D01*
G03X6897486Y1189187I35814J0D01*
G01X6899193Y1189187D01*
G03X6875972Y1155660I12592J-33527D01*
G01X6875972Y1075013D01*
G03X6904252Y1040000I35814J0D01*
G03X6877679Y1015914I7534J-35013D01*
G01X6749287Y1144307D01*
G03X6714982Y1158516I-34305J-34305D01*
G01X6697598Y1158516D01*
G02X6694156Y1159029I0J11811D01*
G03X6659498Y1185816I-34658J-9027D01*
G01X6569498Y1185816D01*
G03X6537133Y1165336I0J-35814D01*
G02X6531398Y1163850I-5735J10325D01*
G01X6446288Y1163850D01*
G02X6442935Y1164336I0J11811D01*
G03X6438945Y1174007I-34747J-8676D01*
G02X6433773Y1189187I33114J19753D01*
G01X6447488Y1189187D01*
G03X6483302Y1225001I0J35814D01*
G01X6483302Y1295001D01*
G03X6478547Y1312833I-35814J0D01*
G01X6487396Y1312833D01*
G03X6522486Y1284183I35090J7164D01*
G01X6647487Y1284183D01*
G03X6683301Y1319997I0J35814D01*
G01X6683301Y1389997D01*
G03X6647487Y1425811I-35814J0D01*
G01X6522486Y1425811D01*
G03X6487396Y1397161I0J-35814D01*
G01X6478547Y1397161D01*
G03X6483302Y1414993I-31059J17832D01*
G01X6483302Y1484993D01*
G03X6447488Y1520807I-35814J0D01*
G01X6433725Y1520807D01*
G01X6433501Y1523093D01*
G01X6433501Y1564902D01*
G01X6480082Y1611483D01*
G01X7017863Y1611483D01*
G01X6927187Y1520807D01*
G01X6897486Y1520807D01*
G03X6861672Y1484993I0J-35814D01*
G01X6861672Y1414993D01*
G03X6897486Y1379179I35814J0D01*
G01X7022487Y1379179D01*
G03X7058301Y1414993I0J35814D01*
G01X7058301Y1484993D01*
G03X7050679Y1507080I-35814J0D01*
G01X7459682Y1916083D01*
G01X7459682Y1835095D01*
G37*
G36*
G01X7807964Y2310862D02*
G01X7808225Y2313529D01*
G01X7809457Y2320339D01*
G01X7809630Y2321387D01*
G01X7810868Y2329623D01*
G03X7811239Y2333562I-35416J5324D01*
G01X7811445Y2338876D01*
G03X7811449Y2341533I-35787J1385D01*
G01X7811291Y2345975D01*
G03X7753853Y2410714I-66307J-980D01*
G03X7681309Y2363516I-8869J-65718D01*
G01X7681309Y2433095D01*
G03X7676161Y2451595I-35814J0D01*
G03X7681300Y2469281I-30666J18500D01*
G01X7700085Y2469281D01*
G03X7732480Y2482700I0J45814D01*
G01X7746297Y2496516D01*
G03X7832593Y2452654I63688J18478D01*
G01X7838254Y2453616D01*
G01X7842239Y2454006D01*
G01X7847214Y2454181D01*
G01X9170505Y2454181D01*
G02X9212243Y2446374I0J-115470D01*
G03X9209691Y2433095I33262J-13278D01*
G01X9209691Y2343095D01*
G03X9214839Y2324595I35814J0D01*
G03X9209691Y2306095I30666J-18500D01*
G01X9209691Y2216095D01*
G03X9214839Y2197595I35814J0D01*
G03X9209691Y2179095I30666J-18500D01*
G01X9209691Y2089095D01*
G03X9214839Y2070595I35814J0D01*
G03X9209691Y2052095I30666J-18500D01*
G01X9209691Y1962095D01*
G03X9214839Y1943595I35814J0D01*
G03X9209691Y1925095I30666J-18500D01*
G01X9209691Y1835095D01*
G03X9214839Y1816595I35814J0D01*
G03X9209691Y1798095I30666J-18500D01*
G01X9209691Y1708095D01*
G03X9214839Y1689595I35814J0D01*
G03X9209691Y1671095I30666J-18500D01*
G01X9209691Y1581095D01*
G03X9214839Y1562595I35814J0D01*
G03X9209691Y1544095I30666J-18500D01*
G01X9209691Y1454095D01*
G03X9214839Y1435595I35814J0D01*
G03X9209691Y1417095I30666J-18500D01*
G01X9209691Y1327095D01*
G03X9214839Y1308595I35814J0D01*
G03X9209691Y1290095I30666J-18500D01*
G01X9209691Y1200095D01*
G03X9214839Y1181595I35814J0D01*
G03X9209691Y1163095I30666J-18500D01*
G01X9209691Y1097334D01*
G03X9189000Y1103916I-20691J-29232D01*
G01X9099000Y1103916D01*
G03X9078027Y1097132I0J-35814D01*
G03X9062000Y1100919I-16027J-32028D01*
G01X8972000Y1100919D01*
G03X8953500Y1095770I0J-35814D01*
G03X8935000Y1100919I-18500J-30666D01*
G01X8845000Y1100919D01*
G03X8826500Y1095770I0J-35814D01*
G03X8808000Y1100919I-18500J-30666D01*
G01X8718000Y1100919D01*
G03X8699500Y1095770I0J-35814D01*
G03X8681000Y1100919I-18500J-30666D01*
G01X8591000Y1100919D01*
G03X8572500Y1095770I0J-35814D01*
G03X8554000Y1100919I-18500J-30666D01*
G01X8464000Y1100919D01*
G03X8445500Y1095770I0J-35814D01*
G03X8427000Y1100919I-18500J-30666D01*
G01X8337000Y1100919D01*
G03X8318500Y1095770I0J-35814D01*
G03X8300000Y1100919I-18500J-30666D01*
G01X8210000Y1100919D01*
G03X8191500Y1095770I0J-35814D01*
G03X8173000Y1100919I-18500J-30666D01*
G01X8083000Y1100919D01*
G03X8064500Y1095770I0J-35814D01*
G03X8046000Y1100919I-18500J-30666D01*
G01X7956000Y1100919D01*
G03X7937500Y1095770I0J-35814D01*
G03X7919000Y1100919I-18500J-30666D01*
G01X7829000Y1100919D01*
G03X7815677Y1098348I0J-35814D01*
G02X7807814Y1140104I106948J41756D01*
G01X7807814Y2305845D01*
G01X7807964Y2310862D01*
G37*
G36*
G01X9386004Y2864180D02*
G01X9424167Y2826018D01*
G01X9424167Y2708568D01*
G03X9395504Y2722909I-28663J-21473D01*
G01X9245505Y2722909D01*
G03X9209691Y2687095I0J-35814D01*
G01X9209691Y2597095D01*
G03X9212279Y2583727I35814J0D01*
G02X9170505Y2575809I-41774J106241D01*
G01X7847214Y2575809D01*
G01X7842239Y2575984D01*
G01X7838254Y2576374D01*
G01X7832593Y2577336D01*
G03X7828463Y2578682I-22608J-62341D01*
G01X8113961Y2864180D01*
G01X9386004Y2864180D01*
G37*
G54D8191*
G01X7156677Y2792495D02*
G03X7370825Y2731313I115814J0D01*
G01X7370825Y2617654D01*
G03X7364712Y2598091I54160J-27659D01*
G01X7266777Y2500155D01*
G01X4161981Y2500155D01*
G03X4154797Y2497179I0J-10160D01*
G01X3998808Y2341190D01*
G03X3995832Y2334006I7184J-7184D01*
G01X3995832Y35814D01*
G01X300000Y35814D01*
G02X35814Y300000I0J264186D01*
G01X35814Y3450000D01*
G02X300000Y3714186I264186J0D01*
G01X1441212Y3714186D01*
G01X1447643Y903088D01*
G03X1450187Y896387I10160J23D01*
G01X1542338Y792035D01*
G03X1549952Y788600I7616J6725D01*
G01X2170986Y788524D01*
G03X2178172Y791500I1J10160D01*
G01X2278146Y891475D01*
G03X2281122Y898625I-7184J7184D01*
G01X2287992Y2967622D01*
G01X2392815Y3072445D01*
G01X7276828Y3079783D01*
G01X7289568Y3067042D01*
G03X7156677Y2952494I-17077J-114548D01*
G01X7156677Y2792495D01*
G01X104166Y3450000D02*
G03X495834Y3450000I195834J0D01*
G03X104166Y3450000I-195834J0D01*
G01X104166Y300000D02*
G03X495834Y300000I195834J0D01*
G03X104166Y300000I-195834J0D01*
G01X1998815Y378500D02*
G03X1717185Y378500I-140815J0D01*
G03X1998815Y378500I140815J0D01*
G01X2843323Y2792495D02*
G01X2843323Y2952494D01*
G03X2611695Y2952494I-115814J0D01*
G01X2611695Y2792495D01*
G03X2843323Y2792495I115814J0D01*
G01X3788305Y2792495D02*
G01X3788305Y2952494D01*
G03X3556677Y2952494I-115814J0D01*
G01X3556677Y2792495D01*
G03X3788305Y2792495I115814J0D01*
G01X4043323Y2792495D02*
G01X4043323Y2952494D01*
G03X3811695Y2952494I-115814J0D01*
G01X3811695Y2792495D01*
G03X4043323Y2792495I115814J0D01*
G01X4988305Y2792495D02*
G01X4988305Y2952494D01*
G03X4756677Y2952494I-115814J0D01*
G01X4756677Y2792495D01*
G03X4988305Y2792495I115814J0D01*
G01X5243323Y2792495D02*
G01X5243323Y2952494D01*
G03X5011695Y2952494I-115814J0D01*
G01X5011695Y2792495D01*
G03X5243323Y2792495I115814J0D01*
G01X6188305Y2792495D02*
G01X6188305Y2952494D01*
G03X5956677Y2952494I-115814J0D01*
G01X5956677Y2792495D01*
G03X6188305Y2792495I115814J0D01*
G01X6443323Y2792495D02*
G01X6443323Y2952494D01*
G03X6211695Y2952494I-115814J0D01*
G01X6211695Y2792495D01*
G03X6443323Y2792495I115814J0D01*
G01X1493586Y916697D02*
G01X1487186Y3714186D01*
G01X3117913Y3714186D01*
G03X3200000Y3516674I82087J-81698D01*
G03X3282087Y3714186I0J115814D01*
G01X4317913Y3714186D01*
G03X4400000Y3516674I82087J-81698D01*
G03X4482087Y3714186I0J115814D01*
G01X5517913Y3714186D01*
G03X5600000Y3516674I82087J-81698D01*
G03X5682087Y3714186I0J115814D01*
G01X6717913Y3714186D01*
G03X6800000Y3516674I82087J-81698D01*
G03X6882087Y3714186I0J115814D01*
G01X9700000Y3714186D01*
G02X9964186Y3450000I0J-264186D01*
G01X9964186Y2710579D01*
G01X9902376Y2772390D01*
G03X9869980Y2785809I-32395J-32395D01*
G01X9832694Y2785809D01*
G01X9831200Y2787003D01*
G01X9826664Y2791406D01*
G01X9816750Y2802156D01*
G03X9674137Y2821565I-81768J-67161D01*
G03X9644095Y2680809I60845J-86571D01*
G01X9603958Y2680809D01*
G01X9570795Y2713971D01*
G01X9570795Y2884994D01*
G03X9557376Y2917390I-45814J0D01*
G01X9452377Y3022389D01*
G03X9419981Y3035808I-32395J-32395D01*
G01X8074984Y3035808D01*
G03X8042588Y3022389I0J-45814D01*
G01X7708108Y2687909D01*
G01X7681300Y2687909D01*
G03X7645495Y2722909I-35805J-814D01*
G01X7495496Y2722909D01*
G03X7462554Y2701147I0J-35814D01*
G03X7434084Y2685097I14532J-59052D01*
G01X7416799Y2667813D01*
G01X7416799Y2989994D01*
G03X7406310Y3015318I-35814J0D01*
G01X7306354Y3115273D01*
G03X7280976Y3125763I-25324J-25324D01*
G01X2388547Y3118413D01*
G03X2363276Y3107923I54J-35814D01*
G01X2252521Y2997168D01*
G03X2242032Y2971963I25324J-25324D01*
G01X2235197Y913543D01*
G01X2156155Y834500D01*
G01X1566108Y834572D01*
G01X1493586Y916697D01*
G01X2843323Y3252514D02*
G01X2843323Y3412514D01*
G03X2611695Y3412514I-115814J0D01*
G01X2611695Y3252514D01*
G03X2843323Y3252514I115814J0D01*
G01X3788305Y3252514D02*
G01X3788305Y3412514D01*
G03X3556677Y3412514I-115814J0D01*
G01X3556677Y3252514D01*
G03X3788305Y3252514I115814J0D01*
G01X4043323Y3252514D02*
G01X4043323Y3412514D01*
G03X3811695Y3412514I-115814J0D01*
G01X3811695Y3252514D01*
G03X4043323Y3252514I115814J0D01*
G01X4988305Y3252514D02*
G01X4988305Y3412514D01*
G03X4756677Y3412514I-115814J0D01*
G01X4756677Y3252514D01*
G03X4988305Y3252514I115814J0D01*
G01X5243323Y3252514D02*
G01X5243323Y3412514D01*
G03X5011695Y3412514I-115814J0D01*
G01X5011695Y3252514D01*
G03X5243323Y3252514I115814J0D01*
G01X6188305Y3252514D02*
G01X6188305Y3412514D01*
G03X5956677Y3412514I-115814J0D01*
G01X5956677Y3252514D01*
G03X6188305Y3252514I115814J0D01*
G01X6443323Y3252514D02*
G01X6443323Y3412514D01*
G03X6211695Y3412514I-115814J0D01*
G01X6211695Y3252514D01*
G03X6443323Y3252514I115814J0D01*
G01X7388305Y3252514D02*
G01X7388305Y3412514D01*
G03X7156677Y3412514I-115814J0D01*
G01X7156677Y3252514D01*
G03X7388305Y3252514I115814J0D01*
G01X9504166Y3450000D02*
G03X9895834Y3450000I195834J0D01*
G03X9504166Y3450000I-195834J0D01*
G01X7495336Y35814D02*
G01X4041806Y35814D01*
G01X4041806Y2319171D01*
G01X4176816Y2454181D01*
G01X5628171Y2454181D01*
G01X5466290Y2292300D01*
G02X5413364Y2247232I-307471J307471D01*
G03X5398515Y2218196I20965J-29036D01*
G01X5398515Y2131795D01*
G03X5398920Y2126420I35814J0D01*
G02X5403811Y2075168I-458633J-69625D01*
G02X5398894Y2038831I-232979J13028D01*
G02X5374989Y2032491I-44565J119795D01*
G02X5337065Y2045027I20660J126135D01*
G03X5320650Y2049010I-16415J-31830D01*
G01X5240002Y2049010D01*
G03X5204188Y2013196I0J-35814D01*
G01X5204188Y2008060D01*
G02X5186219Y1951893I-96768J0D01*
G01X5130136Y1895810D01*
G01X4870180Y1895810D01*
G01X4860219Y1905771D01*
G03X4865802Y1924973I-30231J19202D01*
G01X4865802Y2014973D01*
G03X4829988Y2050787I-35814J0D01*
G01X4813399Y2050787D01*
G02X4797914Y2051224I0J274439D01*
G01X4797914Y2181772D01*
G01X4798032Y2184549D01*
G01X4798223Y2185965D01*
G01X4798451Y2186936D01*
G01X4798707Y2187683D01*
G01X4799046Y2188427D01*
G01X4799266Y2188811D01*
G01X4801807Y2192272D01*
G01X4805665Y2196485D01*
G01X4811430Y2202149D01*
G01X4818318Y2208873D01*
G01X4819269Y2209837D01*
G01X4822588Y2213331D01*
G03X4737100Y2419514I-85488J85369D01*
G03X4651612Y2213331I0J-120814D01*
G01X4654931Y2209837D01*
G01X4655882Y2208873D01*
G01X4662770Y2202149D01*
G01X4668535Y2196485D01*
G01X4672393Y2192272D01*
G01X4674934Y2188811D01*
G01X4675154Y2188427D01*
G01X4675493Y2187683D01*
G01X4675749Y2186936D01*
G01X4675977Y2185965D01*
G01X4676168Y2184549D01*
G01X4676286Y2181772D01*
G01X4676286Y2002884D01*
G03X4694098Y1959882I60814J0D01*
G02X4714441Y1920450I-51566J-51566D01*
G01X4616989Y1822998D01*
G03X4599177Y1779996I43002J-43002D01*
G01X4599177Y1659131D01*
G01X4569295Y1629250D01*
G03X4542492Y1641311I-26804J-23753D01*
G01X4407491Y1641311D01*
G03X4371677Y1605497I0J-35814D01*
G01X4371677Y1580885D01*
G02X4353708Y1524718I-96768J0D01*
G01X4216990Y1387999D01*
G03X4199178Y1344997I43002J-43002D01*
G01X4199178Y1164996D01*
G03X4216990Y1121994I60814J0D01*
G01X4277706Y1061278D01*
G02X4299845Y1030799I-85073J-85073D01*
G03X4298177Y1019997I34146J-10803D01*
G01X4298177Y889997D01*
G03X4333991Y854183I35814J0D01*
G01X4605992Y854183D01*
G03X4641806Y889997I0J35814D01*
G01X4641806Y1019997D01*
G03X4605992Y1055811I-35814J0D01*
G01X4472958Y1055811D01*
G02X4426210Y1084782I38325J114044D01*
G01X4386807Y1124185D01*
G01X4605992Y1124185D01*
G03X4641806Y1159999I0J35814D01*
G01X4641806Y1162499D01*
G02X4642725Y1165328I4811J0D01*
G03X4673993Y1181997I-11733J59671D01*
G01X4712993Y1220996D01*
G03X4716330Y1224615I-43002J43002D01*
G02X4718840Y1196797I-152875J-27818D01*
G01X4718840Y1183767D01*
G02X4703812Y1145792I-55494J0D01*
G03X4669177Y1109998I1178J-35795D01*
G01X4669177Y929998D01*
G03X4704991Y894184I35814J0D01*
G01X4747024Y894184D01*
G02X4793771Y865213I-38325J-114044D01*
G01X5001988Y656997D01*
G03X5044990Y639185I43002J43002D01*
G01X6429797Y639185D01*
G01X6504173Y564809D01*
G01X6504173Y405189D01*
G01X6460371Y361387D01*
G01X6457489Y358950D01*
G01X6456197Y358203D01*
G01X6454485Y357570D01*
G01X6451481Y356922D01*
G01X6446734Y356389D01*
G01X6440019Y356028D01*
G01X6427555Y355486D01*
G03X6352777Y324639I2445J-111987D01*
G01X6343709Y316396D01*
G01X6338672Y311891D01*
G01X6334938Y308919D01*
G01X6332370Y307266D01*
G01X6330728Y306513D01*
G01X6329285Y306129D01*
G01X6325499Y305813D01*
G01X6280501Y305813D01*
G01X6276715Y306129D01*
G01X6275272Y306513D01*
G01X6273631Y307266D01*
G01X6271062Y308919D01*
G01X6267328Y311891D01*
G01X6262292Y316396D01*
G01X6253223Y324639D01*
G03X6063991Y242422I-77223J-81140D01*
G03X6254770Y163859I112009J1077D01*
G01X6264769Y173480D01*
G01X6269572Y177897D01*
G01X6273302Y180916D01*
G01X6275972Y182657D01*
G01X6277733Y183479D01*
G01X6280064Y184102D01*
G01X6282017Y184186D01*
G01X6323931Y184186D01*
G01X6326033Y184089D01*
G01X6328267Y183479D01*
G01X6330029Y182657D01*
G01X6332699Y180916D01*
G01X6336428Y177897D01*
G01X6341231Y173480D01*
G01X6351230Y163859D01*
G03X6472730Y139955I78770J79640D01*
G03X6542010Y242590I-42730J103544D01*
G01X6542327Y256219D01*
G01X6542615Y262772D01*
G01X6543121Y267540D01*
G01X6543777Y270640D01*
G01X6544436Y272447D01*
G01X6545651Y274541D01*
G01X6546984Y275993D01*
G01X6607989Y336997D01*
G03X6625801Y379999I-43002J43002D01*
G01X6625801Y589999D01*
G03X6607989Y633001I-60814J0D01*
G01X6506805Y734184D01*
G01X6528824Y734184D01*
G01X6674623Y588385D01*
G01X6675983Y586786D01*
G01X6676631Y585742D01*
G01X6677485Y583864D01*
G01X6678400Y581105D01*
G01X6679248Y577541D01*
G01X6679895Y573654D01*
G01X6680894Y562762D01*
G03X6813522Y475510I99118J6238D01*
G03X6813522Y408490I93490J-33510D01*
G03X6680698Y315000I-33510J-93490D01*
G03X6813522Y221510I99314J0D01*
G03X6907012Y88686I93490J-33510D01*
G03X7000502Y221510I0J99314D01*
G03X7067522Y221510I33510J93490D01*
G03X7161012Y88686I93490J-33510D01*
G03X7254502Y221510I0J99314D01*
G03X7321522Y221510I33510J93490D01*
G03X7418342Y88742I93490J-33510D01*
G01X7419841Y88733D01*
G03X7422633Y88825I219J35813D01*
G01X7430338Y89380D01*
G01X7431390Y89471D01*
G01X7437751Y90118D01*
G01X7440993Y90157D01*
G01X7495336Y35814D01*
G01X4870286Y2298700D02*
G03X5111914Y2298700I120814J0D01*
G03X4870286Y2298700I-120814J0D01*
G01X5124286Y2298700D02*
G03X5365914Y2298700I120814J0D01*
G03X5124286Y2298700I-120814J0D01*
G01X5184176Y1504180D02*
G01X5184176Y1404996D01*
G03X5199231Y1375811I35814J0D01*
G01X5045650Y1375811D01*
G02X4987066Y1390028I0J127815D01*
G03X4970650Y1394012I-16415J-31830D01*
G01X4890003Y1394012D01*
G03X4854990Y1365732I0J-35814D01*
G03X4819978Y1394012I-35013J-7534D01*
G01X4739330Y1394012D01*
G03X4730805Y1392982I0J-35814D01*
G01X4730805Y1434807D01*
G01X4767209Y1471212D01*
G02X4823376Y1489180I56167J-78800D01*
G01X4849990Y1489180D01*
G03X4863765Y1491935I0J35814D01*
G02X4924990Y1504180I61225J-146941D01*
G01X5184176Y1504180D01*
G01X4940804Y929998D02*
G01X4940804Y1109998D01*
G03X4938606Y1122351I-35814J0D01*
G02X4954654Y1122953I16047J-213584D01*
G01X5378758Y1122953D01*
G03X5390932Y1124184I0J60814D01*
G01X5397602Y1124184D01*
G02X5405975Y1084810I-88396J-39374D01*
G01X5405975Y1075011D01*
G03X5434255Y1039998I35814J0D01*
G03X5405975Y1004985I7534J-35013D01*
G01X5405975Y924338D01*
G03X5441789Y888524I35814J0D01*
G01X5528189Y888524D01*
G03X5537866Y889856I0J35814D01*
G02X5588534Y898403I65324J-232783D01*
G02X5637740Y886394I-11746J-154940D01*
G03X5651788Y883524I14048J32944D01*
G01X5738189Y883524D01*
G03X5752237Y886394I0J35814D01*
G02X5810375Y898822I60951J-142931D01*
G02X5875549Y894458I-5386J-569258D01*
G03X5879988Y894182I4439J35538D01*
G01X5881600Y894182D01*
G02X5937767Y876213I0J-96768D01*
G01X6053167Y760813D01*
G01X5070180Y760813D01*
G01X4942275Y888717D01*
G02X4929458Y903845I85073J85073D01*
G03X4940804Y929998I-24468J26153D01*
G01X5660649Y1890982D02*
G03X5696463Y1926796I0J35814D01*
G01X5696463Y2013196D01*
G03X5660649Y2049010I-35814J0D01*
G01X5580002Y2049010D01*
G03X5544989Y2020730I0J-35814D01*
G03X5541041Y2031019I-35013J-7534D01*
G02X5527023Y2071499I99656J57177D01*
G02X5543634Y2110316I88017J-14704D01*
G03X5549989Y2124262I-28658J21480D01*
G03X5585002Y2095981I35013J7534D01*
G01X5665649Y2095981D01*
G03X5690229Y2105748I0J35814D01*
G01X5700284Y2095694D01*
G03X5724980Y2082445I34305J34305D01*
G03X5759988Y2054184I35008J7553D01*
G01X5849988Y2054184D01*
G03X5885802Y2089998I0J35814D01*
G01X5885802Y2169998D01*
G03X5853767Y2205612I-35814J0D01*
G01X5853502Y2208098D01*
G01X5853502Y2264900D01*
G01X5920083Y2331481D01*
G01X6400266Y2331481D01*
G03X6386165Y2303000I21713J-28482D01*
G01X6386165Y2167000D01*
G03X6421979Y2131186I35814J0D01*
G01X6544978Y2131186D01*
G03X6580792Y2167000I0J35814D01*
G01X6580792Y2251599D01*
G02X6585912Y2268825I31538J0D01*
G01X6608569Y2291481D01*
G01X7101163Y2291481D01*
G01X7101163Y2167000D01*
G03X7136977Y2131186I35814J0D01*
G01X7259977Y2131186D01*
G03X7295791Y2167000I0J35814D01*
G01X7295791Y2211258D01*
G01X7298077Y2211481D01*
G01X7457396Y2211481D01*
G02X7460020Y2211186I0J-11811D01*
G03X7464830Y2197595I35476J4909D01*
G03X7459682Y2179095I30666J-18500D01*
G01X7459682Y2168301D01*
G01X6999891Y1708511D01*
G01X6459987Y1708511D01*
G03X6425683Y1694301I0J-48514D01*
G01X6350683Y1619301D01*
G03X6336473Y1584997I34305J-34305D01*
G01X6336473Y1523093D01*
G01X6336250Y1520807D01*
G01X6322487Y1520807D01*
G03X6286673Y1484993I0J-35814D01*
G01X6286673Y1414993D01*
G03X6293587Y1393841I35814J0D01*
G03X6280173Y1384812I16401J-38844D01*
G01X6235173Y1339812D01*
G03X6222823Y1309997I29814J-29814D01*
G01X6222823Y1069998D01*
G03X6235173Y1040183I42164J0D01*
G01X6265173Y1010183D01*
G03X6285973Y998809I29814J29814D01*
G01X6285973Y924340D01*
G03X6321787Y888526I35814J0D01*
G01X6408188Y888526D01*
G03X6434561Y900110I0J35814D01*
G02X6453908Y908608I19347J-17774D01*
G01X6523778Y908608D01*
G02X6548946Y900667I0J-43858D01*
G03X6569498Y894184I20552J29330D01*
G01X6651011Y894184D01*
G02X6671711Y878571I-45385J-81697D01*
G01X6901213Y649068D01*
G03X6937144Y634185I35931J35931D01*
G01X6959084Y634185D01*
G03X6940522Y535490I74928J-65185D01*
G03X6873502Y535490I-33510J-93490D01*
G03X6786250Y668118I-93490J33510D01*
G01X6775358Y669117D01*
G01X6771471Y669764D01*
G01X6767907Y670612D01*
G01X6765148Y671527D01*
G01X6763270Y672381D01*
G01X6762226Y673029D01*
G01X6760627Y674389D01*
G01X6597016Y838000D01*
G03X6554014Y855812I-43002J-43002D01*
G01X6130175Y855812D01*
G01X6026310Y959674D01*
G02X6005802Y1009995I51483J50321D01*
G03X5969988Y1045809I-35814J0D01*
G01X5879988Y1045809D01*
G03X5858271Y1038474I0J-35814D01*
G02X5808508Y1020546I-53283J69871D01*
G02X5752237Y1032929I4681J155314D01*
G03X5738189Y1035799I-14048J-32944D01*
G01X5651788Y1035799D01*
G03X5637740Y1032929I0J-35814D01*
G02X5591048Y1021131I-60951J142931D01*
G02X5546272Y1035899I12141J112076D01*
G03X5535723Y1039998I-18082J-30914D01*
G03X5564003Y1075011I-7534J35013D01*
G01X5564003Y1155658D01*
G03X5534370Y1190935I-35814J0D01*
G02X5483728Y1217263I16351J93321D01*
G01X5472991Y1228000D01*
G03X5429989Y1245812I-43002J-43002D01*
G01X5379989Y1245812D01*
G03X5367816Y1244581I0J-60814D01*
G01X4997044Y1244581D01*
G02X5045650Y1254183I48606J-118213D01*
G01X5454489Y1254183D01*
G02X5500760Y1231113I0J-57936D01*
G03X5529489Y1216683I28729J21384D01*
G01X5670489Y1216683D01*
G03X5706303Y1252497I0J35814D01*
G01X5706303Y1383740D01*
G02X5723782Y1421132I96195J-22185D01*
G02X5770649Y1435983I46867J-66528D01*
G03X5806463Y1471797I0J35814D01*
G01X5806463Y1558197D01*
G03X5770649Y1594011I-35814J0D01*
G01X5690001Y1594011D01*
G03X5654989Y1565731I0J-35814D01*
G03X5619976Y1594011I-35013J-7534D01*
G02X5569319Y1614211I0J73620D01*
G01X5557331Y1626199D01*
G03X5514329Y1644011I-43002J-43002D01*
G01X5392943Y1644011D01*
G03X5396473Y1646346I-17957J30987D01*
G02X5449985Y1664183I53512J-71354D01*
G01X5464329Y1664183D01*
G02X5522913Y1649966I0J-127815D01*
G03X5539329Y1645982I16415J31830D01*
G01X5619976Y1645982D01*
G03X5655790Y1681796I0J35814D01*
G01X5655790Y1768197D01*
G03X5652920Y1782245I-35814J0D01*
G02X5640466Y1843197I142931J60951D01*
G01X5640466Y1889006D01*
G02X5660649Y1890982I20183J-102103D01*
G01X7459682Y1835095D02*
G03X7464830Y1816595I35814J0D01*
G03X7459682Y1798095I30666J-18500D01*
G01X7459682Y1708095D01*
G03X7464830Y1689595I35814J0D01*
G03X7459682Y1671095I30666J-18500D01*
G01X7459682Y1581095D01*
G03X7464830Y1562595I35814J0D01*
G03X7459682Y1544095I30666J-18500D01*
G01X7459682Y1454095D01*
G03X7464830Y1435595I35814J0D01*
G03X7459682Y1417095I30666J-18500D01*
G01X7459682Y1327095D01*
G03X7464830Y1308595I35814J0D01*
G03X7459682Y1290095I30666J-18500D01*
G01X7459682Y1200095D01*
G03X7464830Y1181595I35814J0D01*
G03X7459682Y1163095I30666J-18500D01*
G01X7459682Y1073095D01*
G03X7495496Y1037281I35814J0D01*
G01X7645495Y1037281D01*
G03X7666186Y1043863I0J35814D01*
G01X7666186Y915105D01*
G01X7666222Y913512D01*
G01X7485080Y913512D01*
G01X7265920Y1132673D01*
G02X7260800Y1149899I26418J17226D01*
G03X7224986Y1185816I-35866J52D01*
G01X7208723Y1185816D01*
G01X7208500Y1188102D01*
G01X7208500Y1281897D01*
G01X7208723Y1284183D01*
G01X7222486Y1284183D01*
G03X7258300Y1319997I0J35814D01*
G01X7258300Y1389997D01*
G03X7222486Y1425811I-35814J0D01*
G01X7097485Y1425811D01*
G03X7061671Y1389997I0J-35814D01*
G01X7061671Y1319997D01*
G03X7097485Y1284183I35814J0D01*
G01X7111248Y1284183D01*
G01X7111472Y1281897D01*
G01X7111472Y1188102D01*
G02X7105932Y1170944I-29345J0D01*
G03X7099172Y1150002I29053J-20941D01*
G01X7099172Y1070002D01*
G03X7115428Y1040000I35814J0D01*
G03X7099337Y1013435I19557J-30002D01*
G01X7096886Y1013178D01*
G01X7036286Y1013178D01*
G02X7032934Y1013663I0J11811D01*
G03X7005720Y1040000I-34747J-8676D01*
G03X7034000Y1075013I-7534J35013D01*
G01X7034000Y1155660D01*
G03X7010779Y1189187I-35814J0D01*
G01X7022487Y1189187D01*
G03X7058301Y1225001I0J35814D01*
G01X7058301Y1295001D01*
G03X7022487Y1330815I-35814J0D01*
G01X6897486Y1330815D01*
G03X6861672Y1295001I0J-35814D01*
G01X6861672Y1225001D01*
G03X6897486Y1189187I35814J0D01*
G01X6899193Y1189187D01*
G03X6875972Y1155660I12592J-33527D01*
G01X6875972Y1075013D01*
G03X6904252Y1040000I35814J0D01*
G03X6877679Y1015914I7534J-35013D01*
G01X6749287Y1144307D01*
G03X6714982Y1158516I-34305J-34305D01*
G01X6697598Y1158516D01*
G02X6694156Y1159029I0J11811D01*
G03X6659498Y1185816I-34658J-9027D01*
G01X6569498Y1185816D01*
G03X6537133Y1165336I0J-35814D01*
G02X6531398Y1163850I-5735J10325D01*
G01X6446288Y1163850D01*
G02X6442935Y1164336I0J11811D01*
G03X6438945Y1174007I-34747J-8676D01*
G02X6433773Y1189187I33114J19753D01*
G01X6447488Y1189187D01*
G03X6483302Y1225001I0J35814D01*
G01X6483302Y1295001D01*
G03X6478547Y1312833I-35814J0D01*
G01X6487396Y1312833D01*
G03X6522486Y1284183I35090J7164D01*
G01X6647487Y1284183D01*
G03X6683301Y1319997I0J35814D01*
G01X6683301Y1389997D01*
G03X6647487Y1425811I-35814J0D01*
G01X6522486Y1425811D01*
G03X6487396Y1397161I0J-35814D01*
G01X6478547Y1397161D01*
G03X6483302Y1414993I-31059J17832D01*
G01X6483302Y1484993D01*
G03X6447488Y1520807I-35814J0D01*
G01X6433725Y1520807D01*
G01X6433501Y1523093D01*
G01X6433501Y1564902D01*
G01X6480082Y1611483D01*
G01X7017863Y1611483D01*
G01X6927187Y1520807D01*
G01X6897486Y1520807D01*
G03X6861672Y1484993I0J-35814D01*
G01X6861672Y1414993D01*
G03X6897486Y1379179I35814J0D01*
G01X7022487Y1379179D01*
G03X7058301Y1414993I0J35814D01*
G01X7058301Y1484993D01*
G03X7050679Y1507080I-35814J0D01*
G01X7459682Y1916083D01*
G01X7459682Y1835095D01*
G01X7807964Y2310862D02*
G01X7808225Y2313529D01*
G01X7809457Y2320339D01*
G01X7809630Y2321387D01*
G01X7810868Y2329623D01*
G03X7811239Y2333562I-35416J5324D01*
G01X7811445Y2338876D01*
G03X7811449Y2341533I-35787J1385D01*
G01X7811291Y2345975D01*
G03X7753853Y2410714I-66307J-980D01*
G03X7681309Y2363516I-8869J-65718D01*
G01X7681309Y2433095D01*
G03X7676161Y2451595I-35814J0D01*
G03X7681300Y2469281I-30666J18500D01*
G01X7700085Y2469281D01*
G03X7732480Y2482700I0J45814D01*
G01X7746297Y2496516D01*
G03X7832593Y2452654I63688J18478D01*
G01X7838254Y2453616D01*
G01X7842239Y2454006D01*
G01X7847214Y2454181D01*
G01X9170505Y2454181D01*
G02X9212243Y2446374I0J-115470D01*
G03X9209691Y2433095I33262J-13278D01*
G01X9209691Y2343095D01*
G03X9214839Y2324595I35814J0D01*
G03X9209691Y2306095I30666J-18500D01*
G01X9209691Y2216095D01*
G03X9214839Y2197595I35814J0D01*
G03X9209691Y2179095I30666J-18500D01*
G01X9209691Y2089095D01*
G03X9214839Y2070595I35814J0D01*
G03X9209691Y2052095I30666J-18500D01*
G01X9209691Y1962095D01*
G03X9214839Y1943595I35814J0D01*
G03X9209691Y1925095I30666J-18500D01*
G01X9209691Y1835095D01*
G03X9214839Y1816595I35814J0D01*
G03X9209691Y1798095I30666J-18500D01*
G01X9209691Y1708095D01*
G03X9214839Y1689595I35814J0D01*
G03X9209691Y1671095I30666J-18500D01*
G01X9209691Y1581095D01*
G03X9214839Y1562595I35814J0D01*
G03X9209691Y1544095I30666J-18500D01*
G01X9209691Y1454095D01*
G03X9214839Y1435595I35814J0D01*
G03X9209691Y1417095I30666J-18500D01*
G01X9209691Y1327095D01*
G03X9214839Y1308595I35814J0D01*
G03X9209691Y1290095I30666J-18500D01*
G01X9209691Y1200095D01*
G03X9214839Y1181595I35814J0D01*
G03X9209691Y1163095I30666J-18500D01*
G01X9209691Y1097334D01*
G03X9189000Y1103916I-20691J-29232D01*
G01X9099000Y1103916D01*
G03X9078027Y1097132I0J-35814D01*
G03X9062000Y1100919I-16027J-32028D01*
G01X8972000Y1100919D01*
G03X8953500Y1095770I0J-35814D01*
G03X8935000Y1100919I-18500J-30666D01*
G01X8845000Y1100919D01*
G03X8826500Y1095770I0J-35814D01*
G03X8808000Y1100919I-18500J-30666D01*
G01X8718000Y1100919D01*
G03X8699500Y1095770I0J-35814D01*
G03X8681000Y1100919I-18500J-30666D01*
G01X8591000Y1100919D01*
G03X8572500Y1095770I0J-35814D01*
G03X8554000Y1100919I-18500J-30666D01*
G01X8464000Y1100919D01*
G03X8445500Y1095770I0J-35814D01*
G03X8427000Y1100919I-18500J-30666D01*
G01X8337000Y1100919D01*
G03X8318500Y1095770I0J-35814D01*
G03X8300000Y1100919I-18500J-30666D01*
G01X8210000Y1100919D01*
G03X8191500Y1095770I0J-35814D01*
G03X8173000Y1100919I-18500J-30666D01*
G01X8083000Y1100919D01*
G03X8064500Y1095770I0J-35814D01*
G03X8046000Y1100919I-18500J-30666D01*
G01X7956000Y1100919D01*
G03X7937500Y1095770I0J-35814D01*
G03X7919000Y1100919I-18500J-30666D01*
G01X7829000Y1100919D01*
G03X7815677Y1098348I0J-35814D01*
G02X7807814Y1140104I106948J41756D01*
G01X7807814Y2305845D01*
G01X7807964Y2310862D01*
G01X9386004Y2864180D02*
G01X9424167Y2826018D01*
G01X9424167Y2708568D01*
G03X9395504Y2722909I-28663J-21473D01*
G01X9245505Y2722909D01*
G03X9209691Y2687095I0J-35814D01*
G01X9209691Y2597095D01*
G03X9212279Y2583727I35814J0D01*
G02X9170505Y2575809I-41774J106241D01*
G01X7847214Y2575809D01*
G01X7842239Y2575984D01*
G01X7838254Y2576374D01*
G01X7832593Y2577336D01*
G03X7828463Y2578682I-22608J-62341D01*
G01X8113961Y2864180D01*
G01X9386004Y2864180D01*
G04 Copper End*

G04 TearDrop Start*
G36*
G01X6372287Y1193760D02*
G01X6397687Y1193760D01*
G03X6408188Y1155660I74372J0D01*
G01X6353237Y1155660D01*
G03X6372287Y1193760I-28575J38100D01*
G37*
G36*
G01X6446288Y1128036D02*
G01X6446288Y1102636D01*
G03X6408188Y1083586I0J-47625D01*
G01X6408188Y1147086D01*
G03X6446288Y1128036I38100J28575D01*
G37*
G36*
G01X6453908Y974902D02*
G01X6453908Y944422D01*
G03X6408188Y924340I0J-62086D01*
G01X6408188Y997762D01*
G03X6453908Y974902I45720J34290D01*
G37*
G36*
G01X6372287Y1523093D02*
G01X6397687Y1523093D01*
G03X6416737Y1484993I47625J0D01*
G01X6353237Y1484993D01*
G03X6372287Y1523093I-28575J38100D01*
G37*
G36*
G01X6397687Y1186901D02*
G01X6372287Y1186901D01*
G03X6353237Y1225001I-47625J0D01*
G01X6416737Y1225001D01*
G03X6397687Y1186901I28575J-38100D01*
G37*
G36*
G01X6503436Y1348647D02*
G01X6503436Y1361347D01*
G03X6522486Y1370872I0J23813D01*
G01X6522486Y1339122D01*
G03X6503436Y1348647I-19050J-14288D01*
G37*
G36*
G01X5369985Y1374993D02*
G01X5319986Y1374993D01*
G03X5314986Y1404996I-92515J0D01*
G01X5374985Y1404996D01*
G03X5369985Y1374993I87515J-30002D01*
G37*
G36*
G01X5224990Y1530706D02*
G01X5274989Y1530706D01*
G03X5279989Y1514996I27183J0D01*
G01X5219990Y1514996D01*
G03X5224990Y1530706I-22183J15711D01*
G37*
G36*
G01X5049994Y1414997D02*
G01X5049994Y1464997D01*
G03X5124994Y1502497I0J93750D01*
G01X5124994Y1404996D01*
G03X5049994Y1414997I-75000J-276213D01*
G37*
G36*
G01X5049994Y1679999D02*
G01X5049994Y1729999D01*
G03X5124994Y1767499I0J93750D01*
G01X5124994Y1674998D01*
G03X5049994Y1679999I-75000J-559854D01*
G37*
G36*
G01X5274989Y1644997D02*
G01X5224990Y1644997D01*
G03X5219990Y1674998I-92507J0D01*
G01X5279989Y1674998D01*
G03X5274989Y1644997I87507J-30001D01*
G37*
G36*
G01X5449985Y1749997D02*
G01X5449985Y1699997D01*
G03X5374985Y1674998I0J-125005D01*
G01X5374985Y1784998D01*
G03X5449985Y1749997I75000J62853D01*
G37*
G36*
G01X5454489Y1289997D02*
G01X5454489Y1339997D01*
G03X5529489Y1377497I-0J93750D01*
G01X5529489Y1252498D01*
G03X5454489Y1289997I-75000J-56250D01*
G37*
G36*
G01X5601513Y1421540D02*
G01X5707368Y1456685D01*
G03X5670489Y1387498I95130J-95130D01*
G01X5529489Y1387498D01*
G03X5601513Y1421540I-11519J117585D01*
G37*
G36*
G01X4804654Y1196797D02*
G01X4754654Y1196797D01*
G03X4739330Y1271797I-191199J0D01*
G01X4819978Y1271797D01*
G03X4804654Y1196797I175875J-75000D01*
G37*
G36*
G01X5045650Y1339997D02*
G01X5045650Y1289997D01*
G03X4970650Y1271797I0J-163629D01*
G01X4970650Y1358198D01*
G03X5045650Y1339997I75000J145429D01*
G37*
G36*
G01X5693532Y1442848D02*
G01X5661053Y1481080D01*
G03X5690001Y1558197I-88244J77117D01*
G01X5770649Y1471797D01*
G03X5693532Y1442848I0J-117192D01*
G37*
G36*
G01X5511818Y1550352D02*
G01X5544297Y1588584D01*
G03X5619976Y1558197I75679J79047D01*
G01X5539329Y1471797D01*
G03X5511818Y1550352I-125913J0D01*
G37*
G36*
G01X5439989Y2088196D02*
G01X5489989Y2088196D01*
G03X5509976Y2013196I150708J0D01*
G01X5429329Y2013196D01*
G03X5439989Y2088196I-258496J75000D01*
G37*
G36*
G01X5354329Y1944996D02*
G01X5354329Y1994996D01*
G03X5429329Y2013196I0J163629D01*
G01X5429329Y1926796D01*
G03X5354329Y1944996I-75000J-145429D01*
G37*
G36*
G01X5597330Y1911645D02*
G01X5561975Y1947001D01*
G03X5580002Y2013196I-112523J66196D01*
G01X5660649Y1926796D01*
G03X5597330Y1911645I0J-139893D01*
G37*
G36*
G01X5464329Y1699997D02*
G01X5464329Y1749997D01*
G03X5539329Y1768197I0J163629D01*
G01X5539329Y1681796D01*
G03X5464329Y1699997I-75000J-145429D01*
G37*
G36*
G01X5554652Y1843197D02*
G01X5604652Y1843197D01*
G03X5619976Y1768197I191199J0D01*
G01X5539329Y1768197D01*
G03X5554652Y1843197I-175875J75000D01*
G37*
G36*
G01X4719422Y1985206D02*
G01X4754778Y2020562D01*
G03X4813399Y2014973I58622J304666D01*
G01X4749988Y1924973D01*
G03X4719422Y1985206I-107456J-16657D01*
G37*
G36*
G01X4630992Y1249999D02*
G01X4630992Y1199999D01*
G03X4605992Y1162499I15625J-37500D01*
G01X4605992Y1287499D01*
G03X4630992Y1249999I40625J0D01*
G37*
G36*
G01X4303031Y1086602D02*
G01X4400886Y1059457D01*
G03X4467491Y1019997I110398J110398D01*
G01X4342491Y1019997D01*
G03X4303031Y1086602I-149858J-43793D01*
G37*
G36*
G01X4924990Y1589994D02*
G01X4924990Y1539994D01*
G03X4849990Y1524994I0J-194999D01*
G01X4849990Y1604994D01*
G03X4924990Y1589994I75000J179999D01*
G37*
G36*
G01X4743827Y1498478D02*
G01X4716779Y1542140D01*
G03X4759990Y1604994I-148097J148097D01*
G01X4823376Y1524994D01*
G03X4743827Y1498478I-0J-132582D01*
G37*
G36*
G01X4924990Y1729999D02*
G01X4924990Y1679999D01*
G03X4849990Y1664999I0J-194999D01*
G01X4849990Y1744999D01*
G03X4924990Y1729999I75000J179999D01*
G37*
G36*
G01X7477086Y2617095D02*
G01X7477086Y2667095D01*
G03X7495496Y2687095I-1659J20000D01*
G01X7495496Y2597095D01*
G03X7477086Y2617095I-20069J0D01*
G37*
G36*
G01X7675495Y2652095D02*
G01X7675495Y2632095D01*
G03X7645495Y2617095I0J-37500D01*
G01X7645495Y2667095D01*
G03X7675495Y2652095I30000J22500D01*
G37*
G36*
G01X7494065Y2456625D02*
G01X7482025Y2480507D01*
G03X7495496Y2520918I-53882J40411D01*
G01X7534476Y2470095D01*
G03X7494065Y2456625I0J-67352D01*
G37*
G36*
G01X7675495Y2525095D02*
G01X7675495Y2505095D01*
G03X7645495Y2490095I0J-37500D01*
G01X7645495Y2540095D01*
G03X7675495Y2525095I30000J22500D01*
G37*
G36*
G01X7493965Y2331015D02*
G01X7482025Y2354996D01*
G03X7495496Y2395407I-53882J40411D01*
G01X7532986Y2343095D01*
G03X7493965Y2331015I-0J-69062D01*
G37*
G36*
G01X7457396Y2247295D02*
G01X7457396Y2272695D01*
G03X7495496Y2291745I0J47625D01*
G01X7495496Y2228245D01*
G03X7457396Y2247295I-38100J-28575D01*
G37*
G36*
G01X7494085Y2121395D02*
G01X7494085Y2146795D01*
G03X7495496Y2165845I-127896J19050D01*
G01X7495496Y2102345D01*
G03X7494085Y2121395I-129307J0D01*
G37*
G36*
G01X7474985Y1987296D02*
G01X7474985Y2012696D01*
G03X7495496Y2031746I0J20566D01*
G01X7495496Y1968246D01*
G03X7474985Y1987296I-20511J-1516D01*
G37*
G36*
G01X7722000Y1140104D02*
G01X7772000Y1140104D01*
G03X7792000Y1065105I150625J0D01*
G01X7702000Y1065105D01*
G03X7722000Y1140104I-130625J75000D01*
G37*
G36*
G01X8905000Y890016D02*
G01X8875000Y890016D01*
G03X8852500Y915105I-25238J0D01*
G01X8927500Y915105D01*
G03X8905000Y890016I2738J-25089D01*
G37*
G36*
G01X9032000Y892016D02*
G01X9002000Y892016D01*
G03X8979500Y915105I-23096J0D01*
G01X9054500Y915105D01*
G03X9032000Y892016I596J-23089D01*
G37*
G36*
G01X9425504Y1128095D02*
G01X9425504Y1108095D01*
G03X9395504Y1093095I0J-37500D01*
G01X9395504Y1143095D01*
G03X9425504Y1128095I30000J22500D01*
G37*
G36*
G01X9425504Y2271095D02*
G01X9425504Y2251095D01*
G03X9395504Y2236095I0J-37500D01*
G01X9395504Y2286095D01*
G03X9425504Y2271095I30000J22500D01*
G37*
G36*
G01X9425504Y2398095D02*
G01X9425504Y2378095D01*
G03X9395504Y2363095I0J-37500D01*
G01X9395504Y2413095D01*
G03X9425504Y2398095I30000J22500D01*
G37*
G36*
G01X9170505Y2489995D02*
G01X9170505Y2539995D01*
G03X9245505Y2560095I0J149973D01*
G01X9245505Y2470095D01*
G03X9170505Y2489995I-75000J-131384D01*
G37*
G36*
G01X8365487Y1832088D02*
G01X8365487Y1882088D01*
G03X8390492Y1902083I0J25633D01*
G01X8390492Y1812083D01*
G03X8365487Y1832088I-25005J-5625D01*
G37*
G36*
G01X8410487Y1927088D02*
G01X8460487Y1927088D01*
G03X8480492Y1902083I25630J0D01*
G01X8390492Y1902083D01*
G03X8410487Y1927088I-5638J25005D01*
G37*
G36*
G01X8365487Y1882088D02*
G01X8365487Y1832088D01*
G03X8340488Y1812083I0J-25624D01*
G01X8340488Y1902083D01*
G03X8365487Y1882088I25000J5632D01*
G37*
G36*
G01X8225488Y1882088D02*
G01X8225488Y1832088D01*
G03X8200483Y1812083I0J-25630D01*
G01X8200483Y1902083D01*
G03X8225488Y1882088I25005J5638D01*
G37*
G36*
G01X8130488Y1927088D02*
G01X8180488Y1927088D01*
G03X8200483Y1902083I25633J0D01*
G01X8110483Y1902083D01*
G03X8130488Y1927088I-5625J25005D01*
G37*
G36*
G01X8180488Y2067088D02*
G01X8130488Y2067088D01*
G03X8110483Y2092093I-25630J0D01*
G01X8200483Y2092093D01*
G03X8180488Y2067088I5638J-25005D01*
G37*
G36*
G01X8225483Y2162092D02*
G01X8225483Y2112093D01*
G03X8200483Y2092093I0J-25625D01*
G01X8200483Y2182092D01*
G03X8225483Y2162092I25000J5625D01*
G37*
G36*
G01X8320488Y2067088D02*
G01X8270488Y2067088D01*
G03X8250488Y2092093I-25631J0D01*
G01X8340488Y2092093D01*
G03X8320488Y2067088I5631J-25005D01*
G37*
G36*
G01X8225488Y2112087D02*
G01X8225488Y2162087D01*
G03X8250488Y2182092I0J25624D01*
G01X8250488Y2092093D01*
G03X8225488Y2112087I-25000J-5632D01*
G37*
G36*
G01X8365487Y2162087D02*
G01X8365487Y2112087D01*
G03X8340488Y2092093I0J-25626D01*
G01X8340488Y2182092D01*
G03X8365487Y2162087I25000J5618D01*
G37*
G36*
G01X8365487Y2112087D02*
G01X8365487Y2162087D01*
G03X8390492Y2182092I0J25630D01*
G01X8390492Y2092093D01*
G03X8365487Y2112087I-25005J-5638D01*
G37*
G36*
G01X8460487Y2067088D02*
G01X8410487Y2067088D01*
G03X8390492Y2092093I-25633J0D01*
G01X8480492Y2092093D01*
G03X8460487Y2067088I5625J-25005D01*
G37*
G36*
G01X8365487Y1972088D02*
G01X8365487Y2022088D01*
G03X8390492Y2042088I0J25631D01*
G01X8390492Y1952088D01*
G03X8365487Y1972088I-25005J-5631D01*
G37*
G36*
G01X8460492Y1927093D02*
G01X8410492Y1927093D01*
G03X8390492Y1952088I-25619J0D01*
G01X8480492Y1952088D01*
G03X8460492Y1927093I5619J-24995D01*
G37*
G36*
G01X8180488Y1927088D02*
G01X8130488Y1927088D01*
G03X8110483Y1952088I-25624J0D01*
G01X8200483Y1952088D01*
G03X8180488Y1927088I5632J-25000D01*
G37*
G36*
G01X8225488Y2022088D02*
G01X8225488Y1972088D01*
G03X8200483Y1952088I0J-25631D01*
G01X8200483Y2042088D01*
G03X8225488Y2022088I25005J5631D01*
G37*
G36*
G01X8130488Y2067088D02*
G01X8180488Y2067088D01*
G03X8200483Y2042088I25626J0D01*
G01X8110483Y2042088D01*
G03X8130488Y2067088I-5618J25000D01*
G37*
G36*
G01X8320488Y1927088D02*
G01X8270488Y1927088D01*
G03X8250488Y1952088I-25625J0D01*
G01X8340488Y1952088D01*
G03X8320488Y1927088I5625J-25000D01*
G37*
G36*
G01X8225488Y1972088D02*
G01X8225488Y2022088D01*
G03X8250488Y2042088I0J25625D01*
G01X8250488Y1952088D01*
G03X8225488Y1972088I-25000J-5625D01*
G37*
G36*
G01X8365487Y2022088D02*
G01X8365487Y1972088D01*
G03X8340488Y1952088I0J-25625D01*
G01X8340488Y2042088D01*
G03X8365487Y2022088I25000J5625D01*
G37*
G36*
G01X8270488Y2067088D02*
G01X8320488Y2067088D01*
G03X8340488Y2042088I25625J0D01*
G01X8250488Y2042088D01*
G03X8270488Y2067088I-5625J25000D01*
G37*
G36*
G01X6000699Y934640D02*
G01X5961149Y903479D01*
G03X5881600Y929996I-79549J-106066D01*
G01X5969988Y1009995D01*
G03X6000699Y934640I107806J0D01*
G37*
G36*
G01X5804988Y934662D02*
G01X5804988Y984661D01*
G03X5879988Y1009995I0J123683D01*
G01X5879988Y929996D01*
G03X5804988Y934662I-75000J-600434D01*
G37*
G36*
G01X5576788Y934662D02*
G01X5576788Y984661D01*
G03X5651788Y999985I0J191199D01*
G01X5651788Y919338D01*
G03X5576788Y934662I-75000J-175875D01*
G37*
G36*
G01X5813189Y984661D02*
G01X5813189Y934662D01*
G03X5738189Y919338I0J-191199D01*
G01X5738189Y999985D01*
G03X5813189Y984661I75000J175875D01*
G37*
G36*
G01X5415272Y1164359D02*
G01X5458404Y1191938D01*
G03X5528189Y1155658I92317J92318D01*
G01X5441789Y1084810D01*
G03X5415272Y1164359I-132582J0D01*
G37*
G36*
G01X5603189Y984661D02*
G01X5603189Y934662D01*
G03X5528189Y924338I0J-277588D01*
G01X5528189Y1004985D01*
G03X5603189Y984661I75000J128222D01*
G37*
G36*
G01X8090203Y175300D02*
G01X8090203Y200700D01*
G01X8094770Y200899D01*
G01X8098776Y201478D01*
G01X8102291Y202412D01*
G01X8105384Y203676D01*
G01X8108122Y205244D01*
G01X8110577Y207092D01*
G01X8114909Y211522D01*
G01X8123194Y222614D01*
G01X8128251Y228871D01*
G01X8134653Y235330D01*
G01X8134653Y140670D01*
G01X8128251Y147129D01*
G01X8123194Y153386D01*
G01X8114909Y164478D01*
G01X8110577Y168908D01*
G01X8108122Y170756D01*
G01X8105384Y172324D01*
G01X8102291Y173588D01*
G01X8098776Y174522D01*
G01X8094770Y175101D01*
G01X8090203Y175300D01*
G37*
G36*
G01X8136770Y327700D02*
G01X8136770Y302300D01*
G01X8132203Y302101D01*
G01X8128197Y301522D01*
G01X8124682Y300588D01*
G01X8121590Y299324D01*
G01X8118851Y297756D01*
G01X8116397Y295908D01*
G01X8112065Y291478D01*
G01X8103780Y280386D01*
G01X8098723Y274129D01*
G01X8092320Y267670D01*
G01X8092320Y362330D01*
G01X8098723Y355871D01*
G01X8103780Y349614D01*
G01X8112065Y338522D01*
G01X8116397Y334092D01*
G01X8118851Y332244D01*
G01X8121590Y330676D01*
G01X8124682Y329412D01*
G01X8128197Y328478D01*
G01X8132203Y327899D01*
G01X8136770Y327700D01*
G37*
G36*
G01X7910287Y528783D02*
G01X7935687Y528783D01*
G01X7935885Y524217D01*
G01X7936464Y520210D01*
G01X7937399Y516695D01*
G01X7938663Y513603D01*
G01X7940231Y510864D01*
G01X7942078Y508410D01*
G01X7946509Y504078D01*
G01X7957601Y495793D01*
G01X7963858Y490736D01*
G01X7970317Y484333D01*
G01X7875657Y484333D01*
G01X7882116Y490736D01*
G01X7888372Y495793D01*
G01X7899465Y504078D01*
G01X7903895Y508410D01*
G01X7905742Y510864D01*
G01X7907311Y513603D01*
G01X7908575Y516695D01*
G01X7909509Y520210D01*
G01X7910088Y524217D01*
G01X7910287Y528783D01*
G37*
G36*
G01X7709203Y290000D02*
G01X7709203Y340000D01*
G01X7715410Y340501D01*
G01X7721459Y341919D01*
G01X7727336Y344121D01*
G01X7733028Y346978D01*
G01X7738519Y350358D01*
G01X7743797Y354131D01*
G01X7753653Y362330D01*
G01X7753653Y267670D01*
G01X7743797Y275869D01*
G01X7738519Y279642D01*
G01X7733028Y283022D01*
G01X7727336Y285879D01*
G01X7721459Y288081D01*
G01X7715410Y289498D01*
G01X7709203Y290000D01*
G37*
G36*
G01X7740958Y137241D02*
G01X7719745Y116028D01*
G01X7716576Y118935D01*
G01X7713483Y121264D01*
G01X7710443Y123070D01*
G01X7707433Y124411D01*
G01X7701416Y125919D01*
G01X7695249Y126237D01*
G01X7688750Y125815D01*
G01X7681739Y125101D01*
G01X7674034Y124546D01*
G01X7665454Y124598D01*
G01X7732388Y191533D01*
G01X7732441Y182953D01*
G01X7731885Y175248D01*
G01X7731172Y168237D01*
G01X7730750Y161738D01*
G01X7731068Y155571D01*
G01X7732576Y149553D01*
G01X7733916Y146544D01*
G01X7735723Y143504D01*
G01X7738051Y140411D01*
G01X7740958Y137241D01*
G37*
G36*
G01X7464154Y365802D02*
G01X7505696Y394971D01*
G01X7510413Y390895D01*
G01X7515535Y387584D01*
G01X7521001Y384931D01*
G01X7526751Y382831D01*
G01X7532725Y381175D01*
G01X7538862Y379856D01*
G01X7551390Y377804D01*
G01X7478555Y317342D01*
G01X7478587Y323663D01*
G01X7478195Y330208D01*
G01X7477329Y336828D01*
G01X7475940Y343373D01*
G01X7473978Y349692D01*
G01X7471392Y355637D01*
G01X7468134Y361057D01*
G01X7464154Y365802D01*
G37*
G36*
G01X7455229Y290000D02*
G01X7455229Y340000D01*
G01X7461435Y340501D01*
G01X7467484Y341919D01*
G01X7473361Y344121D01*
G01X7479053Y346978D01*
G01X7484545Y350358D01*
G01X7489822Y354131D01*
G01X7499679Y362330D01*
G01X7499679Y267670D01*
G01X7489822Y275869D01*
G01X7484545Y279642D01*
G01X7479053Y283022D01*
G01X7473361Y285879D01*
G01X7467484Y288081D01*
G01X7461435Y289498D01*
G01X7455229Y290000D01*
G37*
G36*
G01X7628796Y340000D02*
G01X7628796Y290000D01*
G01X7622589Y289498D01*
G01X7616540Y288081D01*
G01X7610663Y285879D01*
G01X7604971Y283022D01*
G01X7599480Y279642D01*
G01X7594202Y275869D01*
G01X7584346Y267670D01*
G01X7584346Y362330D01*
G01X7594202Y354131D01*
G01X7599480Y350358D01*
G01X7604971Y346978D01*
G01X7610663Y344121D01*
G01X7616540Y341919D01*
G01X7622589Y340501D01*
G01X7628796Y340000D01*
G37*
G36*
G01X7486984Y137241D02*
G01X7465771Y116028D01*
G01X7462601Y118935D01*
G01X7459508Y121264D01*
G01X7456468Y123070D01*
G01X7453459Y124411D01*
G01X7447441Y125919D01*
G01X7441274Y126237D01*
G01X7434775Y125815D01*
G01X7427764Y125101D01*
G01X7420059Y124546D01*
G01X7411479Y124598D01*
G01X7478414Y191533D01*
G01X7478466Y182953D01*
G01X7477911Y175248D01*
G01X7477197Y168237D01*
G01X7476775Y161738D01*
G01X7477093Y155571D01*
G01X7478601Y149553D01*
G01X7479942Y146544D01*
G01X7481748Y143504D01*
G01X7484077Y140411D01*
G01X7486984Y137241D01*
G37*
G36*
G01X7371325Y362957D02*
G01X7335969Y398312D01*
G01X7340003Y403056D01*
G01X7343278Y408335D01*
G01X7345877Y414048D01*
G01X7347881Y420093D01*
G01X7349374Y426366D01*
G01X7350439Y432766D01*
G01X7351610Y445533D01*
G01X7418545Y378598D01*
G01X7405778Y377426D01*
G01X7399379Y376362D01*
G01X7393105Y374869D01*
G01X7387061Y372865D01*
G01X7381347Y370266D01*
G01X7376068Y366991D01*
G01X7371325Y362957D01*
G37*
G36*
G01X7494983Y405684D02*
G01X7465815Y364142D01*
G01X7461069Y368122D01*
G01X7455650Y371380D01*
G01X7449705Y373965D01*
G01X7443385Y375928D01*
G01X7436840Y377317D01*
G01X7430220Y378183D01*
G01X7423675Y378575D01*
G01X7417354Y378543D01*
G01X7477816Y451378D01*
G01X7479869Y438850D01*
G01X7481187Y432712D01*
G01X7482843Y426739D01*
G01X7484944Y420988D01*
G01X7487596Y415523D01*
G01X7490907Y410401D01*
G01X7494983Y405684D01*
G37*
G36*
G01X7201229Y290000D02*
G01X7201229Y340000D01*
G01X7207435Y340501D01*
G01X7213484Y341919D01*
G01X7219361Y344121D01*
G01X7225053Y346978D01*
G01X7230545Y350358D01*
G01X7235822Y354131D01*
G01X7245679Y362330D01*
G01X7245679Y267670D01*
G01X7235822Y275869D01*
G01X7230545Y279642D01*
G01X7225053Y283022D01*
G01X7219361Y285879D01*
G01X7213484Y288081D01*
G01X7207435Y289498D01*
G01X7201229Y290000D01*
G37*
G36*
G01X7331700Y394043D02*
G01X7367055Y358687D01*
G01X7363021Y353944D01*
G01X7359746Y348665D01*
G01X7357147Y342951D01*
G01X7355143Y336907D01*
G01X7353650Y330633D01*
G01X7352585Y324234D01*
G01X7351414Y311467D01*
G01X7284479Y378402D01*
G01X7297246Y379573D01*
G01X7303646Y380638D01*
G01X7309919Y382131D01*
G01X7315964Y384135D01*
G01X7321677Y386734D01*
G01X7326956Y390009D01*
G01X7331700Y394043D01*
G37*
G36*
G01X7374796Y340000D02*
G01X7374796Y290000D01*
G01X7368589Y289498D01*
G01X7362540Y288081D01*
G01X7356663Y285879D01*
G01X7350971Y283022D01*
G01X7345480Y279642D01*
G01X7340202Y275869D01*
G01X7330346Y267670D01*
G01X7330346Y362330D01*
G01X7340202Y354131D01*
G01X7345480Y350358D01*
G01X7350971Y346978D01*
G01X7356663Y344121D01*
G01X7362540Y341919D01*
G01X7368589Y340501D01*
G01X7374796Y340000D01*
G37*
G36*
G01X7216040Y619758D02*
G01X7237253Y640972D01*
G01X7240423Y638065D01*
G01X7243516Y635736D01*
G01X7246556Y633929D01*
G01X7249565Y632589D01*
G01X7255583Y631081D01*
G01X7261750Y630763D01*
G01X7268249Y631185D01*
G01X7275260Y631899D01*
G01X7282965Y632454D01*
G01X7291545Y632402D01*
G01X7224610Y565467D01*
G01X7224558Y574047D01*
G01X7225113Y581752D01*
G01X7225827Y588763D01*
G01X7226249Y595262D01*
G01X7225931Y601429D01*
G01X7224423Y607447D01*
G01X7223083Y610456D01*
G01X7221276Y613496D01*
G01X7218947Y616589D01*
G01X7216040Y619758D01*
G37*
G36*
G01X7120796Y340000D02*
G01X7120796Y290000D01*
G01X7114589Y289498D01*
G01X7108540Y288081D01*
G01X7102663Y285879D01*
G01X7096971Y283022D01*
G01X7091480Y279642D01*
G01X7086202Y275869D01*
G01X7076346Y267670D01*
G01X7076346Y362330D01*
G01X7086202Y354131D01*
G01X7091480Y350358D01*
G01X7096971Y346978D01*
G01X7102663Y344121D01*
G01X7108540Y341919D01*
G01X7114589Y340501D01*
G01X7120796Y340000D01*
G37*
G36*
G01X6700969Y612687D02*
G01X6736325Y648043D01*
G01X6741068Y644009D01*
G01X6746347Y640734D01*
G01X6752061Y638135D01*
G01X6758105Y636131D01*
G01X6764379Y634638D01*
G01X6770778Y633573D01*
G01X6783545Y632402D01*
G01X6716610Y565467D01*
G01X6715439Y578234D01*
G01X6714374Y584633D01*
G01X6712881Y590907D01*
G01X6710877Y596951D01*
G01X6708278Y602665D01*
G01X6705003Y607944D01*
G01X6700969Y612687D01*
G37*
G36*
G01X6324751Y220000D02*
G01X6326988Y269999D01*
G01X6335424Y270702D01*
G01X6342887Y272688D01*
G01X6349613Y275774D01*
G01X6355833Y279776D01*
G01X6361782Y284511D01*
G01X6367691Y289797D01*
G01X6380328Y301284D01*
G01X6378091Y187714D01*
G01X6365771Y199569D01*
G01X6359839Y205023D01*
G01X6353802Y209910D01*
G01X6347468Y214041D01*
G01X6340643Y217225D01*
G01X6333135Y219274D01*
G01X6329065Y219814D01*
G01X6324751Y220000D01*
G37*
G36*
G01X6484636Y335004D02*
G01X6521120Y300777D01*
G01X6518196Y297592D01*
G01X6515697Y294332D01*
G01X6511835Y287585D01*
G01X6509262Y280528D01*
G01X6507702Y273152D01*
G01X6506884Y265452D01*
G01X6506532Y257419D01*
G01X6506134Y240328D01*
G01X6424692Y319514D01*
G01X6441757Y320256D01*
G01X6449694Y320682D01*
G01X6457273Y321533D01*
G01X6464527Y323099D01*
G01X6471484Y325672D01*
G01X6478178Y329544D01*
G01X6484636Y335004D01*
G37*
G36*
G01X6279012Y269999D02*
G01X6281249Y220000D01*
G01X6276935Y219814D01*
G01X6272865Y219274D01*
G01X6265357Y217225D01*
G01X6258532Y214041D01*
G01X6252198Y209910D01*
G01X6246161Y205023D01*
G01X6240230Y199569D01*
G01X6227909Y187714D01*
G01X6225672Y301284D01*
G01X6238309Y289797D01*
G01X6244219Y284511D01*
G01X6250167Y279776D01*
G01X6256387Y275774D01*
G01X6263113Y272688D01*
G01X6270576Y270702D01*
G01X6279012Y269999D01*
G37*
G36*
G01X4762100Y2182534D02*
G01X4712100Y2182534D01*
G01X4711880Y2187707D01*
G01X4711238Y2192470D01*
G01X4710204Y2196869D01*
G01X4708804Y2200951D01*
G01X4707067Y2204762D01*
G01X4705021Y2208348D01*
G01X4700114Y2215030D01*
G01X4694308Y2221370D01*
G01X4687828Y2227736D01*
G01X4680899Y2234501D01*
G01X4673745Y2242033D01*
G01X4800455Y2242033D01*
G01X4793301Y2234501D01*
G01X4786372Y2227736D01*
G01X4779892Y2221370D01*
G01X4774086Y2215030D01*
G01X4769179Y2208348D01*
G01X4767133Y2204762D01*
G01X4765396Y2200951D01*
G01X4763996Y2196869D01*
G01X4762962Y2192470D01*
G01X4762320Y2187707D01*
G01X4762100Y2182534D01*
G37*
G36*
G01X7147286Y1188102D02*
G01X7172686Y1188102D01*
G03X7191736Y1150002I47625J0D01*
G01X7134986Y1150002D01*
G03X7147286Y1188102I-52859J38100D01*
G37*
G36*
G01X7238456Y1109488D02*
G01X7260444Y1051579D01*
G03X7224986Y1070002I-46866J-46866D01*
G01X7224986Y1149899D01*
G03X7238456Y1109488I67352J0D01*
G37*
G36*
G01X7096886Y951964D02*
G01X7096886Y977364D01*
G03X7134986Y996414I0J47625D01*
G01X7134986Y932914D01*
G03X7096886Y951964I-38100J-28575D01*
G37*
G36*
G01X7259986Y982698D02*
G01X7259986Y957298D01*
G03X7224986Y938248I0J-41678D01*
G01X7224986Y1001748D01*
G03X7259986Y982698I35000J22628D01*
G37*
G36*
G01X6947286Y1193760D02*
G01X6972686Y1193760D01*
G03X6991736Y1155660I47625J0D01*
G01X6928236Y1155660D01*
G03X6947286Y1193760I-28575J38100D01*
G37*
G36*
G01X7036286Y977364D02*
G01X7036286Y951964D01*
G03X6998186Y932914I0J-47625D01*
G01X6998186Y996414D01*
G03X7036286Y977364I38100J28575D01*
G37*
G36*
G01X6873686Y951964D02*
G01X6873686Y977364D01*
G03X6911786Y996414I0J47625D01*
G01X6911786Y932914D01*
G03X6873686Y951964I-38100J-28575D01*
G37*
G36*
G01X4388330Y1437980D02*
G01X4380974Y1501335D01*
G03X4407491Y1580885I-106066J79549D01*
G01X4467879Y1464497D01*
G03X4388330Y1437980I-0J-132582D01*
G37*
G36*
G01X4561046Y1559997D02*
G01X4561046Y1509997D01*
G03X4542492Y1472497I28617J-37500D01*
G01X4542492Y1597497D01*
G03X4561046Y1559997I47172J0D01*
G37*
G36*
G01X9830648Y1944996D02*
G01X9830648Y1924996D01*
G01X9825144Y1924754D01*
G01X9820428Y1924049D01*
G01X9816401Y1922911D01*
G01X9812963Y1921372D01*
G01X9810016Y1919462D01*
G01X9807460Y1917212D01*
G01X9803128Y1911817D01*
G01X9794803Y1898307D01*
G01X9789226Y1890688D01*
G01X9785736Y1886770D01*
G01X9781648Y1882821D01*
G01X9781648Y1987171D01*
G01X9785736Y1983222D01*
G01X9789226Y1979304D01*
G01X9794803Y1971685D01*
G01X9803128Y1958176D01*
G01X9807460Y1952780D01*
G01X9810016Y1950531D01*
G01X9812963Y1948620D01*
G01X9816401Y1947081D01*
G01X9820428Y1945943D01*
G01X9825144Y1945238D01*
G01X9830648Y1944996D01*
G37*
G36*
G01X9814980Y2144996D02*
G01X9814980Y2124996D01*
G01X9812129Y2124638D01*
G01X9809491Y2123616D01*
G01X9807042Y2122007D01*
G01X9804758Y2119889D01*
G01X9800592Y2114431D01*
G01X9796804Y2107862D01*
G01X9789606Y2093859D01*
G01X9785816Y2087660D01*
G01X9783792Y2085032D01*
G01X9781648Y2082821D01*
G01X9781648Y2187171D01*
G01X9783792Y2184959D01*
G01X9785816Y2182331D01*
G01X9789606Y2176133D01*
G01X9796804Y2162129D01*
G01X9800592Y2155560D01*
G01X9804758Y2150103D01*
G01X9807042Y2147984D01*
G01X9809491Y2146375D01*
G01X9812129Y2145354D01*
G01X9814980Y2144996D01*
G37*
G36*
G01X9674406Y2260278D02*
G01X9660264Y2274420D01*
G01X9663985Y2278483D01*
G01X9666821Y2282316D01*
G01X9668864Y2285969D01*
G01X9670207Y2289488D01*
G01X9670940Y2292923D01*
G01X9671156Y2296321D01*
G01X9670405Y2303199D01*
G01X9666739Y2318638D01*
G01X9665295Y2327970D01*
G01X9664992Y2333207D01*
G01X9665090Y2338890D01*
G01X9738877Y2265104D01*
G01X9733194Y2265005D01*
G01X9727956Y2265309D01*
G01X9718625Y2266753D01*
G01X9703186Y2270418D01*
G01X9696307Y2271170D01*
G01X9692909Y2270954D01*
G01X9689475Y2270220D01*
G01X9685955Y2268878D01*
G01X9682303Y2266835D01*
G01X9678469Y2263999D01*
G01X9674406Y2260278D01*
G37*
G36*
G01X9639315Y2524995D02*
G01X9639315Y2544995D01*
G01X9644819Y2545237D01*
G01X9649535Y2545942D01*
G01X9653563Y2547080D01*
G01X9657000Y2548619D01*
G01X9659948Y2550529D01*
G01X9662503Y2552779D01*
G01X9666836Y2558174D01*
G01X9675161Y2571684D01*
G01X9680738Y2579303D01*
G01X9684227Y2583221D01*
G01X9688315Y2587170D01*
G01X9688315Y2482820D01*
G01X9684227Y2486769D01*
G01X9680738Y2490687D01*
G01X9675161Y2498306D01*
G01X9666836Y2511815D01*
G01X9662503Y2517211D01*
G01X9659948Y2519461D01*
G01X9657000Y2521371D01*
G01X9653563Y2522910D01*
G01X9649535Y2524048D01*
G01X9644819Y2524753D01*
G01X9639315Y2524995D01*
G37*
G36*
G01X9826802Y2749995D02*
G01X9834256Y2729995D01*
G01X9828924Y2729744D01*
G01X9824282Y2729013D01*
G01X9820249Y2727834D01*
G01X9816740Y2726238D01*
G01X9813672Y2724259D01*
G01X9810963Y2721927D01*
G01X9806285Y2716336D01*
G01X9802041Y2709720D01*
G01X9797566Y2702335D01*
G01X9792193Y2694439D01*
G01X9785256Y2686286D01*
G01X9777802Y2790369D01*
G01X9782979Y2785737D01*
G01X9788645Y2779802D01*
G01X9801010Y2766397D01*
G01X9807489Y2760108D01*
G01X9814021Y2754884D01*
G01X9817272Y2752856D01*
G01X9820495Y2751315D01*
G01X9823676Y2750337D01*
G01X9826802Y2749995D01*
G37*
G36*
G01X6546988Y2316470D02*
G01X6558448Y2292010D01*
G03X6544978Y2251598I53882J-40411D01*
G01X6506577Y2303000D01*
G03X6546988Y2316470I0J67352D01*
G37*
G36*
G01X7298077Y2272695D02*
G01X7298077Y2247295D01*
G03X7259977Y2228245I0J-47625D01*
G01X7259977Y2291745D01*
G03X7298077Y2272695I38100J28575D01*
G37*
G36*
G01X5248533Y1892847D02*
G01X5213486Y1928511D01*
G03X5240002Y2008061I-106066J79549D01*
G01X5320650Y1926796D01*
G03X5248533Y1892847I11110J-117176D01*
G37*
G36*
G01X5395650Y1994996D02*
G01X5395650Y1944996D01*
G03X5320650Y1926796I0J-163629D01*
G01X5320650Y2013196D01*
G03X5395650Y1994996I75000J145429D01*
G37*
G36*
G01X6678248Y965108D02*
G01X6697035Y903895D01*
G03X6659498Y929998I-91408J-91408D01*
G01X6659498Y1009997D01*
G03X6678248Y965108I64019J380D01*
G37*
G36*
G01X6523778Y944422D02*
G01X6523778Y974902D01*
G03X6569498Y997762I0J57150D01*
G01X6569498Y929998D01*
G03X6523778Y944422I-45720J-65248D01*
G37*
G36*
G01X6697598Y1122702D02*
G01X6697598Y1097302D01*
G03X6659498Y1078252I0J-47625D01*
G01X6659498Y1141752D01*
G03X6697598Y1122702I38100J28575D01*
G37*
G36*
G01X6531398Y1102636D02*
G01X6531398Y1128036D01*
G03X6569498Y1147086I0J47625D01*
G01X6569498Y1083586D01*
G03X6531398Y1102636I-38100J-28575D01*
G37*
G36*
G01X4916951Y863393D02*
G01X4819096Y890537D01*
G03X4752490Y929998I-110398J-110398D01*
G01X4877490Y929998D01*
G03X4916951Y863393I149858J43793D01*
G37*
G36*
G01X4754654Y1183767D02*
G01X4804654Y1183767D01*
G03X4842154Y1109998I91308J0D01*
G01X4717154Y1109998D01*
G03X4754654Y1183767I-53808J73769D01*
G37*
G36*
G01X5734588Y2117298D02*
G01X5734588Y2142698D01*
G03X5759988Y2161748I0J26458D01*
G01X5759988Y2098248D01*
G03X5734588Y2117298I-25400J-7408D01*
G37*
G36*
G01X5792288Y2208098D02*
G01X5817688Y2208098D01*
G03X5836738Y2169998I47625J0D01*
G01X5773238Y2169998D01*
G03X5792288Y2208098I-28575J38100D01*
G37*
G36*
G01X6947286Y1484997D02*
G01X6972686Y1484997D01*
G01X6972686Y1484997D01*
G01X6991736Y1484993D01*
G01X6991736Y1484993D01*
G01X6928236Y1484993D01*
G01X6928236Y1484993D01*
G01X6947286Y1484997D01*
G37*
G36*
G01X6972686Y1186901D02*
G01X6947286Y1186901D01*
G03X6928236Y1225001I-47625J0D01*
G01X6991736Y1225001D01*
G03X6972686Y1186901I28575J-38100D01*
G37*
G36*
G01X7172686Y1281897D02*
G01X7147286Y1281897D01*
G03X7128236Y1319997I-47625J0D01*
G01X7191736Y1319997D01*
G03X7172686Y1281897I28575J-38100D01*
G37*
G36*
G01X5489989Y2056795D02*
G01X5439989Y2056795D01*
G03X5434329Y2131795I-499702J0D01*
G01X5514976Y2131795D01*
G03X5489989Y2056795I100063J-75000D01*
G37*
G36*
G01X5491614Y2266976D02*
G01X5567293Y2271945D01*
G03X5514976Y2218196I1965038J-1965038D01*
G01X5434329Y2218196D01*
G03X5491614Y2266976I-275510J381576D01*
G37*
G36*
G01X5689591Y2187696D02*
G01X5689591Y2162296D01*
G03X5665649Y2143246I0J-24570D01*
G01X5665649Y2206746D01*
G03X5689591Y2187696I23942J5520D01*
G37*
G36*
G01X7772000Y2306380D02*
G01X7722000Y2306380D01*
G01X7721731Y2312550D01*
G01X7721010Y2317357D01*
G01X7719969Y2321254D01*
G01X7718738Y2324695D01*
G01X7716236Y2332026D01*
G01X7715226Y2336823D01*
G01X7714551Y2342980D01*
G01X7775418Y2347011D01*
G01X7775658Y2340260D01*
G01X7775452Y2334947D01*
G01X7774214Y2326712D01*
G01X7772723Y2318469D01*
G01X7772202Y2313145D01*
G01X7772000Y2306380D01*
G37*
G36*
G01X7846585Y2539995D02*
G01X7846585Y2489995D01*
G01X7839862Y2489759D01*
G01X7833502Y2489136D01*
G01X7822375Y2487245D01*
G01X7814201Y2485354D01*
G01X7809984Y2484495D01*
G01X7809984Y2545495D01*
G01X7814201Y2544636D01*
G01X7822375Y2542745D01*
G01X7833502Y2540854D01*
G01X7839862Y2540231D01*
G01X7846585Y2539995D01*
G37*
G36*
G01X5082823Y1464997D02*
G01X5082823Y1414997D01*
G01X5078784Y1415269D01*
G01X5075304Y1415919D01*
G01X5069462Y1417364D01*
G01X5066819Y1417665D01*
G01X5064175Y1417354D01*
G01X5061390Y1416185D01*
G01X5058323Y1413910D01*
G01X5058323Y1466084D01*
G01X5061390Y1463809D01*
G01X5064175Y1462640D01*
G01X5066819Y1462330D01*
G01X5069462Y1462630D01*
G01X5075304Y1464076D01*
G01X5078784Y1464726D01*
G01X5082823Y1464997D01*
G37*
G36*
G01X8320488Y2037086D02*
G01X8270488Y2037086D01*
G01X8270486Y2067088D01*
G01X8320489Y2067088D01*
G01X8320488Y2037086D01*
G37*
G36*
G01X8270488Y2097089D02*
G01X8320488Y2097089D01*
G01X8320489Y2067088D01*
G01X8270486Y2067088D01*
G01X8270488Y2097089D01*
G37*
G36*
G01X8270488Y1957089D02*
G01X8320488Y1957089D01*
G01X8320489Y1927088D01*
G01X8270486Y1927088D01*
G01X8270488Y1957089D01*
G37*
G36*
G01X8255489Y2162087D02*
G01X8255489Y2112087D01*
G01X8225488Y2112086D01*
G01X8225488Y2162089D01*
G01X8255489Y2162087D01*
G37*
G36*
G01X8180488Y2037086D02*
G01X8130488Y2037086D01*
G01X8130487Y2067088D01*
G01X8180489Y2067088D01*
G01X8180488Y2037086D01*
G37*
G36*
G01X8130488Y2097089D02*
G01X8180488Y2097089D01*
G01X8180489Y2067088D01*
G01X8130487Y2067088D01*
G01X8130488Y2097089D01*
G37*
G36*
G01X8180488Y1897086D02*
G01X8130488Y1897086D01*
G01X8130487Y1927088D01*
G01X8180489Y1927088D01*
G01X8180488Y1897086D01*
G37*
G36*
G01X8130488Y1957089D02*
G01X8180488Y1957089D01*
G01X8180489Y1927088D01*
G01X8130487Y1927088D01*
G01X8130488Y1957089D01*
G37*
G36*
G01X8460487Y1897086D02*
G01X8410487Y1897086D01*
G01X8410486Y1927088D01*
G01X8460489Y1927088D01*
G01X8460487Y1897086D01*
G37*
G36*
G01X8410487Y2097089D02*
G01X8460487Y2097089D01*
G01X8460489Y2067088D01*
G01X8410486Y2067088D01*
G01X8410487Y2097089D01*
G37*
G36*
G01X8335486Y2112087D02*
G01X8335486Y2162087D01*
G01X8365487Y2162089D01*
G01X8365487Y2112086D01*
G01X8335486Y2112087D01*
G37*
G36*
G01X8395489Y2162087D02*
G01X8395489Y2112087D01*
G01X8365487Y2112086D01*
G01X8365487Y2162089D01*
G01X8395489Y2162087D01*
G37*
G36*
G01X8335486Y1972088D02*
G01X8335486Y2022088D01*
G01X8365487Y2022089D01*
G01X8365487Y1972086D01*
G01X8335486Y1972088D01*
G37*
G36*
G01X8395489Y2022088D02*
G01X8395489Y1972088D01*
G01X8365487Y1972086D01*
G01X8365487Y2022089D01*
G01X8395489Y2022088D01*
G37*
G36*
G01X8255489Y2022088D02*
G01X8255489Y1972088D01*
G01X8225488Y1972086D01*
G01X8225488Y2022089D01*
G01X8255489Y2022088D01*
G37*
G36*
G01X8195486Y1972088D02*
G01X8195486Y2022088D01*
G01X8225488Y2022089D01*
G01X8225488Y1972086D01*
G01X8195486Y1972088D01*
G37*
G36*
G01X8195486Y1832088D02*
G01X8195486Y1882088D01*
G01X8225488Y1882089D01*
G01X8225488Y1832087D01*
G01X8195486Y1832088D01*
G37*
G36*
G01X8335486Y1832088D02*
G01X8335486Y1882088D01*
G01X8365487Y1882089D01*
G01X8365487Y1832087D01*
G01X8335486Y1832088D01*
G37*
G36*
G01X8395489Y1882088D02*
G01X8395489Y1832088D01*
G01X8365487Y1832087D01*
G01X8365487Y1882089D01*
G01X8395489Y1882088D01*
G37*
G36*
G01X5362663Y1357316D02*
G03X5395345Y1339997I32681J22177D01*
G01X5284989Y1314997D01*
G01X5224634Y1339997D01*
G03X5327308Y1392671I-30491J185838D01*
G01X5362663Y1357316D01*
G37*
G36*
G01X4954654Y1208767D02*
G02X4804654Y1258767I0J249999D01*
G01X4779654Y1183767D01*
G01X4804654Y1108767D01*
G02X4954654Y1158767I150000J-200000D01*
G01X4954654Y1208767D01*
G37*
G36*
G01X8046984Y181650D02*
G01X8046984Y194350D01*
G03X8065914Y196890I0J71815D01*
G01X8065914Y179110D01*
G03X8046984Y181650I-18931J-69275D01*
G37*
G04 TearDrop End*

G04 Pad Start*
G54D10*
G01X6327509Y2872495D03*
G01X6327509Y3332514D03*
G01X7272491Y2872495D03*
G01X7272491Y3332514D03*
G54D11*
G01X6800000Y3292484D03*
G54D12*
G01X6800000Y2667491D03*
G54D10*
G01X5127509Y2872495D03*
G01X5127509Y3332514D03*
G01X6072491Y2872495D03*
G01X6072491Y3332514D03*
G54D11*
G01X5600000Y3292484D03*
G54D12*
G01X5600000Y2667491D03*
G54D10*
G01X3927509Y2872495D03*
G01X3927509Y3332514D03*
G01X4872491Y2872495D03*
G01X4872491Y3332514D03*
G54D11*
G01X4400000Y3292484D03*
G54D12*
G01X4400000Y2667491D03*
G54D13*
G01X6364987Y1115336D03*
G01X6364987Y964664D03*
G54D14*
G01X6384987Y1449993D03*
G01X6384987Y1260001D03*
G01X6584987Y1354997D03*
G54D15*
G01X5344986Y1459996D03*
G01X5249990Y1459996D03*
G01X5154994Y1459996D03*
G01X5154994Y1729998D03*
G01X5249990Y1729998D03*
G01X5344986Y1729998D03*
G54D16*
G01X5799988Y1319997D03*
G01X5599989Y1319997D03*
G54D17*
G01X4779654Y1314997D03*
G01X4930327Y1314997D03*
G54D19*
G01X5730325Y1514997D03*
G01X5579652Y1514997D03*
G54D17*
G01X5469653Y1969996D03*
G01X5620325Y1969996D03*
G01X5579652Y1724997D03*
G01X5730325Y1724997D03*
G54D20*
G01X4789988Y1969973D03*
G01X4929993Y1969973D03*
G54D21*
G01X4469991Y1224999D03*
G01X4469991Y954997D03*
G54D22*
G01X4804990Y1564994D03*
G01X4804990Y1704999D03*
G54D23*
G01X7570495Y2769095D03*
G01X7570495Y2642095D03*
G01X7570495Y2515095D03*
G01X7570495Y2388095D03*
G01X7570495Y2261095D03*
G01X7570495Y2134095D03*
G01X7570495Y2007095D03*
G01X7570495Y1880095D03*
G01X7570495Y1753095D03*
G01X7570495Y1626095D03*
G01X7570495Y1499095D03*
G01X7570495Y1372095D03*
G01X7570495Y1245095D03*
G01X7570495Y1118095D03*
G54D24*
G01X7747000Y990105D03*
G01X7874000Y990105D03*
G01X8001000Y990105D03*
G01X8128000Y990105D03*
G01X8255000Y990105D03*
G01X8382000Y990105D03*
G01X8509000Y990105D03*
G01X8636000Y990105D03*
G01X8763000Y990105D03*
G01X8890000Y990105D03*
G01X9017000Y990105D03*
G01X9144000Y993102D03*
G54D25*
G01X9320505Y1118095D03*
G01X9320505Y1245095D03*
G01X9320505Y1372095D03*
G01X9320505Y1499095D03*
G01X9320505Y1626095D03*
G01X9320505Y1753095D03*
G01X9320505Y1880095D03*
G01X9320505Y2007095D03*
G01X9320505Y2134095D03*
G01X9320505Y2261095D03*
G01X9320505Y2388095D03*
G01X9320505Y2515095D03*
G01X9320505Y2642095D03*
G01X9320505Y2769095D03*
G54D26*
G01X8435492Y1857083D03*
G01X8295488Y1857083D03*
G01X8155483Y1857083D03*
G01X8155483Y2137093D03*
G01X8295488Y2137093D03*
G01X8435492Y2137093D03*
G01X8435492Y1997088D03*
G01X8155483Y1997088D03*
G01X8295488Y1997088D03*
G54D27*
G01X5924988Y1110000D03*
G01X5924988Y969996D03*
G54D28*
G01X5694989Y959662D03*
G01X5694989Y1110334D03*
G54D13*
G01X5484989Y1115334D03*
G01X5484989Y964662D03*
G54D29*
G01X300000Y3450000D03*
G01X9700000Y3450000D03*
G01X300000Y300000D03*
G01X9700000Y300000D03*
G54D30*
G01X8176987Y188000D03*
G01X8176987Y442000D03*
G01X8049987Y315000D03*
G01X8049987Y569000D03*
G01X7922987Y188000D03*
G01X7922987Y442000D03*
G01X7795987Y315000D03*
G01X7795987Y569000D03*
G01X7668987Y188000D03*
G01X7668987Y442000D03*
G01X7542012Y315000D03*
G01X7542012Y569000D03*
G01X7415012Y188000D03*
G01X7415012Y442000D03*
G01X7288012Y315000D03*
G01X7288012Y569000D03*
G01X7161012Y188000D03*
G01X7161012Y442000D03*
G01X7034012Y315000D03*
G01X7034012Y569000D03*
G01X6907012Y188000D03*
G01X6907012Y442000D03*
G01X6780012Y315000D03*
G01X6780012Y569000D03*
G54D31*
G01X6430000Y243499D03*
G01X6430000Y513501D03*
G01X6176000Y243499D03*
G01X6176000Y513501D03*
G01X5922000Y243499D03*
G01X5922000Y513501D03*
G01X5414000Y243499D03*
G01X5414000Y513501D03*
G01X5668000Y513501D03*
G01X5668000Y243499D03*
G01X5160000Y243499D03*
G01X5160000Y513501D03*
G01X4398000Y243499D03*
G01X4398000Y513501D03*
G01X4652000Y513501D03*
G01X4652000Y243499D03*
G01X4906000Y243499D03*
G01X4906000Y513501D03*
G01X3636000Y243499D03*
G01X3636000Y513501D03*
G01X3890000Y513501D03*
G01X3890000Y243499D03*
G01X4144000Y243499D03*
G01X4144000Y513501D03*
G01X2874000Y243499D03*
G01X2874000Y513501D03*
G01X3128000Y513501D03*
G01X3128000Y243499D03*
G01X3382000Y243499D03*
G01X3382000Y513501D03*
G01X2112000Y243499D03*
G01X2112000Y513501D03*
G01X2366000Y513501D03*
G01X2366000Y243499D03*
G01X2620000Y243499D03*
G01X2620000Y513501D03*
G54D32*
G01X1834994Y3195000D03*
G01X1115006Y3195000D03*
G01X1834994Y2235000D03*
G01X1115006Y2235000D03*
G01X1834994Y1275000D03*
G01X1115006Y1275000D03*
G54D33*
G01X4483100Y2298700D03*
G54D34*
G01X4737100Y2298700D03*
G01X4991100Y2298700D03*
G01X5245100Y2298700D03*
G54D27*
G01X7179986Y1110002D03*
G01X7179986Y969998D03*
G54D13*
G01X6954986Y1115336D03*
G01X6954986Y964664D03*
G54D35*
G01X4474991Y1734997D03*
G01X4474991Y1534997D03*
G54D36*
G01X9734982Y1934996D03*
G01X9734982Y2134996D03*
G01X9734982Y2334995D03*
G01X9734982Y2534995D03*
G01X9734982Y2734995D03*
G54D37*
G01X9734982Y2934994D03*
G54D10*
G01X2727509Y2872495D03*
G01X2727509Y3332514D03*
G01X3672491Y2872495D03*
G01X3672491Y3332514D03*
G54D11*
G01X3200000Y3292484D03*
G54D12*
G01X3200000Y2667491D03*
G54D38*
G01X6046497Y2235000D03*
G01X6483478Y2235000D03*
G01X6761495Y2235000D03*
G01X7198477Y2235000D03*
G54D19*
G01X5280326Y1969996D03*
G01X5129653Y1969996D03*
G54D22*
G01X6614498Y969998D03*
G01X6614498Y1110002D03*
G54D39*
G01X5204990Y1019998D03*
G01X4804990Y1019998D03*
G54D27*
G01X5804988Y2129998D03*
G01X5804988Y1989993D03*
G54D14*
G01X6959986Y1449993D03*
G01X6959986Y1260001D03*
G01X7159986Y1354997D03*
G54D17*
G01X5474653Y2174996D03*
G01X5625325Y2174996D03*
G04 Pad End*

G04 Via Start*
G54D40*
G01X7744985Y2344995D03*
G01X7809984Y2514995D03*
G54D41*
G01X5034990Y1439997D03*
G01X4934990Y2104996D03*
G54D40*
G01X191000Y589932D03*
G01X191000Y789932D03*
G01X191000Y989932D03*
G01X191000Y1189932D03*
G01X191000Y1389932D03*
G01X191000Y1589933D03*
G01X191000Y1789933D03*
G01X191000Y1989933D03*
G01X191000Y2189933D03*
G01X191000Y2389933D03*
G01X191000Y2589933D03*
G01X191000Y2789933D03*
G01X191000Y2989933D03*
G01X191000Y3189933D03*
G01X391000Y589932D03*
G01X391000Y789932D03*
G01X391000Y989932D03*
G01X391000Y1189932D03*
G01X391000Y1389932D03*
G01X391000Y1589933D03*
G01X391000Y1789933D03*
G01X391000Y1989933D03*
G01X391000Y2189933D03*
G01X391000Y2389933D03*
G01X391000Y2589933D03*
G01X391000Y2789933D03*
G01X391000Y2989933D03*
G01X391000Y3189933D03*
G01X591000Y189932D03*
G01X591000Y389932D03*
G01X591000Y589932D03*
G01X591000Y789932D03*
G01X591000Y989932D03*
G01X591000Y1189932D03*
G01X591000Y1389932D03*
G01X591000Y1589933D03*
G01X591000Y1789933D03*
G01X591000Y1989933D03*
G01X591000Y2189933D03*
G01X591000Y2389933D03*
G01X591000Y2589933D03*
G01X591000Y2789933D03*
G01X591000Y2989933D03*
G01X591000Y3189933D03*
G01X591000Y3389934D03*
G01X591000Y3589934D03*
G01X791000Y189932D03*
G01X791000Y389932D03*
G01X791000Y589932D03*
G01X791000Y789932D03*
G01X791000Y989932D03*
G01X791000Y1189932D03*
G01X791000Y1389932D03*
G01X791000Y1589933D03*
G01X791000Y1789933D03*
G01X791000Y1989933D03*
G01X791000Y2189933D03*
G01X791000Y2389933D03*
G01X791000Y2589933D03*
G01X791000Y2789933D03*
G01X791000Y2989933D03*
G01X791000Y3189933D03*
G01X791000Y3389934D03*
G01X791000Y3589934D03*
G01X991001Y189932D03*
G01X991001Y389932D03*
G01X991001Y589932D03*
G01X991001Y789932D03*
G01X991001Y1589933D03*
G01X991001Y1789933D03*
G01X991001Y2589933D03*
G01X991001Y2789933D03*
G01X991001Y3589934D03*
G01X1191001Y189932D03*
G01X1191001Y389932D03*
G01X1191001Y589932D03*
G01X1191001Y789932D03*
G01X1191001Y1589933D03*
G01X1191001Y1789933D03*
G01X1191001Y2589933D03*
G01X1191001Y2789933D03*
G01X1191001Y3589934D03*
G01X1391001Y189932D03*
G01X1391001Y389932D03*
G01X1391001Y589932D03*
G01X1391001Y789932D03*
G01X1391001Y989932D03*
G01X1391001Y1589933D03*
G01X1391001Y1789933D03*
G01X1391001Y1989933D03*
G01X1391001Y2589933D03*
G01X1391001Y2789933D03*
G01X1391001Y2989933D03*
G01X1391001Y3389934D03*
G01X1391001Y3589934D03*
G01X1591001Y189932D03*
G01X1591001Y389932D03*
G01X1591001Y589932D03*
G01X1791001Y189932D03*
G01X1791001Y589932D03*
G01X1991001Y189932D03*
G01X1991001Y589932D03*
G01X2191001Y389932D03*
G01X2391001Y389932D03*
G01X2391001Y789932D03*
G01X2391001Y989932D03*
G01X2391001Y1189932D03*
G01X2391001Y1389932D03*
G01X2391001Y1589933D03*
G01X2391001Y1789933D03*
G01X2391001Y1989933D03*
G01X2391001Y2189933D03*
G01X2391001Y2389933D03*
G01X2391001Y2589933D03*
G01X2391001Y2789933D03*
G01X2391001Y2989933D03*
G01X2591001Y389932D03*
G01X2591001Y789932D03*
G01X2591001Y989932D03*
G01X2591001Y1189932D03*
G01X2591001Y1389932D03*
G01X2591001Y1589933D03*
G01X2591001Y1789933D03*
G01X2591001Y1989933D03*
G01X2591001Y2189933D03*
G01X2591001Y2389933D03*
G01X2591001Y2589933D03*
G01X2791002Y389932D03*
G01X2791002Y789932D03*
G01X2791002Y989932D03*
G01X2791002Y1189932D03*
G01X2791002Y1389932D03*
G01X2791002Y1589933D03*
G01X2791002Y1789933D03*
G01X2791002Y1989933D03*
G01X2791002Y2189933D03*
G01X2791002Y2389933D03*
G01X2791002Y2589933D03*
G01X2991002Y189932D03*
G01X2991002Y389932D03*
G01X2991002Y589932D03*
G01X2991002Y789932D03*
G01X2991002Y989932D03*
G01X2991002Y1189932D03*
G01X2991002Y1389932D03*
G01X2991002Y1589933D03*
G01X2991002Y1789933D03*
G01X2991002Y1989933D03*
G01X2991002Y2189933D03*
G01X2991002Y2389933D03*
G01X2991002Y2589933D03*
G01X2991002Y2789933D03*
G01X2991002Y2989933D03*
G01X3191002Y389932D03*
G01X3191002Y789932D03*
G01X3191002Y989932D03*
G01X3191002Y1189932D03*
G01X3191002Y1389932D03*
G01X3191002Y1589933D03*
G01X3191002Y1789933D03*
G01X3191002Y1989933D03*
G01X3191002Y2189933D03*
G01X3191002Y2389933D03*
G01X3191002Y2989933D03*
G01X3391002Y389932D03*
G01X3391002Y789932D03*
G01X3391002Y989932D03*
G01X3391002Y1189932D03*
G01X3391002Y1389932D03*
G01X3391002Y1589933D03*
G01X3391002Y1789933D03*
G01X3391002Y1989933D03*
G01X3391002Y2189933D03*
G01X3391002Y2389933D03*
G01X3391002Y2589933D03*
G01X3391002Y2789933D03*
G01X3391002Y2989933D03*
G01X3591002Y389932D03*
G01X3591002Y789932D03*
G01X3591002Y989932D03*
G01X3591002Y1189932D03*
G01X3591002Y1389932D03*
G01X3591002Y1589933D03*
G01X3591002Y1789933D03*
G01X3591002Y1989933D03*
G01X3591002Y2189933D03*
G01X3591002Y2389933D03*
G01X3591002Y2589933D03*
G01X3791002Y389932D03*
G01X3791002Y789932D03*
G01X3791002Y989932D03*
G01X3791002Y1189932D03*
G01X3791002Y1389932D03*
G01X3791002Y1589933D03*
G01X3791002Y1789933D03*
G01X3791002Y1989933D03*
G01X3791002Y2189933D03*
G01X3791002Y2389933D03*
G01X3791002Y2589933D03*
G01X3991002Y2389933D03*
G01X3991002Y2589933D03*
G01X4191002Y2589933D03*
G01X4191002Y2789933D03*
G01X4191002Y2989933D03*
G01X4391002Y2989933D03*
G01X4591003Y2589933D03*
G01X4591003Y2789933D03*
G01X4591003Y2989933D03*
G01X4791003Y2589933D03*
G01X4991003Y2589933D03*
G01X5191003Y2589933D03*
G01X5391003Y2589933D03*
G01X5391003Y2789933D03*
G01X5391003Y2989933D03*
G01X5591003Y2989933D03*
G01X5791003Y2589933D03*
G01X5791003Y2789933D03*
G01X5791003Y2989933D03*
G01X5991003Y2589933D03*
G01X6191003Y2589933D03*
G01X6391003Y2589933D03*
G01X6591004Y2589933D03*
G01X6591004Y2789933D03*
G01X6591004Y2989933D03*
G01X6791004Y2989933D03*
G01X6991004Y2589933D03*
G01X6991004Y2789933D03*
G01X6991004Y2989933D03*
G01X7191004Y2589933D03*
G01X1590001Y990001D03*
G01X1590001Y1590001D03*
G01X1590001Y1790001D03*
G01X1590001Y1990001D03*
G01X1590001Y2590001D03*
G01X1590001Y2790002D03*
G01X1590001Y3590002D03*
G01X1790001Y1790001D03*
G01X1790001Y2590001D03*
G01X1790001Y2790002D03*
G01X1790001Y3590002D03*
G01X1990001Y990001D03*
G01X1990001Y1590001D03*
G01X1990001Y1790001D03*
G01X1990001Y2590001D03*
G01X1990001Y2790002D03*
G01X1990001Y3590002D03*
G01X2190001Y990001D03*
G01X2190001Y1190001D03*
G01X2190001Y1390001D03*
G01X2190001Y1590001D03*
G01X2190001Y1790001D03*
G01X2190001Y1990001D03*
G01X2190001Y2190001D03*
G01X2190001Y2390001D03*
G01X2190001Y2590001D03*
G01X2190001Y2790002D03*
G01X2190001Y2990002D03*
G01X2190001Y3190002D03*
G01X2190001Y3390002D03*
G01X2190001Y3590002D03*
G01X2390001Y3190002D03*
G01X2390001Y3390002D03*
G01X2390001Y3590002D03*
G01X2590001Y3190002D03*
G01X2590001Y3590002D03*
G01X2790002Y3590002D03*
G01X2990002Y3190002D03*
G01X2990002Y3390002D03*
G01X2990002Y3590002D03*
G01X3390002Y3190002D03*
G01X3390002Y3390002D03*
G01X3390002Y3590002D03*
G01X3590002Y3590002D03*
G01X3790002Y3590002D03*
G01X3990002Y3590002D03*
G01X4190002Y390000D03*
G01X4190002Y790000D03*
G01X4190002Y990001D03*
G01X4190002Y1590001D03*
G01X4190002Y1790001D03*
G01X4190002Y1990001D03*
G01X4190002Y2190001D03*
G01X4190002Y2390001D03*
G01X4190002Y3190002D03*
G01X4190002Y3390002D03*
G01X4190002Y3590002D03*
G01X4390002Y390000D03*
G01X4390002Y790000D03*
G01X4390002Y1990001D03*
G01X4590003Y390000D03*
G01X4590003Y790000D03*
G01X4590003Y1990001D03*
G01X4590003Y2190001D03*
G01X4590003Y3190002D03*
G01X4590003Y3390002D03*
G01X4590003Y3590002D03*
G01X4790003Y390000D03*
G01X4790003Y3590002D03*
G01X4990003Y390000D03*
G01X4990003Y3590002D03*
G01X5190003Y390000D03*
G01X5190003Y3590002D03*
G01X5390003Y390000D03*
G01X5390003Y3190002D03*
G01X5390003Y3390002D03*
G01X5390003Y3590002D03*
G01X5590003Y390000D03*
G01X5790003Y390000D03*
G01X6190002Y1990000D03*
G01X5790003Y3190002D03*
G01X5790003Y3390002D03*
G01X5790003Y3590002D03*
G01X5990003Y390000D03*
G01X5990003Y1990000D03*
G01X5990003Y3590002D03*
G01X6190003Y390000D03*
G01X6819986Y1590001D03*
G01X6190003Y3590002D03*
G01X6390003Y390000D03*
G01X6390003Y3590002D03*
G01X6590004Y190000D03*
G01X6589987Y1990000D03*
G01X6590004Y3190002D03*
G01X6590004Y3390002D03*
G01X6590004Y3590002D03*
G01X6990004Y3190002D03*
G01X6990004Y3390002D03*
G01X6990004Y3590002D03*
G01X7230000Y1590000D03*
G01X7190004Y3590002D03*
G01X7390004Y3590002D03*
G01X7590004Y2990002D03*
G01X7590004Y3190002D03*
G01X7590004Y3390002D03*
G01X7590004Y3590002D03*
G01X7790004Y2990002D03*
G01X7790004Y3190002D03*
G01X7790004Y3390002D03*
G01X7790004Y3590002D03*
G01X7990004Y1190001D03*
G01X7990004Y1390001D03*
G01X7990004Y1590001D03*
G01X7990004Y1790001D03*
G01X7990004Y1990001D03*
G01X7990004Y2190001D03*
G01X7990004Y2390001D03*
G01X7990004Y3190002D03*
G01X7990004Y3390002D03*
G01X7990004Y3590002D03*
G01X8190004Y1190001D03*
G01X8190004Y1390001D03*
G01X8190004Y1590001D03*
G01X8190004Y2390001D03*
G01X8190004Y2790002D03*
G01X8190004Y3190002D03*
G01X8190004Y3390002D03*
G01X8190004Y3590002D03*
G01X8390005Y1190001D03*
G01X8390005Y1390001D03*
G01X8390005Y1590001D03*
G01X8390005Y2390001D03*
G01X8390005Y2790002D03*
G01X8390005Y3190002D03*
G01X8390005Y3390002D03*
G01X8390005Y3590002D03*
G01X8590005Y1190001D03*
G01X8590005Y1390001D03*
G01X8590005Y1590001D03*
G01X8590005Y1790001D03*
G01X8590005Y1990001D03*
G01X8590005Y2190001D03*
G01X8590005Y2390001D03*
G01X8590005Y2790002D03*
G01X8590005Y3190002D03*
G01X8590005Y3390002D03*
G01X8590005Y3590002D03*
G01X8790005Y1190001D03*
G01X8790005Y1390001D03*
G01X8790005Y1590001D03*
G01X8790005Y1790001D03*
G01X8790005Y1990001D03*
G01X8790005Y2190001D03*
G01X8790005Y2390001D03*
G01X8790005Y2790002D03*
G01X8790005Y3190002D03*
G01X8790005Y3390002D03*
G01X8790005Y3590002D03*
G01X8990005Y1190001D03*
G01X8990005Y1390001D03*
G01X8990005Y1590001D03*
G01X8990005Y1790001D03*
G01X8990005Y1990001D03*
G01X8990005Y2190001D03*
G01X8990005Y2390001D03*
G01X8990005Y2790002D03*
G01X8990005Y3190002D03*
G01X8990005Y3390002D03*
G01X8990005Y3590002D03*
G01X9190005Y2790002D03*
G01X9190005Y3190002D03*
G01X9190005Y3390002D03*
G01X9190005Y3590002D03*
G01X9390005Y3190002D03*
G01X9390005Y3390002D03*
G01X9390005Y3590002D03*
G01X9590005Y2990002D03*
G01X9590005Y3190002D03*
G01X9790005Y3190002D03*
G54D42*
G01X5264989Y824998D03*
G01X5484989Y826708D03*
G01X5715592Y826708D03*
G54D40*
G01X6194988Y2180001D03*
G01X6594987Y2180000D03*
G01X6390002Y1990000D03*
G01X5990003Y1589997D03*
G01X6194988Y1589997D03*
G01X6819986Y1384997D03*
G01X6589987Y1589997D03*
G01X5990003Y1384997D03*
G01X6194988Y1384997D03*
G54D41*
G01X5264989Y2104996D03*
G54D40*
G01X5984996Y1794996D03*
G01X6184995Y1794996D03*
G01X6384995Y1794996D03*
G01X6584979Y1794996D03*
G01X6819993Y1994996D03*
G01X7034994Y1994996D03*
G01X7229978Y1994996D03*
G01X6817486Y1794996D03*
G01X7032486Y1794996D03*
G54D43*
G01X8295488Y2067088D03*
G01X8295488Y1927088D03*
G01X8225488Y2137087D03*
G01X8155488Y2067088D03*
G01X8155488Y1927088D03*
G01X8435487Y1927088D03*
G01X8435487Y2067088D03*
G01X8365487Y2137087D03*
G01X8365487Y1997088D03*
G01X8225488Y1997088D03*
G01X8225488Y1857088D03*
G01X8365487Y1857088D03*
G04 Via End*

G04 Track Start*
G54D42*
G01X8155488Y1857088D02*
G01X8155488Y1927088D01*
G01X6564987Y589999D02*
G01X6454987Y699999D01*
G01X4930327Y1314997D02*
G01X5284989Y1314997D01*
G01X5344986Y1374993D02*
G01X5344986Y1459996D01*
G01X5579652Y1724997D02*
G01X5349987Y1724997D01*
G01X5344986Y1729998D01*
G01X4774988Y1564994D02*
G01X4804990Y1564994D01*
G01X5214987Y1564994D01*
G01X5215344Y1565351D01*
G01X5249990Y1530706D01*
G01X5249990Y1459996D01*
G01X5154994Y1729998D02*
G01X5129995Y1704999D01*
G01X4804990Y1704999D01*
G01X5579652Y1514997D02*
G01X5579652Y1517874D01*
G01X5514329Y1583197D01*
G01X5311789Y1583197D01*
G01X5249990Y1644997D01*
G01X5249990Y1729998D01*
G01X5730325Y1514997D02*
G01X5599989Y1384661D01*
G01X5599989Y1319997D01*
G01X5284989Y1314997D02*
G01X5344986Y1374993D01*
G01X5599989Y1319997D02*
G01X5594989Y1314997D01*
G01X5284989Y1314997D01*
G01X5154994Y1459996D02*
G01X5134995Y1439997D01*
G01X5034990Y1439997D01*
G01X4669991Y1459997D02*
G01X4774988Y1564994D01*
G01X4259991Y1164996D02*
G01X4259991Y1344997D01*
G01X4469991Y954997D02*
G01X4259991Y1164996D01*
G01X4669991Y1263998D02*
G01X4669991Y1459997D01*
G01X4630992Y1224999D02*
G01X4669991Y1263998D01*
G01X4469991Y1224999D02*
G01X4630992Y1224999D01*
G01X4259991Y1344997D02*
G01X4449991Y1534997D01*
G01X4561046Y1534997D01*
G01X4659991Y1633941D01*
G01X7288012Y315000D02*
G01X7034012Y315000D01*
G01X7288012Y315000D02*
G01X7542012Y315000D01*
G01X7415012Y442000D02*
G01X7288012Y315000D01*
G01X7795987Y315000D02*
G01X7550312Y315000D01*
G54D44*
G01X8890000Y890016D02*
G01X8890000Y990105D01*
G01X8661400Y661416D02*
G01X8890000Y890016D01*
G01X7668987Y188000D02*
G01X7766987Y90000D01*
G01X8621400Y90000D01*
G01X8661400Y130000D01*
G01X8661400Y661416D01*
G01X7558012Y45000D02*
G01X7415012Y188000D01*
G01X8724900Y114917D02*
G01X8654983Y45000D01*
G01X7558012Y45000D01*
G01X9017000Y990105D02*
G01X9017000Y892016D01*
G01X8724900Y599916D01*
G01X8724900Y114917D01*
G54D42*
G01X6182799Y245000D02*
G01X6429987Y245000D01*
G01X6564987Y379999D01*
G01X6564987Y589999D01*
G01X7744985Y2344995D02*
G01X7747000Y2342980D01*
G01X7747000Y990105D01*
G54D45*
G01X9869980Y2739995D02*
G01X9739982Y2739995D01*
G01X9734982Y2734995D01*
G01X9939980Y2669995D02*
G01X9869980Y2739995D01*
G01X9939980Y1364997D02*
G01X9939980Y2669995D01*
G01X9320505Y1118095D02*
G01X9433079Y1118095D01*
G01X9566104Y1251121D01*
G01X9826104Y1251121D01*
G01X9939980Y1364997D01*
G54D42*
G01X7809984Y2514995D02*
G01X9320404Y2514995D01*
G54D45*
G01X9320505Y2388095D02*
G01X9453081Y2388095D01*
G01X9499981Y2434995D01*
G54D42*
G01X8225488Y1857088D02*
G01X8155488Y1857088D01*
G01X8435487Y2137087D02*
G01X8365487Y2137087D01*
G01X8435487Y2067088D02*
G01X8435487Y2137087D01*
G54D45*
G01X9320505Y2261095D02*
G01X9661082Y2261095D01*
G01X9734982Y2334995D01*
G01X7570495Y2515095D02*
G01X7700085Y2515095D01*
G01X8094984Y2909994D01*
G01X7570495Y2642095D02*
G01X7727085Y2642095D01*
G01X8074984Y2989994D01*
G01X9499981Y2434995D02*
G01X9814980Y2434995D01*
G01X9834980Y2414995D01*
G01X9834980Y2154996D01*
G01X9814980Y2134996D01*
G01X9734982Y2134996D01*
G01X9469981Y2574995D02*
G01X9509981Y2534995D01*
G01X8094984Y2909994D02*
G01X9404981Y2909994D01*
G01X9469981Y2844994D01*
G01X9469981Y2574995D01*
G01X9584981Y2634995D02*
G01X9804980Y2634995D01*
G01X9894980Y2544995D01*
G01X9894980Y1984996D01*
G01X9844980Y1934996D01*
G01X9734982Y1934996D01*
G01X9524981Y2694995D02*
G01X9584981Y2634995D01*
G01X8074984Y2989994D02*
G01X9419981Y2989994D01*
G01X9524981Y2884994D01*
G01X9524981Y2694995D01*
G54D42*
G01X7570495Y2642095D02*
G01X7477086Y2642095D01*
G01X7424985Y2589995D01*
G01X7424985Y2499995D01*
G01X7363123Y2438133D01*
G01X5155326Y1834996D02*
G01X5290326Y1969996D01*
G01X5469653Y1969996D01*
G01X5579652Y1724997D02*
G01X5579652Y1929323D01*
G01X5620325Y1969996D01*
G01X5929988Y969996D02*
G01X5924988Y969996D01*
G01X5914654Y959662D01*
G01X5694989Y959662D01*
G01X5489989Y959662D01*
G01X5484989Y964662D01*
G01X6780012Y569000D02*
G01X6554014Y794998D01*
G01X6104985Y794998D01*
G01X5929988Y969996D01*
G01X6454987Y699999D02*
G01X5044990Y699999D01*
G01X4765327Y979661D01*
G01X4771996Y1019998D02*
G01X4779654Y1027656D01*
G01X4779654Y1183767D02*
G01X5378758Y1183767D01*
G01X5379989Y1184998D01*
G01X5429989Y1184998D01*
G01X5484989Y1129998D01*
G01X5484989Y1115334D01*
G01X4779654Y1027656D02*
G01X4779654Y1183767D01*
G01X4779654Y1314997D01*
G54D46*
G01X6614498Y959662D02*
G01X6364987Y959662D01*
G54D42*
G01X4789988Y1949996D02*
G01X4737100Y2002884D01*
G01X4737100Y2298700D01*
G01X4659991Y1633941D02*
G01X4659991Y1779996D01*
G01X4779990Y1899996D01*
G01X4789988Y1909994D01*
G01X4789988Y1924994D02*
G01X4779990Y1899996D01*
G01X4789988Y1949996D02*
G01X4789988Y1969973D01*
G01X4779990Y1899996D02*
G01X4844990Y1834996D01*
G01X5155326Y1834996D01*
G01X8435487Y1857088D02*
G01X8365487Y1857088D01*
G01X8365487Y2137087D02*
G01X8295488Y2137087D01*
G01X8435487Y1927088D02*
G01X8435487Y1857088D01*
G01X7550313Y314999D02*
G01X7395412Y469900D01*
G54D44*
G01X6657145Y964998D02*
G01X6937144Y684999D01*
G01X7172013Y684999D01*
G01X7288012Y569000D01*
G54D42*
G01X4789988Y1909994D02*
G01X4789988Y1924994D01*
G01X4789988Y1949996D01*
G54D47*
G01X7569396Y2259995D02*
G01X7570495Y2261095D01*
G01X7533085Y2388095D02*
G01X7570495Y2388095D01*
G01X7494085Y2134095D02*
G01X7570495Y2134095D01*
G01X7563396Y1999996D02*
G01X7570495Y2007095D01*
G01X7474985Y1999996D02*
G01X7563396Y1999996D01*
G01X6364987Y1115336D02*
G01X6609164Y1115336D01*
G01X6614498Y1110002D01*
G01X8176987Y188000D02*
G01X8074984Y188000D01*
G54D48*
G01X8074984Y188000D02*
G01X8046984Y188000D01*
G01X7489985Y744999D01*
G54D42*
G01X8295488Y2137087D02*
G01X8295488Y2067088D01*
G01X8295483Y1857088D02*
G01X8275044Y1857088D01*
G01X8365487Y1857088D02*
G01X8295483Y1857088D01*
G01X8225488Y1857088D02*
G01X8275044Y1857088D01*
G01X8225488Y1997088D02*
G01X8295488Y1997088D01*
G01X8225488Y1997088D02*
G01X8155483Y1997088D01*
G01X8365487Y1997088D02*
G01X8435492Y1997088D01*
G01X8365487Y1997088D02*
G01X8295488Y1997088D01*
G01X8435492Y1927093D02*
G01X8435492Y1997088D01*
G01X8155488Y1927088D02*
G01X8155488Y1997083D01*
G01X8155488Y2067088D02*
G01X8155488Y2137087D01*
G01X8155488Y2067088D02*
G01X8155488Y1997093D01*
G01X8225483Y2137093D02*
G01X8155483Y2137093D01*
G01X8225488Y2137087D02*
G01X8295483Y2137087D01*
G01X8295488Y1927088D02*
G01X8295488Y1997088D01*
G01X8295488Y1877532D02*
G01X8275044Y1857088D01*
G01X8295488Y1927088D02*
G01X8295488Y1877532D01*
G01X8295488Y2067088D02*
G01X8295488Y1997088D01*
G54D47*
G01X6384987Y1260001D02*
G01X6384987Y1135336D01*
G01X6364987Y1115336D01*
G54D48*
G01X7489985Y744999D02*
G01X6979986Y744999D01*
G01X6684987Y1039998D01*
G01X6294987Y1039998D01*
G01X6264987Y1069998D01*
G01X6264987Y1309997D01*
G01X6309987Y1354997D01*
G01X6584987Y1354997D01*
G54D47*
G01X6614498Y1110002D02*
G01X6714982Y1110002D01*
G01X6860321Y964664D02*
G01X6954986Y964664D01*
G01X6714982Y1110002D02*
G01X6860321Y964664D01*
G01X6954986Y964664D02*
G01X7174652Y964664D01*
G01X7179986Y969998D01*
G01X6959986Y1260001D02*
G01X6959986Y1120336D01*
G01X6954986Y1115336D01*
G01X7159986Y1354997D02*
G01X7159986Y1130002D01*
G01X7179986Y1110002D01*
G01X7179986Y969998D02*
G01X7259986Y969998D01*
G01X7434985Y794998D01*
G01X7764984Y794998D01*
G01X7922987Y636996D01*
G01X7922987Y442000D01*
G01X8284983Y359999D02*
G01X8239984Y315000D01*
G01X8049987Y315000D01*
G01X7179986Y1110002D02*
G01X7219981Y1110002D01*
G01X7464985Y864998D01*
G01X7809984Y864998D01*
G01X7999984Y674999D01*
G01X8234984Y674999D01*
G01X8284983Y624999D01*
G01X8284983Y359999D01*
G54D45*
G01X9509981Y2534995D02*
G01X9729981Y2534995D01*
G54D42*
G01X5464989Y1974660D02*
G01X5469653Y1969996D01*
G01X5464989Y2204996D02*
G01X5464989Y1974660D01*
G01X7363123Y2438133D02*
G01X5698127Y2438133D01*
G01X5464989Y2204996D01*
G54D47*
G01X7570495Y2515095D02*
G01X7534574Y2515095D01*
G01X5804988Y2284995D02*
G01X5804988Y2129998D01*
G01X5734588Y2129998D01*
G01X5689591Y2174996D01*
G01X5625325Y2174996D01*
G01X7484985Y2339995D02*
G01X7533085Y2388095D01*
G01X6483478Y2235000D02*
G01X6588473Y2339995D01*
G01X7484985Y2339995D01*
G01X7534574Y2515095D02*
G01X7399474Y2379995D01*
G01X5899988Y2379995D01*
G01X5804988Y2284995D01*
G01X7198477Y2235000D02*
G01X7223472Y2259995D01*
G01X7569396Y2259995D01*
G01X7019986Y1659997D02*
G01X7494085Y2134095D01*
G01X6959986Y1449993D02*
G01X6959986Y1484997D01*
G01X7474985Y1999996D01*
G01X6384987Y1449993D02*
G01X6384987Y1584997D01*
G01X6459987Y1659997D01*
G01X7019986Y1659997D01*
G04 Track End*

M02*

