G04 Layer: DrillDrawingLayer*
G04 EasyEDA Pro v2.2.23.6, 2024-08-03 20:46:29*
G04 Gerber Generator version 0.3*
G04 Scale: 100 percent, Rotated: No, Reflected: No*
G04 Dimensions in millimeters*
G04 Leading zeros omitted, absolute positions, 3 integers and 5 decimals*
%FSLAX35Y35*%
%MOMM*%
%AMIconRect*4,1,4,0.2,-0.2,-0.2,-0.2,-0.2,0.2,0.2,0.2,0.2,-0.2,0*4,0,4,0.166667,-0.166667,0.166667,0.166667,-0.166667,0.166667,-0.166667,-0.166667,0.166667,-0.166667,0*%
%AMIconTriangle*4,1,3,-0.242567,0.171767,0.242567,0.171767,0,-0.2706,-0.242567,0.171767,0*4,0,3,-0.189767,0.1386,0,-0.1953,0.190167,0.1386,-0.189767,0.1386,0*%
%AMIconStar6*4,1,12,0.0862,0.1492,0.213233,0.123367,0.172367,0,0.213233,-0.1229,0.0862,-0.148733,0,-0.245767,-0.085767,-0.148733,-0.213267,-0.1229,-0.171933,0,-0.213267,0.1229,-0.085767,0.1492,0,0.245767,0.0862,0.1492,0*4,0,12,-0.000333,0.195333,-0.064333,0.122667,-0.169667,0.097667,-0.138333,-0.005333,-0.169667,-0.098,-0.064333,-0.122667,-0.000333,-0.195667,0.064333,-0.122667,0.169667,-0.098,0.138667,0.005,0.169667,0.098,0.064333,0.122333,-0.000333,0.195333,0*%
%AMIconStar4*4,1,8,-0.222667,0.222667,0,0.144667,0.222667,0.222667,0.144667,0,0.222667,-0.222667,0,-0.144667,-0.217433,-0.222667,-0.144667,0,-0.222667,0.222667,0*4,0,8,0.166667,-0.166667,0.108,0,0.166667,0.166667,0,0.108,-0.166667,0.166667,-0.108,0,-0.166667,-0.166667,0,-0.108,0.166667,-0.166667,0*%
%AMIconPlus*4,1,12,0.124,-0.2,-0.124,-0.2,-0.124,-0.124,-0.2,-0.124,-0.2,0.124,-0.124,0.124,-0.124,0.2,0.124,0.2,0.124,0.124,0.2,0.124,0.2,-0.124,0.124,-0.124,0.124,-0.2,0*4,0,12,0.090667,-0.166667,0.090667,-0.090667,0.166667,-0.090667,0.166667,0.090667,0.090667,0.090667,0.090667,0.166667,-0.090667,0.166667,-0.090667,0.090667,-0.166667,0.090667,-0.166667,-0.090667,-0.090667,-0.090667,-0.090667,-0.166667,0.090667,-0.166667,0*%
%AMIconX*4,1,16,0.2,-0.2,0.054533,-0.2,0,-0.145467,-0.054533,-0.2,-0.2,-0.2,-0.2,-0.054533,-0.145467,0,-0.2,0.054533,-0.2,0.2,-0.054533,0.2,0,0.145467,0.054533,0.2,0.2,0.2,0.2,0.054533,0.145467,0,0.2,-0.054533,0.2,-0.2,0*4,0,16,0.1668,-0.1664,0.1668,-0.068467,0.097933,0.000067,0.1668,0.068467,0.1668,0.1665,0.068467,0.1665,0,0.097933,-0.068467,0.1665,-0.1668,0.1665,-0.1668,0.068467,-0.097933,0.000067,-0.1668,-0.068467,-0.1668,-0.1664,-0.068467,-0.1664,0,-0.097933,0.068467,-0.1664,0.1668,-0.1664,0*%
%AMIconDiamond*4,1,4,0,-0.26,-0.26,0,0,0.26,0.26,0,0,-0.26,0*4,0,4,0,-0.203433,0.203433,0,0,0.2036,-0.203433,0,0,-0.203433,0*%
%AMIconRect2*4,1,6,0.2,-0.2,-0.2,-0.2,-0.2,0.2,-0.1668,0.1665,-0.166667,-0.166667,0.1668,-0.166667,0.2,-0.2,0*4,1,6,0.2,-0.2,0.1668,-0.166667,0.1668,0.1665,-0.1668,0.1665,-0.2,0.2,0.2,0.2,0.2,-0.2,0*4,1,6,0.133467,-0.133333,-0.133333,-0.133333,-0.133333,0.133467,-0.1,0.100133,-0.1,-0.1,0.100133,-0.1,0.133467,-0.133333,0*4,1,6,0.133467,-0.133333,0.100133,-0.1,0.100133,0.100133,-0.1,0.100133,-0.133333,0.133467,0.133467,0.133467,0.133467,-0.133333,0*%
%AMCharA*4,1,8,-0.122067,-0.1864,-0.1532,-0.174533,-0.015133,0.1864,0.016,0.1864,0.1532,-0.174533,0.122067,-0.1864,0.0764,-0.0662,-0.076133,-0.0662,-0.122067,-0.1864,0*4,0,3,-0.063333,-0.032867,0.063667,-0.032867,0.000333,0.1338,-0.063333,-0.032867,0*%
%AMCharB*4,1,17,-0.131133,-0.1894,-0.131133,0.1894,0.033533,0.1894,0.088067,0.172467,0.1114,0.151733,0.131133,0.114133,0.131,0.066467,0.114333,0.0338,0.094733,0.0128,0.086467,0.0084,0.094733,0.003867,0.114333,-0.017133,0.131,-0.0498,0.131133,-0.114133,0.1114,-0.151733,0.088067,-0.1726,0.033533,-0.1894,-0.131133,-0.1894,0*4,0,10,-0.0978,-0.156067,0.030867,-0.156067,0.073867,-0.142,0.085867,-0.130133,0.099533,-0.1028,0.099533,-0.0614,0.085867,-0.034533,0.073867,-0.0226,0.030867,-0.008667,-0.0978,-0.008667,-0.0978,-0.156067,0*4,0,10,-0.0978,0.024667,0.0308,0.024667,0.073867,0.039267,0.085867,0.051267,0.099533,0.078067,0.099533,0.102667,0.085867,0.130133,0.073867,0.142,0.030867,0.156067,-0.0978,0.156067,-0.0978,0.024667,0*%
%AMCharC*4,1,36,-0.027533,-0.1894,-0.071933,-0.1684,-0.1084,-0.130667,-0.125333,-0.096,-0.1428,-0.041333,-0.1428,0.041333,-0.1244,0.098,-0.105267,0.135067,-0.067533,0.171667,-0.027533,0.1894,0.038533,0.1894,0.083067,0.1684,0.119467,0.130667,0.1428,0.083,0.112867,0.0684,0.090867,0.113467,0.0614,0.142933,0.034733,0.156067,-0.0236,0.156067,-0.050333,0.142933,-0.079733,0.113467,-0.094067,0.084333,-0.109467,0.0386,-0.109467,-0.0386,-0.094067,-0.084333,-0.079733,-0.113467,-0.050333,-0.142867,-0.0236,-0.156067,0.034733,-0.156067,0.0614,-0.142867,0.090867,-0.113467,0.112867,-0.0684,0.1428,-0.083,0.119467,-0.130667,0.083067,-0.1684,0.038533,-0.1894,-0.027533,-0.1894,0*%
%AMCharD*4,1,12,-0.132,-0.1894,-0.132,0.1894,-0.000067,0.1894,0.054533,0.172467,0.0968,0.130933,0.1144,0.096067,0.132,0.041333,0.132,-0.041333,0.113467,-0.098267,0.093933,-0.134933,0.054533,-0.1726,-0.000067,-0.1894,-0.132,-0.1894,0*4,0,12,-0.098667,-0.156067,-0.002667,-0.156067,0.040333,-0.142133,0.068333,-0.113467,0.083267,-0.0842,0.098667,-0.0386,0.098667,0.0386,0.083267,0.0842,0.068333,0.113467,0.040333,0.142133,-0.002667,0.156067,-0.098667,0.156067,-0.098667,-0.156067,0*%
%ADD10IconRect*%
%ADD11C,0.44X0.373333*%
%ADD12IconTriangle*%
%ADD13IconStar6*%
%ADD14IconStar4*%
%ADD15IconPlus*%
%ADD16IconX*%
%ADD17IconDiamond*%
%ADD18IconRect2*%
%ADD19CharA*%
%ADD20CharB*%
%ADD21CharC*%
%ADD22CharD*%
G75*


G04 Drill Drawing Start*
G54D10*
G01X7744985Y2344995D03*
G01X7809984Y2514995D03*
G54D11*
G01X4934990Y2104996D03*
G01X5034990Y1439997D03*
G01X5264989Y2104996D03*
G54D12*
G01X300000Y300000D03*
G01X300000Y3450000D03*
G01X9700000Y300000D03*
G01X9700000Y3450000D03*
G54D13*
G01X3200000Y3292491D03*
G01X4400000Y3292491D03*
G01X5600000Y3292491D03*
G01X6800000Y3292491D03*
G54D14*
G01X4483100Y2298700D03*
G01X4737100Y2298700D03*
G01X4991100Y2298700D03*
G01X5245100Y2298700D03*
G54D15*
G01X3200000Y2667489D03*
G01X4400000Y2667489D03*
G01X5600000Y2667489D03*
G01X6800000Y2667489D03*
G54D16*
G01X1115001Y1275000D03*
G01X1115001Y2235000D03*
G01X1115001Y3195000D03*
G01X1834999Y1275000D03*
G01X1834999Y2235000D03*
G01X1834999Y3195000D03*
G54D17*
G01X9734982Y1934994D03*
G01X9734982Y2134993D03*
G01X9734982Y2334995D03*
G01X9734982Y2534995D03*
G01X9734982Y2734995D03*
G01X9734982Y2934994D03*
G54D18*
G01X5264989Y824998D03*
G01X5484989Y826708D03*
G01X5715592Y826708D03*
G01X8155488Y1927088D03*
G01X8155488Y2067088D03*
G01X8225488Y1857088D03*
G01X8225488Y1997088D03*
G01X8225488Y2137087D03*
G01X8295488Y1927088D03*
G01X8295488Y2067088D03*
G01X8365487Y1857088D03*
G01X8365487Y1997088D03*
G01X8365487Y2137087D03*
G01X8435487Y1927088D03*
G01X8435487Y2067088D03*
G54D19*
G01X2727499Y3332495D03*
G01X2727502Y2872500D03*
G01X3672498Y2872497D03*
G01X3672501Y3332500D03*
G01X3927499Y3332495D03*
G01X3927502Y2872500D03*
G01X4872499Y2872497D03*
G01X4872501Y3332500D03*
G01X5127499Y3332495D03*
G01X5127502Y2872500D03*
G01X6072498Y2872497D03*
G01X6072501Y3332500D03*
G01X6327499Y3332495D03*
G01X6327502Y2872500D03*
G01X7272499Y2872497D03*
G01X7272501Y3332500D03*
G54D20*
G01X6780025Y315000D03*
G01X6780025Y569000D03*
G01X6907025Y188000D03*
G01X6907025Y442000D03*
G01X7034025Y315000D03*
G01X7034025Y569000D03*
G01X7161025Y188000D03*
G01X7161025Y442000D03*
G01X7288025Y315000D03*
G01X7288025Y569000D03*
G01X7415025Y188000D03*
G01X7415025Y442000D03*
G01X7542025Y315000D03*
G01X7542025Y569000D03*
G01X7668974Y188000D03*
G01X7668974Y442000D03*
G01X7795974Y315000D03*
G01X7795974Y569000D03*
G01X7922974Y188000D03*
G01X7922974Y442000D03*
G01X8049974Y569000D03*
G01X8049992Y315000D03*
G01X8176974Y188000D03*
G01X8176974Y442000D03*
G54D21*
G01X2112000Y243499D03*
G01X2112000Y513501D03*
G01X2366000Y243499D03*
G01X2366000Y513501D03*
G01X2620000Y243499D03*
G01X2620000Y513501D03*
G01X2874000Y243499D03*
G01X2874000Y513501D03*
G01X3128000Y243499D03*
G01X3128000Y513501D03*
G01X3382000Y243499D03*
G01X3382000Y513501D03*
G01X3636000Y243499D03*
G01X3636000Y513501D03*
G01X3890000Y243499D03*
G01X3890000Y513501D03*
G01X4144000Y243499D03*
G01X4144000Y513501D03*
G01X4398000Y243499D03*
G01X4398000Y513501D03*
G01X4652000Y243499D03*
G01X4652000Y513501D03*
G01X4906000Y243499D03*
G01X4906000Y513501D03*
G01X5160000Y243499D03*
G01X5160000Y513501D03*
G01X5414000Y243499D03*
G01X5414000Y513501D03*
G01X5668000Y243499D03*
G01X5668000Y513501D03*
G01X5922000Y243499D03*
G01X5922000Y513501D03*
G01X6176000Y243499D03*
G01X6176000Y513501D03*
G01X6430000Y243499D03*
G01X6430000Y513501D03*
G54D22*
G01X191000Y589932D03*
G01X191000Y789932D03*
G01X191000Y989932D03*
G01X191000Y1189932D03*
G01X191000Y1389932D03*
G01X191000Y1589933D03*
G01X191000Y1789933D03*
G01X191000Y1989933D03*
G01X191000Y2189933D03*
G01X191000Y2389933D03*
G01X191000Y2589933D03*
G01X191000Y2789933D03*
G01X191000Y2989933D03*
G01X191000Y3189933D03*
G01X391000Y589932D03*
G01X391000Y789932D03*
G01X391000Y989932D03*
G01X391000Y1189932D03*
G01X391000Y1389932D03*
G01X391000Y1589933D03*
G01X391000Y1789933D03*
G01X391000Y1989933D03*
G01X391000Y2189933D03*
G01X391000Y2389933D03*
G01X391000Y2589933D03*
G01X391000Y2789933D03*
G01X391000Y2989933D03*
G01X391000Y3189933D03*
G01X591000Y189932D03*
G01X591000Y389932D03*
G01X591000Y589932D03*
G01X591000Y789932D03*
G01X591000Y989932D03*
G01X591000Y1189932D03*
G01X591000Y1389932D03*
G01X591000Y1589933D03*
G01X591000Y1789933D03*
G01X591000Y1989933D03*
G01X591000Y2189933D03*
G01X591000Y2389933D03*
G01X591000Y2589933D03*
G01X591000Y2789933D03*
G01X591000Y2989933D03*
G01X591000Y3189933D03*
G01X591000Y3389934D03*
G01X591000Y3589934D03*
G01X791000Y189932D03*
G01X791000Y389932D03*
G01X791000Y589932D03*
G01X791000Y789932D03*
G01X791000Y989932D03*
G01X791000Y1189932D03*
G01X791000Y1389932D03*
G01X791000Y1589933D03*
G01X791000Y1789933D03*
G01X791000Y1989933D03*
G01X791000Y2189933D03*
G01X791000Y2389933D03*
G01X791000Y2589933D03*
G01X791000Y2789933D03*
G01X791000Y2989933D03*
G01X791000Y3189933D03*
G01X791000Y3389934D03*
G01X791000Y3589934D03*
G01X991001Y189932D03*
G01X991001Y389932D03*
G01X991001Y589932D03*
G01X991001Y789932D03*
G01X991001Y1589933D03*
G01X991001Y1789933D03*
G01X991001Y2589933D03*
G01X991001Y2789933D03*
G01X991001Y3589934D03*
G01X1191001Y189932D03*
G01X1191001Y389932D03*
G01X1191001Y589932D03*
G01X1191001Y789932D03*
G01X1191001Y1589933D03*
G01X1191001Y1789933D03*
G01X1191001Y2589933D03*
G01X1191001Y2789933D03*
G01X1191001Y3589934D03*
G01X1391001Y189932D03*
G01X1391001Y389932D03*
G01X1391001Y589932D03*
G01X1391001Y789932D03*
G01X1391001Y989932D03*
G01X1391001Y1589933D03*
G01X1391001Y1789933D03*
G01X1391001Y1989933D03*
G01X1391001Y2589933D03*
G01X1391001Y2789933D03*
G01X1391001Y2989933D03*
G01X1391001Y3389934D03*
G01X1391001Y3589934D03*
G01X1590001Y990001D03*
G01X1590001Y1590001D03*
G01X1590001Y1790001D03*
G01X1590001Y1990001D03*
G01X1590001Y2590001D03*
G01X1590001Y2790002D03*
G01X1590001Y3590002D03*
G01X1591001Y189932D03*
G01X1591001Y389932D03*
G01X1591001Y589932D03*
G01X1790001Y1790001D03*
G01X1790001Y2590001D03*
G01X1790001Y2790002D03*
G01X1790001Y3590002D03*
G01X1791001Y189932D03*
G01X1791001Y589932D03*
G01X1990001Y990001D03*
G01X1990001Y1590001D03*
G01X1990001Y1790001D03*
G01X1990001Y2590001D03*
G01X1990001Y2790002D03*
G01X1990001Y3590002D03*
G01X1991001Y189932D03*
G01X1991001Y589932D03*
G01X2190001Y990001D03*
G01X2190001Y1190001D03*
G01X2190001Y1390001D03*
G01X2190001Y1590001D03*
G01X2190001Y1790001D03*
G01X2190001Y1990001D03*
G01X2190001Y2190001D03*
G01X2190001Y2390001D03*
G01X2190001Y2590001D03*
G01X2190001Y2790002D03*
G01X2190001Y2990002D03*
G01X2190001Y3190002D03*
G01X2190001Y3390002D03*
G01X2190001Y3590002D03*
G01X2191001Y389932D03*
G01X2390001Y3190002D03*
G01X2390001Y3390002D03*
G01X2390001Y3590002D03*
G01X2391001Y389932D03*
G01X2391001Y789932D03*
G01X2391001Y989932D03*
G01X2391001Y1189932D03*
G01X2391001Y1389932D03*
G01X2391001Y1589933D03*
G01X2391001Y1789933D03*
G01X2391001Y1989933D03*
G01X2391001Y2189933D03*
G01X2391001Y2389933D03*
G01X2391001Y2589933D03*
G01X2391001Y2789933D03*
G01X2391001Y2989933D03*
G01X2590001Y3190002D03*
G01X2590001Y3590002D03*
G01X2591001Y389932D03*
G01X2591001Y789932D03*
G01X2591001Y989932D03*
G01X2591001Y1189932D03*
G01X2591001Y1389932D03*
G01X2591001Y1589933D03*
G01X2591001Y1789933D03*
G01X2591001Y1989933D03*
G01X2591001Y2189933D03*
G01X2591001Y2389933D03*
G01X2591001Y2589933D03*
G01X2790002Y3590002D03*
G01X2791002Y389932D03*
G01X2791002Y789932D03*
G01X2791002Y989932D03*
G01X2791002Y1189932D03*
G01X2791002Y1389932D03*
G01X2791002Y1589933D03*
G01X2791002Y1789933D03*
G01X2791002Y1989933D03*
G01X2791002Y2189933D03*
G01X2791002Y2389933D03*
G01X2791002Y2589933D03*
G01X2990002Y3190002D03*
G01X2990002Y3390002D03*
G01X2990002Y3590002D03*
G01X2991002Y189932D03*
G01X2991002Y389932D03*
G01X2991002Y589932D03*
G01X2991002Y789932D03*
G01X2991002Y989932D03*
G01X2991002Y1189932D03*
G01X2991002Y1389932D03*
G01X2991002Y1589933D03*
G01X2991002Y1789933D03*
G01X2991002Y1989933D03*
G01X2991002Y2189933D03*
G01X2991002Y2389933D03*
G01X2991002Y2589933D03*
G01X2991002Y2789933D03*
G01X2991002Y2989933D03*
G01X3191002Y389932D03*
G01X3191002Y789932D03*
G01X3191002Y989932D03*
G01X3191002Y1189932D03*
G01X3191002Y1389932D03*
G01X3191002Y1589933D03*
G01X3191002Y1789933D03*
G01X3191002Y1989933D03*
G01X3191002Y2189933D03*
G01X3191002Y2389933D03*
G01X3191002Y2989933D03*
G01X3390002Y3190002D03*
G01X3390002Y3390002D03*
G01X3390002Y3590002D03*
G01X3391002Y389932D03*
G01X3391002Y789932D03*
G01X3391002Y989932D03*
G01X3391002Y1189932D03*
G01X3391002Y1389932D03*
G01X3391002Y1589933D03*
G01X3391002Y1789933D03*
G01X3391002Y1989933D03*
G01X3391002Y2189933D03*
G01X3391002Y2389933D03*
G01X3391002Y2589933D03*
G01X3391002Y2789933D03*
G01X3391002Y2989933D03*
G01X3590002Y3590002D03*
G01X3591002Y389932D03*
G01X3591002Y789932D03*
G01X3591002Y989932D03*
G01X3591002Y1189932D03*
G01X3591002Y1389932D03*
G01X3591002Y1589933D03*
G01X3591002Y1789933D03*
G01X3591002Y1989933D03*
G01X3591002Y2189933D03*
G01X3591002Y2389933D03*
G01X3591002Y2589933D03*
G01X3790002Y3590002D03*
G01X3791002Y389932D03*
G01X3791002Y789932D03*
G01X3791002Y989932D03*
G01X3791002Y1189932D03*
G01X3791002Y1389932D03*
G01X3791002Y1589933D03*
G01X3791002Y1789933D03*
G01X3791002Y1989933D03*
G01X3791002Y2189933D03*
G01X3791002Y2389933D03*
G01X3791002Y2589933D03*
G01X3990002Y3590002D03*
G01X3991002Y2389933D03*
G01X3991002Y2589933D03*
G01X4190002Y390000D03*
G01X4190002Y790000D03*
G01X4190002Y990001D03*
G01X4190002Y1590001D03*
G01X4190002Y1790001D03*
G01X4190002Y1990001D03*
G01X4190002Y2190001D03*
G01X4190002Y2390001D03*
G01X4190002Y3190002D03*
G01X4190002Y3390002D03*
G01X4190002Y3590002D03*
G01X4191002Y2589933D03*
G01X4191002Y2789933D03*
G01X4191002Y2989933D03*
G01X4390002Y390000D03*
G01X4390002Y790000D03*
G01X4390002Y1990001D03*
G01X4391002Y2989933D03*
G01X4590003Y390000D03*
G01X4590003Y790000D03*
G01X4590003Y1990001D03*
G01X4590003Y2190001D03*
G01X4590003Y3190002D03*
G01X4590003Y3390002D03*
G01X4590003Y3590002D03*
G01X4591003Y2589933D03*
G01X4591003Y2789933D03*
G01X4591003Y2989933D03*
G01X4790003Y390000D03*
G01X4790003Y3590002D03*
G01X4791003Y2589933D03*
G01X4990003Y390000D03*
G01X4990003Y3590002D03*
G01X4991003Y2589933D03*
G01X5190003Y390000D03*
G01X5190003Y3590002D03*
G01X5191003Y2589933D03*
G01X5390003Y390000D03*
G01X5390003Y3190002D03*
G01X5390003Y3390002D03*
G01X5390003Y3590002D03*
G01X5391003Y2589933D03*
G01X5391003Y2789933D03*
G01X5391003Y2989933D03*
G01X5590003Y390000D03*
G01X5591003Y2989933D03*
G01X5790003Y390000D03*
G01X5790003Y3190002D03*
G01X5790003Y3390002D03*
G01X5790003Y3590002D03*
G01X5791003Y2589933D03*
G01X5791003Y2789933D03*
G01X5791003Y2989933D03*
G01X5984996Y1794996D03*
G01X5990003Y390000D03*
G01X5990003Y1384997D03*
G01X5990003Y1589997D03*
G01X5990003Y1990000D03*
G01X5990003Y3590002D03*
G01X5991003Y2589933D03*
G01X6184995Y1794996D03*
G01X6190002Y1990000D03*
G01X6190003Y390000D03*
G01X6190003Y3590002D03*
G01X6191003Y2589933D03*
G01X6194988Y1384997D03*
G01X6194988Y1589997D03*
G01X6194988Y2180001D03*
G01X6384995Y1794996D03*
G01X6390002Y1990000D03*
G01X6390003Y390000D03*
G01X6390003Y3590002D03*
G01X6391003Y2589933D03*
G01X6584979Y1794996D03*
G01X6589987Y1589997D03*
G01X6589987Y1990000D03*
G01X6590004Y190000D03*
G01X6590004Y3190002D03*
G01X6590004Y3390002D03*
G01X6590004Y3590002D03*
G01X6591004Y2589933D03*
G01X6591004Y2789933D03*
G01X6591004Y2989933D03*
G01X6594987Y2180000D03*
G01X6791004Y2989933D03*
G01X6817486Y1794996D03*
G01X6819986Y1384997D03*
G01X6819986Y1590001D03*
G01X6819993Y1994996D03*
G01X6990004Y3190002D03*
G01X6990004Y3390002D03*
G01X6990004Y3590002D03*
G01X6991004Y2589933D03*
G01X6991004Y2789933D03*
G01X6991004Y2989933D03*
G01X7032486Y1794996D03*
G01X7034994Y1994996D03*
G01X7190004Y3590002D03*
G01X7191004Y2589933D03*
G01X7229978Y1994996D03*
G01X7230000Y1590000D03*
G01X7390004Y3590002D03*
G01X7590004Y2990002D03*
G01X7590004Y3190002D03*
G01X7590004Y3390002D03*
G01X7590004Y3590002D03*
G01X7790004Y2990002D03*
G01X7790004Y3190002D03*
G01X7790004Y3390002D03*
G01X7790004Y3590002D03*
G01X7990004Y1190001D03*
G01X7990004Y1390001D03*
G01X7990004Y1590001D03*
G01X7990004Y1790001D03*
G01X7990004Y1990001D03*
G01X7990004Y2190001D03*
G01X7990004Y2390001D03*
G01X7990004Y3190002D03*
G01X7990004Y3390002D03*
G01X7990004Y3590002D03*
G01X8190004Y1190001D03*
G01X8190004Y1390001D03*
G01X8190004Y1590001D03*
G01X8190004Y2390001D03*
G01X8190004Y2790002D03*
G01X8190004Y3190002D03*
G01X8190004Y3390002D03*
G01X8190004Y3590002D03*
G01X8390005Y1190001D03*
G01X8390005Y1390001D03*
G01X8390005Y1590001D03*
G01X8390005Y2390001D03*
G01X8390005Y2790002D03*
G01X8390005Y3190002D03*
G01X8390005Y3390002D03*
G01X8390005Y3590002D03*
G01X8590005Y1190001D03*
G01X8590005Y1390001D03*
G01X8590005Y1590001D03*
G01X8590005Y1790001D03*
G01X8590005Y1990001D03*
G01X8590005Y2190001D03*
G01X8590005Y2390001D03*
G01X8590005Y2790002D03*
G01X8590005Y3190002D03*
G01X8590005Y3390002D03*
G01X8590005Y3590002D03*
G01X8790005Y1190001D03*
G01X8790005Y1390001D03*
G01X8790005Y1590001D03*
G01X8790005Y1790001D03*
G01X8790005Y1990001D03*
G01X8790005Y2190001D03*
G01X8790005Y2390001D03*
G01X8790005Y2790002D03*
G01X8790005Y3190002D03*
G01X8790005Y3390002D03*
G01X8790005Y3590002D03*
G01X8990005Y1190001D03*
G01X8990005Y1390001D03*
G01X8990005Y1590001D03*
G01X8990005Y1790001D03*
G01X8990005Y1990001D03*
G01X8990005Y2190001D03*
G01X8990005Y2390001D03*
G01X8990005Y2790002D03*
G01X8990005Y3190002D03*
G01X8990005Y3390002D03*
G01X8990005Y3590002D03*
G01X9190005Y2790002D03*
G01X9190005Y3190002D03*
G01X9190005Y3390002D03*
G01X9190005Y3590002D03*
G01X9390005Y3190002D03*
G01X9390005Y3390002D03*
G01X9390005Y3590002D03*
G01X9590005Y2990002D03*
G01X9590005Y3190002D03*
G01X9790005Y3190002D03*
G04 Drill Drawing End*

M02*

