G04 Layer: TopSolderMaskLayer*
G04 EasyEDA Pro v2.2.23.6, 2024-08-03 20:46:29*
G04 Gerber Generator version 0.3*
G04 Scale: 100 percent, Rotated: No, Reflected: No*
G04 Dimensions in millimeters*
G04 Leading zeros omitted, absolute positions, 3 integers and 5 decimals*
%FSLAX35Y35*%
%MOMM*%
%AMRoundRect*1,1,$1,$2,$3*1,1,$1,$4,$5*1,1,$1,0-$2,0-$3*1,1,$1,0-$4,0-$5*20,1,$1,$2,$3,$4,$5,0*20,1,$1,$4,$5,0-$2,0-$3,0*20,1,$1,0-$2,0-$3,0-$4,0-$5,0*20,1,$1,0-$4,0-$5,$2,$3,0*4,1,4,$2,$3,$4,$5,0-$2,0-$3,0-$4,0-$5,$2,$3,0*%
%ADD10O,1.70002X3.30002*%
%ADD11O,3.10002X1.70002*%
%ADD12C,2.60002*%
%ADD13RoundRect,0.09138X-0.43712X-0.40835X-0.43712X0.40835*%
%ADD14RoundRect,0.09049X0.63076X-0.35575X-0.63076X-0.35575*%
%ADD15RoundRect,0.08906X0.30647X0.55647X0.30647X-0.55647*%
%ADD16RoundRect,0.09495X-0.70833X0.67833X0.70833X0.67833*%
%ADD17RoundRect,0.09138X0.40835X-0.43712X-0.40835X-0.43712*%
%ADD18RoundRect,0.09138X-0.40835X0.43712X0.40835X0.43712*%
%ADD19RoundRect,0.09164X0.40518X-0.45518X-0.40518X-0.45518*%
%ADD20RoundRect,0.09508X-1.36346X-0.65346X-1.36346X0.65346*%
%ADD21RoundRect,0.09164X0.45518X0.40518X0.45518X-0.40518*%
%ADD22RoundRect,0.09093X-0.75455X0.45455X0.75455X0.45455*%
%ADD23RoundRect,0.09093X-0.45455X-0.75455X-0.45455X0.75455*%
%ADD24RoundRect,0.09093X0.75455X-0.45455X-0.75455X-0.45455*%
%ADD25RoundRect,0.09258X-0.45471X-0.45471X-0.45471X0.45471*%
%ADD26RoundRect,0.09164X-0.45518X-0.40518X-0.45518X0.40518*%
%ADD27RoundRect,0.09138X0.43712X0.40835X0.43712X-0.40835*%
%ADD28C,3.4036*%
%ADD29C,1.4732*%
%ADD30C,1.7272*%
%ADD31C,5.89999*%
%ADD32RoundRect,0.09654X-0.85273X0.85273X0.85273X0.85273*%
%ADD33C,1.802*%
%ADD34RoundRect,0.09495X-0.67833X-0.70833X-0.67833X0.70833*%
%ADD35C,1.502*%
%ADD36RoundRect,0.09551X0.70324X0.76524X0.70324X-0.76524*%
%ADD37RoundRect,0.09475X-0.61863X0.68362X0.61863X0.68362*%
%ADD38RoundRect,0.09681X1.00259X-0.90259X-1.00259X-0.90259*%
G75*


G04 Pad Start*
G54D10*
G01X6327509Y2872495D03*
G01X6327509Y3332514D03*
G01X7272491Y2872495D03*
G01X7272491Y3332514D03*
G54D11*
G01X6800000Y3292484D03*
G54D12*
G01X6800000Y2667491D03*
G54D10*
G01X5127509Y2872495D03*
G01X5127509Y3332514D03*
G01X6072491Y2872495D03*
G01X6072491Y3332514D03*
G54D11*
G01X5600000Y3292484D03*
G54D12*
G01X5600000Y2667491D03*
G54D10*
G01X3927509Y2872495D03*
G01X3927509Y3332514D03*
G01X4872491Y2872495D03*
G01X4872491Y3332514D03*
G54D11*
G01X4400000Y3292484D03*
G54D12*
G01X4400000Y2667491D03*
G54D13*
G01X6364987Y1115336D03*
G01X6364987Y964664D03*
G54D14*
G01X6384987Y1449993D03*
G01X6384987Y1260001D03*
G01X6584987Y1354997D03*
G54D15*
G01X5344986Y1459996D03*
G01X5249990Y1459996D03*
G01X5154994Y1459996D03*
G01X5154994Y1729998D03*
G01X5249990Y1729998D03*
G01X5344986Y1729998D03*
G54D16*
G01X5799988Y1319997D03*
G01X5599989Y1319997D03*
G54D17*
G01X4779654Y1314997D03*
G01X4930327Y1314997D03*
G54D18*
G01X5730325Y1514997D03*
G01X5579652Y1514997D03*
G54D17*
G01X5469653Y1969996D03*
G01X5620325Y1969996D03*
G01X5579652Y1724997D03*
G01X5730325Y1724997D03*
G54D19*
G01X4789988Y1969973D03*
G01X4929993Y1969973D03*
G54D20*
G01X4469991Y1224999D03*
G01X4469991Y954997D03*
G54D21*
G01X4804990Y1564994D03*
G01X4804990Y1704999D03*
G54D22*
G01X7570495Y2769095D03*
G01X7570495Y2642095D03*
G01X7570495Y2515095D03*
G01X7570495Y2388095D03*
G01X7570495Y2261095D03*
G01X7570495Y2134095D03*
G01X7570495Y2007095D03*
G01X7570495Y1880095D03*
G01X7570495Y1753095D03*
G01X7570495Y1626095D03*
G01X7570495Y1499095D03*
G01X7570495Y1372095D03*
G01X7570495Y1245095D03*
G01X7570495Y1118095D03*
G54D23*
G01X7747000Y990105D03*
G01X7874000Y990105D03*
G01X8001000Y990105D03*
G01X8128000Y990105D03*
G01X8255000Y990105D03*
G01X8382000Y990105D03*
G01X8509000Y990105D03*
G01X8636000Y990105D03*
G01X8763000Y990105D03*
G01X8890000Y990105D03*
G01X9017000Y990105D03*
G01X9144000Y993102D03*
G54D24*
G01X9320505Y1118095D03*
G01X9320505Y1245095D03*
G01X9320505Y1372095D03*
G01X9320505Y1499095D03*
G01X9320505Y1626095D03*
G01X9320505Y1753095D03*
G01X9320505Y1880095D03*
G01X9320505Y2007095D03*
G01X9320505Y2134095D03*
G01X9320505Y2261095D03*
G01X9320505Y2388095D03*
G01X9320505Y2515095D03*
G01X9320505Y2642095D03*
G01X9320505Y2769095D03*
G54D25*
G01X8435492Y1857083D03*
G01X8295488Y1857083D03*
G01X8155483Y1857083D03*
G01X8155483Y2137093D03*
G01X8295488Y2137093D03*
G01X8435492Y2137093D03*
G01X8435492Y1997088D03*
G01X8155483Y1997088D03*
G01X8295488Y1997088D03*
G54D26*
G01X5924988Y1110000D03*
G01X5924988Y969996D03*
G54D27*
G01X5694989Y959662D03*
G01X5694989Y1110334D03*
G54D13*
G01X5484989Y1115334D03*
G01X5484989Y964662D03*
G54D28*
G01X300000Y3450000D03*
G01X9700000Y3450000D03*
G01X300000Y300000D03*
G01X9700000Y300000D03*
G54D29*
G01X8176987Y188000D03*
G01X8176987Y442000D03*
G01X8049987Y315000D03*
G01X8049987Y569000D03*
G01X7922987Y188000D03*
G01X7922987Y442000D03*
G01X7795987Y315000D03*
G01X7795987Y569000D03*
G01X7668987Y188000D03*
G01X7668987Y442000D03*
G01X7542012Y315000D03*
G01X7542012Y569000D03*
G01X7415012Y188000D03*
G01X7415012Y442000D03*
G01X7288012Y315000D03*
G01X7288012Y569000D03*
G01X7161012Y188000D03*
G01X7161012Y442000D03*
G01X7034012Y315000D03*
G01X7034012Y569000D03*
G01X6907012Y188000D03*
G01X6907012Y442000D03*
G01X6780012Y315000D03*
G01X6780012Y569000D03*
G54D30*
G01X6430000Y243499D03*
G01X6430000Y513501D03*
G01X6176000Y243499D03*
G01X6176000Y513501D03*
G01X5922000Y243499D03*
G01X5922000Y513501D03*
G01X5414000Y243499D03*
G01X5414000Y513501D03*
G01X5668000Y513501D03*
G01X5668000Y243499D03*
G01X5160000Y243499D03*
G01X5160000Y513501D03*
G01X4398000Y243499D03*
G01X4398000Y513501D03*
G01X4652000Y513501D03*
G01X4652000Y243499D03*
G01X4906000Y243499D03*
G01X4906000Y513501D03*
G01X3636000Y243499D03*
G01X3636000Y513501D03*
G01X3890000Y513501D03*
G01X3890000Y243499D03*
G01X4144000Y243499D03*
G01X4144000Y513501D03*
G01X2874000Y243499D03*
G01X2874000Y513501D03*
G01X3128000Y513501D03*
G01X3128000Y243499D03*
G01X3382000Y243499D03*
G01X3382000Y513501D03*
G01X2112000Y243499D03*
G01X2112000Y513501D03*
G01X2366000Y513501D03*
G01X2366000Y243499D03*
G01X2620000Y243499D03*
G01X2620000Y513501D03*
G54D31*
G01X1834994Y3195000D03*
G01X1115006Y3195000D03*
G01X1834994Y2235000D03*
G01X1115006Y2235000D03*
G01X1834994Y1275000D03*
G01X1115006Y1275000D03*
G54D32*
G01X4483100Y2298700D03*
G54D33*
G01X4737100Y2298700D03*
G01X4991100Y2298700D03*
G01X5245100Y2298700D03*
G54D26*
G01X7179986Y1110002D03*
G01X7179986Y969998D03*
G54D13*
G01X6954986Y1115336D03*
G01X6954986Y964664D03*
G54D34*
G01X4474991Y1734997D03*
G01X4474991Y1534997D03*
G54D35*
G01X9734982Y1934996D03*
G01X9734982Y2134996D03*
G01X9734982Y2334995D03*
G01X9734982Y2534995D03*
G01X9734982Y2734995D03*
G54D36*
G01X9734982Y2934994D03*
G54D10*
G01X2727509Y2872495D03*
G01X2727509Y3332514D03*
G01X3672491Y2872495D03*
G01X3672491Y3332514D03*
G54D11*
G01X3200000Y3292484D03*
G54D12*
G01X3200000Y2667491D03*
G54D37*
G01X6046497Y2235000D03*
G01X6483478Y2235000D03*
G01X6761495Y2235000D03*
G01X7198477Y2235000D03*
G54D18*
G01X5280326Y1969996D03*
G01X5129653Y1969996D03*
G54D21*
G01X6614498Y969998D03*
G01X6614498Y1110002D03*
G54D38*
G01X5204990Y1019998D03*
G01X4804990Y1019998D03*
G54D26*
G01X5804988Y2129998D03*
G01X5804988Y1989993D03*
G54D14*
G01X6959986Y1449993D03*
G01X6959986Y1260001D03*
G01X7159986Y1354997D03*
G54D17*
G01X5474653Y2174996D03*
G01X5625325Y2174996D03*
G04 Pad End*

M02*

