G04 Layer: InnerLayer2*
G04 EasyEDA Pro v2.2.23.6, 2024-08-03 20:46:29*
G04 Gerber Generator version 0.3*
G04 Scale: 100 percent, Rotated: No, Reflected: No*
G04 Dimensions in millimeters*
G04 Leading zeros omitted, absolute positions, 3 integers and 5 decimals*
%FSLAX35Y35*%
%MOMM*%
%ADD8191C,0.2032*%
%ADD10O,1.6X3.19999*%
%ADD11O,2.99999X1.6*%
%ADD12C,2.49999*%
%ADD13C,3.2004*%
%ADD14C,1.2703*%
%ADD15C,1.27*%
%ADD16C,1.524*%
%ADD17C,5.79999*%
%ADD18R,1.7X1.7*%
%ADD19C,1.7*%
%ADD20C,1.4*%
%ADD21R,1.4X1.524*%
%ADD22C,0.61*%
%ADD23C,0.7*%
%ADD24C,0.5*%
%ADD25C,0.50002*%
G75*


G04 Copper Start*
G36*
G01X7156677Y2792495D02*
G03X7370825Y2731313I115814J0D01*
G01X7370825Y2604203D01*
G01X7266777Y2500155D01*
G01X4161981Y2500155D01*
G03X4154797Y2497179I0J-10160D01*
G01X3998808Y2341190D01*
G03X3995832Y2334006I7184J-7184D01*
G01X3995832Y35814D01*
G01X300000Y35814D01*
G02X35814Y300000I0J264186D01*
G01X35814Y3450000D01*
G02X300000Y3714186I264186J0D01*
G01X1441212Y3714186D01*
G01X1447643Y903088D01*
G03X1450187Y896387I10160J23D01*
G01X1542338Y792035D01*
G03X1549952Y788600I7616J6725D01*
G01X2170986Y788524D01*
G03X2178172Y791500I1J10160D01*
G01X2278146Y891475D01*
G03X2281122Y898625I-7184J7184D01*
G01X2287992Y2967622D01*
G01X2392815Y3072445D01*
G01X7276828Y3079783D01*
G01X7289568Y3067042D01*
G03X7156677Y2952494I-17077J-114548D01*
G01X7156677Y2792495D01*
G37*
%LPC*%
G36*
G01X104166Y3450000D02*
G03X495834Y3450000I195834J0D01*
G03X104166Y3450000I-195834J0D01*
G37*
G36*
G01X104166Y300000D02*
G03X495834Y300000I195834J0D01*
G03X104166Y300000I-195834J0D01*
G37*
G36*
G01X1998815Y378500D02*
G03X1717185Y378500I-140815J0D01*
G03X1998815Y378500I140815J0D01*
G37*
G36*
G01X2843323Y2792495D02*
G01X2843323Y2952494D01*
G03X2611695Y2952494I-115814J0D01*
G01X2611695Y2792495D01*
G03X2843323Y2792495I115814J0D01*
G37*
G36*
G01X3788305Y2792495D02*
G01X3788305Y2952494D01*
G03X3556677Y2952494I-115814J0D01*
G01X3556677Y2792495D01*
G03X3788305Y2792495I115814J0D01*
G37*
G36*
G01X4043323Y2792495D02*
G01X4043323Y2952494D01*
G03X3811695Y2952494I-115814J0D01*
G01X3811695Y2792495D01*
G03X4043323Y2792495I115814J0D01*
G37*
G36*
G01X4988305Y2792495D02*
G01X4988305Y2952494D01*
G03X4756677Y2952494I-115814J0D01*
G01X4756677Y2792495D01*
G03X4988305Y2792495I115814J0D01*
G37*
G36*
G01X5243323Y2792495D02*
G01X5243323Y2952494D01*
G03X5011695Y2952494I-115814J0D01*
G01X5011695Y2792495D01*
G03X5243323Y2792495I115814J0D01*
G37*
G36*
G01X6188305Y2792495D02*
G01X6188305Y2952494D01*
G03X5956677Y2952494I-115814J0D01*
G01X5956677Y2792495D01*
G03X6188305Y2792495I115814J0D01*
G37*
G36*
G01X6443323Y2792495D02*
G01X6443323Y2952494D01*
G03X6211695Y2952494I-115814J0D01*
G01X6211695Y2792495D01*
G03X6443323Y2792495I115814J0D01*
G37*
%LPD*%
G36*
G01X9700000Y35814D02*
G01X4041806Y35814D01*
G01X4041806Y2319171D01*
G01X4176816Y2454181D01*
G01X7270985Y2454181D01*
G03X7296310Y2464671I0J35814D01*
G01X7406310Y2574671D01*
G03X7416799Y2599995I-25324J25324D01*
G01X7416799Y2989994D01*
G03X7406310Y3015318I-35814J0D01*
G01X7306354Y3115273D01*
G03X7280976Y3125763I-25324J-25324D01*
G01X2388547Y3118413D01*
G03X2363276Y3107923I54J-35814D01*
G01X2252521Y2997168D01*
G03X2242032Y2971963I25324J-25324D01*
G01X2235197Y913543D01*
G01X2156155Y834500D01*
G01X1566108Y834572D01*
G01X1493586Y916697D01*
G01X1487186Y3714186D01*
G01X3117913Y3714186D01*
G03X3200000Y3516674I82087J-81698D01*
G03X3282087Y3714186I0J115814D01*
G01X4317913Y3714186D01*
G03X4400000Y3516674I82087J-81698D01*
G03X4482087Y3714186I0J115814D01*
G01X5517913Y3714186D01*
G03X5600000Y3516674I82087J-81698D01*
G03X5682087Y3714186I0J115814D01*
G01X6717913Y3714186D01*
G03X6800000Y3516674I82087J-81698D01*
G03X6882087Y3714186I0J115814D01*
G01X9700000Y3714186D01*
G02X9964186Y3450000I0J-264186D01*
G01X9964186Y300000D01*
G02X9700000Y35814I-264186J0D01*
G37*
%LPC*%
G36*
G01X2843323Y3252514D02*
G01X2843323Y3412514D01*
G03X2611695Y3412514I-115814J0D01*
G01X2611695Y3252514D01*
G03X2843323Y3252514I115814J0D01*
G37*
G36*
G01X3788305Y3252514D02*
G01X3788305Y3412514D01*
G03X3556677Y3412514I-115814J0D01*
G01X3556677Y3252514D01*
G03X3788305Y3252514I115814J0D01*
G37*
G36*
G01X4043323Y3252514D02*
G01X4043323Y3412514D01*
G03X3811695Y3412514I-115814J0D01*
G01X3811695Y3252514D01*
G03X4043323Y3252514I115814J0D01*
G37*
G36*
G01X4616286Y2298700D02*
G03X4857914Y2298700I120814J0D01*
G03X4616286Y2298700I-120814J0D01*
G37*
G36*
G01X4988305Y3252514D02*
G01X4988305Y3412514D01*
G03X4756677Y3412514I-115814J0D01*
G01X4756677Y3252514D01*
G03X4988305Y3252514I115814J0D01*
G37*
G36*
G01X4870286Y2298700D02*
G03X5111914Y2298700I120814J0D01*
G03X4870286Y2298700I-120814J0D01*
G37*
G36*
G01X5243323Y3252514D02*
G01X5243323Y3412514D01*
G03X5011695Y3412514I-115814J0D01*
G01X5011695Y3252514D01*
G03X5243323Y3252514I115814J0D01*
G37*
G36*
G01X5124286Y2298700D02*
G03X5365914Y2298700I120814J0D01*
G03X5124286Y2298700I-120814J0D01*
G37*
G36*
G01X6188305Y3252514D02*
G01X6188305Y3412514D01*
G03X5956677Y3412514I-115814J0D01*
G01X5956677Y3252514D01*
G03X6188305Y3252514I115814J0D01*
G37*
G36*
G01X6063986Y243499D02*
G03X6288014Y243499I112014J0D01*
G03X6063986Y243499I-112014J0D01*
G37*
G36*
G01X6443323Y3252514D02*
G01X6443323Y3412514D01*
G03X6211695Y3412514I-115814J0D01*
G01X6211695Y3252514D01*
G03X6443323Y3252514I115814J0D01*
G37*
G36*
G01X6317986Y243499D02*
G03X6542014Y243499I112014J0D01*
G03X6317986Y243499I-112014J0D01*
G37*
G36*
G01X7288012Y668314D02*
G03X7194522Y535490I0J-99314D01*
G03X7127502Y535490I-33510J-93490D01*
G03X7034012Y668314I-93490J33510D01*
G03X6940522Y535490I0J-99314D01*
G03X6873502Y535490I-33510J-93490D01*
G03X6709786Y639225I-93490J33510D01*
G03X6813522Y475510I70226J-70226D01*
G03X6813522Y408490I93490J-33510D01*
G03X6680698Y315000I-33510J-93490D01*
G03X6813522Y221510I99314J0D01*
G03X6907012Y88686I93490J-33510D01*
G03X7000502Y221510I0J99314D01*
G03X7067522Y221510I33510J93490D01*
G03X7161012Y88686I93490J-33510D01*
G03X7254502Y221510I0J99314D01*
G03X7321522Y221510I33510J93490D01*
G03X7415012Y88686I93490J-33510D01*
G03X7508502Y221510I0J99314D01*
G03X7541997Y215686I33510J93490D01*
G03X7575493Y221500I15J99314D01*
G03X7668992Y88686I93493J-33500D01*
G03X7762476Y221510I-6J99314D01*
G03X7795987Y215686I33510J93490D01*
G03X7829497Y221510I0J99314D01*
G03X7922987Y88686I93490J-33510D01*
G03X8016476Y221510I0J99314D01*
G03X8083497Y221510I33510J93490D01*
G03X8247212Y117774I93490J-33510D01*
G03X8143476Y281490I-70226J70226D01*
G03X8143476Y348510I-93490J33510D01*
G03X8276301Y442000I33510J93490D01*
G03X8143476Y535490I-99314J0D01*
G03X8049987Y668314I-93490J33510D01*
G03X7956497Y535490I0J-99314D01*
G03X7889476Y535490I-33510J-93490D01*
G03X7795987Y668314I-93490J33510D01*
G03X7702497Y535490I0J-99314D01*
G03X7635506Y535500I-33510J-93490D01*
G03X7542007Y668314I-93493J33500D01*
G03X7448522Y535490I6J-99314D01*
G03X7381502Y535490I-33510J-93490D01*
G03X7288012Y668314I-93490J33510D01*
G37*
G36*
G01X7388305Y3252514D02*
G01X7388305Y3412514D01*
G03X7156677Y3412514I-115814J0D01*
G01X7156677Y3252514D01*
G03X7388305Y3252514I115814J0D01*
G37*
G36*
G01X7678670Y2344995D02*
G03X7811299Y2344995I66314J0D01*
G03X7678670Y2344995I-66314J0D01*
G37*
G36*
G01X7743670Y2514995D02*
G03X7876298Y2514995I66314J0D01*
G03X7743670Y2514995I-66314J0D01*
G37*
G36*
G01X8602815Y513501D02*
G03X8321185Y513501I-140815J0D01*
G03X8602815Y513501I140815J0D01*
G37*
G36*
G01X9504166Y300000D02*
G03X9895834Y300000I195834J0D01*
G03X9504166Y300000I-195834J0D01*
G37*
G36*
G01X9504166Y3450000D02*
G03X9895834Y3450000I195834J0D01*
G03X9504166Y3450000I-195834J0D01*
G37*
G36*
G01X9734982Y2840808D02*
G03X9700390Y2634995I0J-105814D01*
G03X9700390Y2434995I34592J-100000D01*
G03X9700390Y2234996I34592J-100000D01*
G03X9700390Y2034996I34592J-100000D01*
G03X9734982Y1829182I34592J-100000D01*
G03X9769574Y2034996I0J105814D01*
G03X9769574Y2234996I-34592J100000D01*
G03X9769574Y2434995I-34592J100000D01*
G03X9769574Y2634995I-34592J100000D01*
G03X9734982Y2840808I-34592J100000D01*
G37*
%LPD*%
G54D8191*
G01X7156677Y2792495D02*
G03X7370825Y2731313I115814J0D01*
G01X7370825Y2604203D01*
G01X7266777Y2500155D01*
G01X4161981Y2500155D01*
G03X4154797Y2497179I0J-10160D01*
G01X3998808Y2341190D01*
G03X3995832Y2334006I7184J-7184D01*
G01X3995832Y35814D01*
G01X300000Y35814D01*
G02X35814Y300000I0J264186D01*
G01X35814Y3450000D01*
G02X300000Y3714186I264186J0D01*
G01X1441212Y3714186D01*
G01X1447643Y903088D01*
G03X1450187Y896387I10160J23D01*
G01X1542338Y792035D01*
G03X1549952Y788600I7616J6725D01*
G01X2170986Y788524D01*
G03X2178172Y791500I1J10160D01*
G01X2278146Y891475D01*
G03X2281122Y898625I-7184J7184D01*
G01X2287992Y2967622D01*
G01X2392815Y3072445D01*
G01X7276828Y3079783D01*
G01X7289568Y3067042D01*
G03X7156677Y2952494I-17077J-114548D01*
G01X7156677Y2792495D01*
G01X104166Y3450000D02*
G03X495834Y3450000I195834J0D01*
G03X104166Y3450000I-195834J0D01*
G01X104166Y300000D02*
G03X495834Y300000I195834J0D01*
G03X104166Y300000I-195834J0D01*
G01X1998815Y378500D02*
G03X1717185Y378500I-140815J0D01*
G03X1998815Y378500I140815J0D01*
G01X2843323Y2792495D02*
G01X2843323Y2952494D01*
G03X2611695Y2952494I-115814J0D01*
G01X2611695Y2792495D01*
G03X2843323Y2792495I115814J0D01*
G01X3788305Y2792495D02*
G01X3788305Y2952494D01*
G03X3556677Y2952494I-115814J0D01*
G01X3556677Y2792495D01*
G03X3788305Y2792495I115814J0D01*
G01X4043323Y2792495D02*
G01X4043323Y2952494D01*
G03X3811695Y2952494I-115814J0D01*
G01X3811695Y2792495D01*
G03X4043323Y2792495I115814J0D01*
G01X4988305Y2792495D02*
G01X4988305Y2952494D01*
G03X4756677Y2952494I-115814J0D01*
G01X4756677Y2792495D01*
G03X4988305Y2792495I115814J0D01*
G01X5243323Y2792495D02*
G01X5243323Y2952494D01*
G03X5011695Y2952494I-115814J0D01*
G01X5011695Y2792495D01*
G03X5243323Y2792495I115814J0D01*
G01X6188305Y2792495D02*
G01X6188305Y2952494D01*
G03X5956677Y2952494I-115814J0D01*
G01X5956677Y2792495D01*
G03X6188305Y2792495I115814J0D01*
G01X6443323Y2792495D02*
G01X6443323Y2952494D01*
G03X6211695Y2952494I-115814J0D01*
G01X6211695Y2792495D01*
G03X6443323Y2792495I115814J0D01*
G01X9700000Y35814D02*
G01X4041806Y35814D01*
G01X4041806Y2319171D01*
G01X4176816Y2454181D01*
G01X7270985Y2454181D01*
G03X7296310Y2464671I0J35814D01*
G01X7406310Y2574671D01*
G03X7416799Y2599995I-25324J25324D01*
G01X7416799Y2989994D01*
G03X7406310Y3015318I-35814J0D01*
G01X7306354Y3115273D01*
G03X7280976Y3125763I-25324J-25324D01*
G01X2388547Y3118413D01*
G03X2363276Y3107923I54J-35814D01*
G01X2252521Y2997168D01*
G03X2242032Y2971963I25324J-25324D01*
G01X2235197Y913543D01*
G01X2156155Y834500D01*
G01X1566108Y834572D01*
G01X1493586Y916697D01*
G01X1487186Y3714186D01*
G01X3117913Y3714186D01*
G03X3200000Y3516674I82087J-81698D01*
G03X3282087Y3714186I0J115814D01*
G01X4317913Y3714186D01*
G03X4400000Y3516674I82087J-81698D01*
G03X4482087Y3714186I0J115814D01*
G01X5517913Y3714186D01*
G03X5600000Y3516674I82087J-81698D01*
G03X5682087Y3714186I0J115814D01*
G01X6717913Y3714186D01*
G03X6800000Y3516674I82087J-81698D01*
G03X6882087Y3714186I0J115814D01*
G01X9700000Y3714186D01*
G02X9964186Y3450000I0J-264186D01*
G01X9964186Y300000D01*
G02X9700000Y35814I-264186J0D01*
G01X2843323Y3252514D02*
G01X2843323Y3412514D01*
G03X2611695Y3412514I-115814J0D01*
G01X2611695Y3252514D01*
G03X2843323Y3252514I115814J0D01*
G01X3788305Y3252514D02*
G01X3788305Y3412514D01*
G03X3556677Y3412514I-115814J0D01*
G01X3556677Y3252514D01*
G03X3788305Y3252514I115814J0D01*
G01X4043323Y3252514D02*
G01X4043323Y3412514D01*
G03X3811695Y3412514I-115814J0D01*
G01X3811695Y3252514D01*
G03X4043323Y3252514I115814J0D01*
G01X4616286Y2298700D02*
G03X4857914Y2298700I120814J0D01*
G03X4616286Y2298700I-120814J0D01*
G01X4988305Y3252514D02*
G01X4988305Y3412514D01*
G03X4756677Y3412514I-115814J0D01*
G01X4756677Y3252514D01*
G03X4988305Y3252514I115814J0D01*
G01X4870286Y2298700D02*
G03X5111914Y2298700I120814J0D01*
G03X4870286Y2298700I-120814J0D01*
G01X5243323Y3252514D02*
G01X5243323Y3412514D01*
G03X5011695Y3412514I-115814J0D01*
G01X5011695Y3252514D01*
G03X5243323Y3252514I115814J0D01*
G01X5124286Y2298700D02*
G03X5365914Y2298700I120814J0D01*
G03X5124286Y2298700I-120814J0D01*
G01X6188305Y3252514D02*
G01X6188305Y3412514D01*
G03X5956677Y3412514I-115814J0D01*
G01X5956677Y3252514D01*
G03X6188305Y3252514I115814J0D01*
G01X6063986Y243499D02*
G03X6288014Y243499I112014J0D01*
G03X6063986Y243499I-112014J0D01*
G01X6443323Y3252514D02*
G01X6443323Y3412514D01*
G03X6211695Y3412514I-115814J0D01*
G01X6211695Y3252514D01*
G03X6443323Y3252514I115814J0D01*
G01X6317986Y243499D02*
G03X6542014Y243499I112014J0D01*
G03X6317986Y243499I-112014J0D01*
G01X7288012Y668314D02*
G03X7194522Y535490I0J-99314D01*
G03X7127502Y535490I-33510J-93490D01*
G03X7034012Y668314I-93490J33510D01*
G03X6940522Y535490I0J-99314D01*
G03X6873502Y535490I-33510J-93490D01*
G03X6709786Y639225I-93490J33510D01*
G03X6813522Y475510I70226J-70226D01*
G03X6813522Y408490I93490J-33510D01*
G03X6680698Y315000I-33510J-93490D01*
G03X6813522Y221510I99314J0D01*
G03X6907012Y88686I93490J-33510D01*
G03X7000502Y221510I0J99314D01*
G03X7067522Y221510I33510J93490D01*
G03X7161012Y88686I93490J-33510D01*
G03X7254502Y221510I0J99314D01*
G03X7321522Y221510I33510J93490D01*
G03X7415012Y88686I93490J-33510D01*
G03X7508502Y221510I0J99314D01*
G03X7541997Y215686I33510J93490D01*
G03X7575493Y221500I15J99314D01*
G03X7668992Y88686I93493J-33500D01*
G03X7762476Y221510I-6J99314D01*
G03X7795987Y215686I33510J93490D01*
G03X7829497Y221510I0J99314D01*
G03X7922987Y88686I93490J-33510D01*
G03X8016476Y221510I0J99314D01*
G03X8083497Y221510I33510J93490D01*
G03X8247212Y117774I93490J-33510D01*
G03X8143476Y281490I-70226J70226D01*
G03X8143476Y348510I-93490J33510D01*
G03X8276301Y442000I33510J93490D01*
G03X8143476Y535490I-99314J0D01*
G03X8049987Y668314I-93490J33510D01*
G03X7956497Y535490I0J-99314D01*
G03X7889476Y535490I-33510J-93490D01*
G03X7795987Y668314I-93490J33510D01*
G03X7702497Y535490I0J-99314D01*
G03X7635506Y535500I-33510J-93490D01*
G03X7542007Y668314I-93493J33500D01*
G03X7448522Y535490I6J-99314D01*
G03X7381502Y535490I-33510J-93490D01*
G03X7288012Y668314I-93490J33510D01*
G01X7388305Y3252514D02*
G01X7388305Y3412514D01*
G03X7156677Y3412514I-115814J0D01*
G01X7156677Y3252514D01*
G03X7388305Y3252514I115814J0D01*
G01X7678670Y2344995D02*
G03X7811299Y2344995I66314J0D01*
G03X7678670Y2344995I-66314J0D01*
G01X7743670Y2514995D02*
G03X7876298Y2514995I66314J0D01*
G03X7743670Y2514995I-66314J0D01*
G01X8602815Y513501D02*
G03X8321185Y513501I-140815J0D01*
G03X8602815Y513501I140815J0D01*
G01X9504166Y300000D02*
G03X9895834Y300000I195834J0D01*
G03X9504166Y300000I-195834J0D01*
G01X9504166Y3450000D02*
G03X9895834Y3450000I195834J0D01*
G03X9504166Y3450000I-195834J0D01*
G01X9734982Y2840808D02*
G03X9700390Y2634995I0J-105814D01*
G03X9700390Y2434995I34592J-100000D01*
G03X9700390Y2234996I34592J-100000D01*
G03X9700390Y2034996I34592J-100000D01*
G03X9734982Y1829182I34592J-100000D01*
G03X9769574Y2034996I0J105814D01*
G03X9769574Y2234996I-34592J100000D01*
G03X9769574Y2434995I-34592J100000D01*
G03X9769574Y2634995I-34592J100000D01*
G03X9734982Y2840808I-34592J100000D01*
G04 Copper End*

G04 Pad Start*
G54D10*
G01X6327509Y2872495D03*
G01X6327509Y3332514D03*
G01X7272491Y2872495D03*
G01X7272491Y3332514D03*
G54D11*
G01X6800000Y3292484D03*
G54D12*
G01X6800000Y2667491D03*
G54D10*
G01X5127509Y2872495D03*
G01X5127509Y3332514D03*
G01X6072491Y2872495D03*
G01X6072491Y3332514D03*
G54D11*
G01X5600000Y3292484D03*
G54D12*
G01X5600000Y2667491D03*
G54D10*
G01X3927509Y2872495D03*
G01X3927509Y3332514D03*
G01X4872491Y2872495D03*
G01X4872491Y3332514D03*
G54D11*
G01X4400000Y3292484D03*
G54D12*
G01X4400000Y2667491D03*
G54D13*
G01X300000Y3450000D03*
G01X9700000Y3450000D03*
G01X300000Y300000D03*
G01X9700000Y300000D03*
G54D15*
G01X8176987Y188000D03*
G01X8176987Y442000D03*
G01X8049987Y315000D03*
G01X8049987Y569000D03*
G01X7922987Y188000D03*
G01X7922987Y442000D03*
G01X7795987Y315000D03*
G01X7795987Y569000D03*
G01X7668987Y188000D03*
G01X7668987Y442000D03*
G01X7542012Y315000D03*
G01X7542012Y569000D03*
G01X7415012Y188000D03*
G01X7415012Y442000D03*
G01X7288012Y315000D03*
G01X7288012Y569000D03*
G01X7161012Y188000D03*
G01X7161012Y442000D03*
G01X7034012Y315000D03*
G01X7034012Y569000D03*
G01X6907012Y188000D03*
G01X6907012Y442000D03*
G01X6780012Y315000D03*
G01X6780012Y569000D03*
G54D16*
G01X6430000Y243499D03*
G01X6430000Y513501D03*
G01X6176000Y243499D03*
G01X6176000Y513501D03*
G01X5922000Y243499D03*
G01X5922000Y513501D03*
G01X5414000Y243499D03*
G01X5414000Y513501D03*
G01X5668000Y513501D03*
G01X5668000Y243499D03*
G01X5160000Y243499D03*
G01X5160000Y513501D03*
G01X4398000Y243499D03*
G01X4398000Y513501D03*
G01X4652000Y513501D03*
G01X4652000Y243499D03*
G01X4906000Y243499D03*
G01X4906000Y513501D03*
G01X3636000Y243499D03*
G01X3636000Y513501D03*
G01X3890000Y513501D03*
G01X3890000Y243499D03*
G01X4144000Y243499D03*
G01X4144000Y513501D03*
G01X2874000Y243499D03*
G01X2874000Y513501D03*
G01X3128000Y513501D03*
G01X3128000Y243499D03*
G01X3382000Y243499D03*
G01X3382000Y513501D03*
G01X2112000Y243499D03*
G01X2112000Y513501D03*
G01X2366000Y513501D03*
G01X2366000Y243499D03*
G01X2620000Y243499D03*
G01X2620000Y513501D03*
G54D17*
G01X1834994Y3195000D03*
G01X1115006Y3195000D03*
G01X1834994Y2235000D03*
G01X1115006Y2235000D03*
G01X1834994Y1275000D03*
G01X1115006Y1275000D03*
G54D18*
G01X4483100Y2298700D03*
G54D19*
G01X4737100Y2298700D03*
G01X4991100Y2298700D03*
G01X5245100Y2298700D03*
G54D20*
G01X9734982Y1934996D03*
G01X9734982Y2134996D03*
G01X9734982Y2334995D03*
G01X9734982Y2534995D03*
G01X9734982Y2734995D03*
G54D21*
G01X9734982Y2934994D03*
G54D10*
G01X2727509Y2872495D03*
G01X2727509Y3332514D03*
G01X3672491Y2872495D03*
G01X3672491Y3332514D03*
G54D11*
G01X3200000Y3292484D03*
G54D12*
G01X3200000Y2667491D03*
G04 Pad End*

G04 Via Start*
G54D22*
G01X7744985Y2344995D03*
G01X7809984Y2514995D03*
G54D23*
G01X5034990Y1439997D03*
G01X4934990Y2104996D03*
G54D22*
G01X191000Y589932D03*
G01X191000Y789932D03*
G01X191000Y989932D03*
G01X191000Y1189932D03*
G01X191000Y1389932D03*
G01X191000Y1589933D03*
G01X191000Y1789933D03*
G01X191000Y1989933D03*
G01X191000Y2189933D03*
G01X191000Y2389933D03*
G01X191000Y2589933D03*
G01X191000Y2789933D03*
G01X191000Y2989933D03*
G01X191000Y3189933D03*
G01X391000Y589932D03*
G01X391000Y789932D03*
G01X391000Y989932D03*
G01X391000Y1189932D03*
G01X391000Y1389932D03*
G01X391000Y1589933D03*
G01X391000Y1789933D03*
G01X391000Y1989933D03*
G01X391000Y2189933D03*
G01X391000Y2389933D03*
G01X391000Y2589933D03*
G01X391000Y2789933D03*
G01X391000Y2989933D03*
G01X391000Y3189933D03*
G01X591000Y189932D03*
G01X591000Y389932D03*
G01X591000Y589932D03*
G01X591000Y789932D03*
G01X591000Y989932D03*
G01X591000Y1189932D03*
G01X591000Y1389932D03*
G01X591000Y1589933D03*
G01X591000Y1789933D03*
G01X591000Y1989933D03*
G01X591000Y2189933D03*
G01X591000Y2389933D03*
G01X591000Y2589933D03*
G01X591000Y2789933D03*
G01X591000Y2989933D03*
G01X591000Y3189933D03*
G01X591000Y3389934D03*
G01X591000Y3589934D03*
G01X791000Y189932D03*
G01X791000Y389932D03*
G01X791000Y589932D03*
G01X791000Y789932D03*
G01X791000Y989932D03*
G01X791000Y1189932D03*
G01X791000Y1389932D03*
G01X791000Y1589933D03*
G01X791000Y1789933D03*
G01X791000Y1989933D03*
G01X791000Y2189933D03*
G01X791000Y2389933D03*
G01X791000Y2589933D03*
G01X791000Y2789933D03*
G01X791000Y2989933D03*
G01X791000Y3189933D03*
G01X791000Y3389934D03*
G01X791000Y3589934D03*
G01X991001Y189932D03*
G01X991001Y389932D03*
G01X991001Y589932D03*
G01X991001Y789932D03*
G01X991001Y1589933D03*
G01X991001Y1789933D03*
G01X991001Y2589933D03*
G01X991001Y2789933D03*
G01X991001Y3589934D03*
G01X1191001Y189932D03*
G01X1191001Y389932D03*
G01X1191001Y589932D03*
G01X1191001Y789932D03*
G01X1191001Y1589933D03*
G01X1191001Y1789933D03*
G01X1191001Y2589933D03*
G01X1191001Y2789933D03*
G01X1191001Y3589934D03*
G01X1391001Y189932D03*
G01X1391001Y389932D03*
G01X1391001Y589932D03*
G01X1391001Y789932D03*
G01X1391001Y989932D03*
G01X1391001Y1589933D03*
G01X1391001Y1789933D03*
G01X1391001Y1989933D03*
G01X1391001Y2589933D03*
G01X1391001Y2789933D03*
G01X1391001Y2989933D03*
G01X1391001Y3389934D03*
G01X1391001Y3589934D03*
G01X1591001Y189932D03*
G01X1591001Y389932D03*
G01X1591001Y589932D03*
G01X1791001Y189932D03*
G01X1791001Y589932D03*
G01X1991001Y189932D03*
G01X1991001Y589932D03*
G01X2191001Y389932D03*
G01X2391001Y389932D03*
G01X2391001Y789932D03*
G01X2391001Y989932D03*
G01X2391001Y1189932D03*
G01X2391001Y1389932D03*
G01X2391001Y1589933D03*
G01X2391001Y1789933D03*
G01X2391001Y1989933D03*
G01X2391001Y2189933D03*
G01X2391001Y2389933D03*
G01X2391001Y2589933D03*
G01X2391001Y2789933D03*
G01X2391001Y2989933D03*
G01X2591001Y389932D03*
G01X2591001Y789932D03*
G01X2591001Y989932D03*
G01X2591001Y1189932D03*
G01X2591001Y1389932D03*
G01X2591001Y1589933D03*
G01X2591001Y1789933D03*
G01X2591001Y1989933D03*
G01X2591001Y2189933D03*
G01X2591001Y2389933D03*
G01X2591001Y2589933D03*
G01X2791002Y389932D03*
G01X2791002Y789932D03*
G01X2791002Y989932D03*
G01X2791002Y1189932D03*
G01X2791002Y1389932D03*
G01X2791002Y1589933D03*
G01X2791002Y1789933D03*
G01X2791002Y1989933D03*
G01X2791002Y2189933D03*
G01X2791002Y2389933D03*
G01X2791002Y2589933D03*
G01X2991002Y189932D03*
G01X2991002Y389932D03*
G01X2991002Y589932D03*
G01X2991002Y789932D03*
G01X2991002Y989932D03*
G01X2991002Y1189932D03*
G01X2991002Y1389932D03*
G01X2991002Y1589933D03*
G01X2991002Y1789933D03*
G01X2991002Y1989933D03*
G01X2991002Y2189933D03*
G01X2991002Y2389933D03*
G01X2991002Y2589933D03*
G01X2991002Y2789933D03*
G01X2991002Y2989933D03*
G01X3191002Y389932D03*
G01X3191002Y789932D03*
G01X3191002Y989932D03*
G01X3191002Y1189932D03*
G01X3191002Y1389932D03*
G01X3191002Y1589933D03*
G01X3191002Y1789933D03*
G01X3191002Y1989933D03*
G01X3191002Y2189933D03*
G01X3191002Y2389933D03*
G01X3191002Y2989933D03*
G01X3391002Y389932D03*
G01X3391002Y789932D03*
G01X3391002Y989932D03*
G01X3391002Y1189932D03*
G01X3391002Y1389932D03*
G01X3391002Y1589933D03*
G01X3391002Y1789933D03*
G01X3391002Y1989933D03*
G01X3391002Y2189933D03*
G01X3391002Y2389933D03*
G01X3391002Y2589933D03*
G01X3391002Y2789933D03*
G01X3391002Y2989933D03*
G01X3591002Y389932D03*
G01X3591002Y789932D03*
G01X3591002Y989932D03*
G01X3591002Y1189932D03*
G01X3591002Y1389932D03*
G01X3591002Y1589933D03*
G01X3591002Y1789933D03*
G01X3591002Y1989933D03*
G01X3591002Y2189933D03*
G01X3591002Y2389933D03*
G01X3591002Y2589933D03*
G01X3791002Y389932D03*
G01X3791002Y789932D03*
G01X3791002Y989932D03*
G01X3791002Y1189932D03*
G01X3791002Y1389932D03*
G01X3791002Y1589933D03*
G01X3791002Y1789933D03*
G01X3791002Y1989933D03*
G01X3791002Y2189933D03*
G01X3791002Y2389933D03*
G01X3791002Y2589933D03*
G01X3991002Y2389933D03*
G01X3991002Y2589933D03*
G01X4191002Y2589933D03*
G01X4191002Y2789933D03*
G01X4191002Y2989933D03*
G01X4391002Y2989933D03*
G01X4591003Y2589933D03*
G01X4591003Y2789933D03*
G01X4591003Y2989933D03*
G01X4791003Y2589933D03*
G01X4991003Y2589933D03*
G01X5191003Y2589933D03*
G01X5391003Y2589933D03*
G01X5391003Y2789933D03*
G01X5391003Y2989933D03*
G01X5591003Y2989933D03*
G01X5791003Y2589933D03*
G01X5791003Y2789933D03*
G01X5791003Y2989933D03*
G01X5991003Y2589933D03*
G01X6191003Y2589933D03*
G01X6391003Y2589933D03*
G01X6591004Y2589933D03*
G01X6591004Y2789933D03*
G01X6591004Y2989933D03*
G01X6791004Y2989933D03*
G01X6991004Y2589933D03*
G01X6991004Y2789933D03*
G01X6991004Y2989933D03*
G01X7191004Y2589933D03*
G01X1590001Y990001D03*
G01X1590001Y1590001D03*
G01X1590001Y1790001D03*
G01X1590001Y1990001D03*
G01X1590001Y2590001D03*
G01X1590001Y2790002D03*
G01X1590001Y3590002D03*
G01X1790001Y1790001D03*
G01X1790001Y2590001D03*
G01X1790001Y2790002D03*
G01X1790001Y3590002D03*
G01X1990001Y990001D03*
G01X1990001Y1590001D03*
G01X1990001Y1790001D03*
G01X1990001Y2590001D03*
G01X1990001Y2790002D03*
G01X1990001Y3590002D03*
G01X2190001Y990001D03*
G01X2190001Y1190001D03*
G01X2190001Y1390001D03*
G01X2190001Y1590001D03*
G01X2190001Y1790001D03*
G01X2190001Y1990001D03*
G01X2190001Y2190001D03*
G01X2190001Y2390001D03*
G01X2190001Y2590001D03*
G01X2190001Y2790002D03*
G01X2190001Y2990002D03*
G01X2190001Y3190002D03*
G01X2190001Y3390002D03*
G01X2190001Y3590002D03*
G01X2390001Y3190002D03*
G01X2390001Y3390002D03*
G01X2390001Y3590002D03*
G01X2590001Y3190002D03*
G01X2590001Y3590002D03*
G01X2790002Y3590002D03*
G01X2990002Y3190002D03*
G01X2990002Y3390002D03*
G01X2990002Y3590002D03*
G01X3390002Y3190002D03*
G01X3390002Y3390002D03*
G01X3390002Y3590002D03*
G01X3590002Y3590002D03*
G01X3790002Y3590002D03*
G01X3990002Y3590002D03*
G01X4190002Y390000D03*
G01X4190002Y790000D03*
G01X4190002Y990001D03*
G01X4190002Y1590001D03*
G01X4190002Y1790001D03*
G01X4190002Y1990001D03*
G01X4190002Y2190001D03*
G01X4190002Y2390001D03*
G01X4190002Y3190002D03*
G01X4190002Y3390002D03*
G01X4190002Y3590002D03*
G01X4390002Y390000D03*
G01X4390002Y790000D03*
G01X4390002Y1990001D03*
G01X4590003Y390000D03*
G01X4590003Y790000D03*
G01X4590003Y1990001D03*
G01X4590003Y2190001D03*
G01X4590003Y3190002D03*
G01X4590003Y3390002D03*
G01X4590003Y3590002D03*
G01X4790003Y390000D03*
G01X4790003Y3590002D03*
G01X4990003Y390000D03*
G01X4990003Y3590002D03*
G01X5190003Y390000D03*
G01X5190003Y3590002D03*
G01X5390003Y390000D03*
G01X5390003Y3190002D03*
G01X5390003Y3390002D03*
G01X5390003Y3590002D03*
G01X5590003Y390000D03*
G01X5790003Y390000D03*
G01X6190002Y1990000D03*
G01X5790003Y3190002D03*
G01X5790003Y3390002D03*
G01X5790003Y3590002D03*
G01X5990003Y390000D03*
G01X5990003Y1990000D03*
G01X5990003Y3590002D03*
G01X6190003Y390000D03*
G01X6819986Y1590001D03*
G01X6190003Y3590002D03*
G01X6390003Y390000D03*
G01X6390003Y3590002D03*
G01X6590004Y190000D03*
G01X6589987Y1990000D03*
G01X6590004Y3190002D03*
G01X6590004Y3390002D03*
G01X6590004Y3590002D03*
G01X6990004Y3190002D03*
G01X6990004Y3390002D03*
G01X6990004Y3590002D03*
G01X7230000Y1590000D03*
G01X7190004Y3590002D03*
G01X7390004Y3590002D03*
G01X7590004Y2990002D03*
G01X7590004Y3190002D03*
G01X7590004Y3390002D03*
G01X7590004Y3590002D03*
G01X7790004Y2990002D03*
G01X7790004Y3190002D03*
G01X7790004Y3390002D03*
G01X7790004Y3590002D03*
G01X7990004Y1190001D03*
G01X7990004Y1390001D03*
G01X7990004Y1590001D03*
G01X7990004Y1790001D03*
G01X7990004Y1990001D03*
G01X7990004Y2190001D03*
G01X7990004Y2390001D03*
G01X7990004Y3190002D03*
G01X7990004Y3390002D03*
G01X7990004Y3590002D03*
G01X8190004Y1190001D03*
G01X8190004Y1390001D03*
G01X8190004Y1590001D03*
G01X8190004Y2390001D03*
G01X8190004Y2790002D03*
G01X8190004Y3190002D03*
G01X8190004Y3390002D03*
G01X8190004Y3590002D03*
G01X8390005Y1190001D03*
G01X8390005Y1390001D03*
G01X8390005Y1590001D03*
G01X8390005Y2390001D03*
G01X8390005Y2790002D03*
G01X8390005Y3190002D03*
G01X8390005Y3390002D03*
G01X8390005Y3590002D03*
G01X8590005Y1190001D03*
G01X8590005Y1390001D03*
G01X8590005Y1590001D03*
G01X8590005Y1790001D03*
G01X8590005Y1990001D03*
G01X8590005Y2190001D03*
G01X8590005Y2390001D03*
G01X8590005Y2790002D03*
G01X8590005Y3190002D03*
G01X8590005Y3390002D03*
G01X8590005Y3590002D03*
G01X8790005Y1190001D03*
G01X8790005Y1390001D03*
G01X8790005Y1590001D03*
G01X8790005Y1790001D03*
G01X8790005Y1990001D03*
G01X8790005Y2190001D03*
G01X8790005Y2390001D03*
G01X8790005Y2790002D03*
G01X8790005Y3190002D03*
G01X8790005Y3390002D03*
G01X8790005Y3590002D03*
G01X8990005Y1190001D03*
G01X8990005Y1390001D03*
G01X8990005Y1590001D03*
G01X8990005Y1790001D03*
G01X8990005Y1990001D03*
G01X8990005Y2190001D03*
G01X8990005Y2390001D03*
G01X8990005Y2790002D03*
G01X8990005Y3190002D03*
G01X8990005Y3390002D03*
G01X8990005Y3590002D03*
G01X9190005Y2790002D03*
G01X9190005Y3190002D03*
G01X9190005Y3390002D03*
G01X9190005Y3590002D03*
G01X9390005Y3190002D03*
G01X9390005Y3390002D03*
G01X9390005Y3590002D03*
G01X9590005Y2990002D03*
G01X9590005Y3190002D03*
G01X9790005Y3190002D03*
G54D24*
G01X5264989Y824998D03*
G01X5484989Y826708D03*
G01X5715592Y826708D03*
G54D22*
G01X6194988Y2180001D03*
G01X6594987Y2180000D03*
G01X6390002Y1990000D03*
G01X5990003Y1589997D03*
G01X6194988Y1589997D03*
G01X6819986Y1384997D03*
G01X6589987Y1589997D03*
G01X5990003Y1384997D03*
G01X6194988Y1384997D03*
G54D23*
G01X5264989Y2104996D03*
G54D22*
G01X5984996Y1794996D03*
G01X6184995Y1794996D03*
G01X6384995Y1794996D03*
G01X6584979Y1794996D03*
G01X6819993Y1994996D03*
G01X7034994Y1994996D03*
G01X7229978Y1994996D03*
G01X6817486Y1794996D03*
G01X7032486Y1794996D03*
G54D25*
G01X8295488Y2067088D03*
G01X8295488Y1927088D03*
G01X8225488Y2137087D03*
G01X8155488Y2067088D03*
G01X8155488Y1927088D03*
G01X8435487Y1927088D03*
G01X8435487Y2067088D03*
G01X8365487Y2137087D03*
G01X8365487Y1997088D03*
G01X8225488Y1997088D03*
G01X8225488Y1857088D03*
G01X8365487Y1857088D03*
G04 Via End*

M02*

