<?xml version="1.0" standalone="no"?><!DOCTYPE svg PUBLIC "-//W3C//DTD SVG 1.1//EN" "http://www.w3.org/Graphics/SVG/1.1/DTD/svg11.dtd"><svg t="1708688262333" class="icon" viewBox="0 0 1024 1024" version="1.1" xmlns="http://www.w3.org/2000/svg" p-id="10558" xmlns:xlink="http://www.w3.org/1999/xlink" width="32" height="32"><path d="M643.84 56.896c18.368 0 36.16 5.952 50.816 16.768l7.04 5.824 181.12 167.168c15.296 14.08 24.832 33.28 26.944 53.824l0.448 8.896v544c0 59.648-45.952 108.608-104.448 113.344l-9.344 0.384H227.584a113.792 113.792 0 0 1-113.408-104.448l-0.384-9.344V170.688c0-59.712 45.952-108.672 104.448-113.408l9.344-0.384h416.256z m-46.528 56.832H227.584a56.96 56.96 0 0 0-56.448 49.792l-0.448 7.168v682.624c0 28.992 21.696 52.928 49.728 56.448l7.168 0.448h568.832c29.056 0 52.992-21.696 56.448-49.728l0.448-7.168v-512h-170.624c-45.44 0-82.56-35.52-85.184-80.32L597.312 256V113.728z m99.136 320.448c24.576 0 44.672 5.76 59.712 17.728 14.72 11.968 22.208 28.352 22.208 49.536 0 26.624-13.696 44.352-40.64 53.248 14.336 4.416 25.6 10.88 33.088 19.776 8.192 9.216 12.288 21.12 12.288 35.52 0 22.528-7.808 40.96-23.552 55.296-16.384 14.656-37.888 22.144-64.512 22.144-25.216 0-45.696-6.464-61.056-19.456-17.088-14.336-26.624-35.456-28.672-62.784h40.576c0.704 15.68 5.504 27.968 15.04 36.48a48 48 0 0 0 33.792 11.968c15.36 0 27.648-4.416 36.48-12.928a39.424 39.424 0 0 0 11.968-29.056c0-13.952-4.416-24.192-12.608-30.72-8.192-6.784-20.16-9.856-35.84-9.856h-17.088v-30.08h17.088c14.336 0 25.28-3.072 32.768-9.216 7.168-6.144 10.88-15.36 10.88-27.264 0-11.968-3.392-20.864-9.856-27.008-7.168-6.144-17.728-9.216-31.744-9.216-14.336 0-25.28 3.456-33.088 10.624-8.192 7.168-12.992 18.048-14.336 32.768h-39.296c2.048-24.576 10.944-43.712 27.328-57.344 15.36-13.696 35.2-20.16 59.072-20.16z m-340.352 4.8v243.712H316.16V487.04c-14.656 13.312-33.088 23.168-55.616 29.696v-39.616c10.88-2.752 22.528-7.488 34.816-14.336 12.288-7.488 22.528-15.36 30.72-23.872h30.08z m136.96-4.8c23.488 0 42.944 6.848 58.304 20.48 15.04 13.632 22.528 31.04 22.528 52.928 0 21.12-8.192 40.256-23.872 57.664-9.6 10.24-26.624 23.232-50.56 39.232-24.896 16.384-39.936 30.72-45.376 43.008h120.128v35.2H404.224c0-24.96 7.872-46.464 24.32-64.896 8.832-10.24 27.584-25.216 55.936-44.672 15.68-10.944 26.624-20.16 33.408-27.328a57.6 57.6 0 0 0 16.064-38.592c0-13.312-3.776-23.168-10.56-29.696-7.168-6.464-17.792-9.536-31.744-9.536-15.04 0-26.24 5.12-33.792 15.36-7.552 9.6-11.648 24.256-12.288 43.328h-39.936c0.32-27.264 8.192-49.152 23.872-65.856 16-17.728 37.184-26.624 63.488-26.624z m161.216-318.4V256c0 14.592 10.88 26.624 25.088 28.224l3.328 0.192h157.12l-176.64-163.072a28.416 28.416 0 0 0-8.96-5.568z" fill="#ffffff" p-id="10559"></path></svg>