<?xml version="1.0" standalone="no"?><!DOCTYPE svg PUBLIC "-//W3C//DTD SVG 1.1//EN" "http://www.w3.org/Graphics/SVG/1.1/DTD/svg11.dtd"><svg t="1708688288366" class="icon" viewBox="0 0 1024 1024" version="1.1" xmlns="http://www.w3.org/2000/svg" p-id="11710" xmlns:xlink="http://www.w3.org/1999/xlink" width="32" height="32"><path d="M341.0176 267.29472l337.92 0.50688h0.0256a17.92 17.92 0 0 0 0.0256-35.84l-337.91488-0.50688h-0.0256a17.92 17.92 0 0 0-0.03072 35.84z" fill="#ffffff" p-id="11711"></path><path d="M836.61824 231.45472h-62.52032a17.92 17.92 0 1 0 0 35.84h62.52032c5.9136 0 10.73152 4.8384 10.73152 10.78272v90.63936H176.64512V272.69632c0-4.03968 9.03168-5.4016 13.14816-5.4016h60.09856a17.92 17.92 0 1 0 0-35.84H189.7984c-28.84608 0-48.98816 16.95744-48.98816 41.2416v535.59296c0 23.97696 20.1472 40.71936 48.98816 40.71936h646.82496c25.68192 0 46.57152-20.90496 46.57152-46.60224V278.08256c-0.00512-25.71264-20.89472-46.62784-46.57664-46.62784z m0 581.71392H189.7984c-5.30432 0-13.14816-1.55136-13.14816-4.87936V404.56192h670.70464v397.8496a10.76224 10.76224 0 0 1-10.73664 10.75712z" fill="#ffffff" p-id="11712"></path><path d="M295.48032 313.38496a17.92 17.92 0 0 0 17.92-17.92v-102.5536a17.92 17.92 0 1 0-35.84 0v102.5536a17.92 17.92 0 0 0 17.92 17.92zM729.67168 313.38496a17.92 17.92 0 0 0 17.92-17.92v-102.5536a17.92 17.92 0 1 0-35.84 0v102.5536a17.92 17.92 0 0 0 17.92 17.92zM359.90528 465.59232H253.55776a17.92 17.92 0 1 0 0 35.84h106.34752a17.92 17.92 0 1 0 0-35.84zM565.1712 465.59232H458.80832a17.92 17.92 0 1 0 0 35.84h106.36288a17.92 17.92 0 1 0 0-35.84zM770.5088 465.59232h-106.38848a17.92 17.92 0 1 0 0 35.84h106.38848a17.92 17.92 0 1 0 0-35.84zM359.90528 579.59936H253.55776a17.92 17.92 0 1 0 0 35.84h106.34752a17.92 17.92 0 1 0 0-35.84zM565.1712 579.59936H458.80832a17.92 17.92 0 1 0 0 35.84h106.36288a17.92 17.92 0 1 0 0-35.84zM770.5088 579.59936h-106.38848a17.92 17.92 0 1 0 0 35.84h106.38848a17.92 17.92 0 1 0 0-35.84zM359.90528 682.20928H253.55776a17.92 17.92 0 1 0 0 35.84h106.34752a17.92 17.92 0 1 0 0-35.84zM565.1712 682.20928H458.80832a17.92 17.92 0 1 0 0 35.84h106.36288a17.92 17.92 0 1 0 0-35.84zM770.5088 682.20928h-106.38848a17.92 17.92 0 1 0 0 35.84h106.38848a17.92 17.92 0 1 0 0-35.84z" fill="#ffffff" p-id="11713"></path></svg>