<?xml version="1.0" standalone="no"?><!DOCTYPE svg PUBLIC "-//W3C//DTD SVG 1.1//EN" "http://www.w3.org/Graphics/SVG/1.1/DTD/svg11.dtd"><svg t="1708917116223" class="icon" viewBox="0 0 1024 1024" version="1.1" xmlns="http://www.w3.org/2000/svg" p-id="6833" xmlns:xlink="http://www.w3.org/1999/xlink" width="32" height="32"><path d="M512 1024c-281.6 0-512-230.4-512-512s230.4-512 512-512c108.8 0 211.2 32 300.8 96 12.8 12.8 19.2 32 6.4 44.8s-32 19.2-44.8 6.4C697.6 89.6 608 64 512 64 262.4 64 64 262.4 64 512s198.4 448 448 448 448-198.4 448-448c0-76.8-19.2-153.6-57.6-224-6.4-12.8-6.4-32 12.8-44.8 12.8-6.4 32-6.4 44.8 12.8 38.4 76.8 64 166.4 64 256 0 281.6-230.4 512-512 512z" p-id="6834" fill="#ffffff"></path><path d="M729.6 678.4L550.4 300.8c0-6.4-19.2-12.8-38.4-12.8s-32 12.8-38.4 19.2l-179.2 377.6c-6.4 19.2 6.4 38.4 25.6 44.8s44.8 0 51.2-19.2L428.8 576h166.4l57.6 134.4c12.8 19.2 38.4 25.6 51.2 19.2 19.2-12.8 32-32 25.6-51.2zM460.8 518.4L512 403.2l51.2 115.2H460.8z" p-id="6835" fill="#ffffff"></path></svg>