<?xml version="1.0" standalone="no"?><!DOCTYPE svg PUBLIC "-//W3C//DTD SVG 1.1//EN" "http://www.w3.org/Graphics/SVG/1.1/DTD/svg11.dtd"><svg t="1708918568876" class="icon" viewBox="0 0 1024 1024" version="1.1" xmlns="http://www.w3.org/2000/svg" p-id="24595" xmlns:xlink="http://www.w3.org/1999/xlink" width="32" height="32"><path d="M857.84576 380.60032C803.88096 230.44096 660.13184 122.88 491.52 122.88 276.80768 122.88 102.4 297.28768 102.4 512s174.40768 389.12 389.12 389.12c168.61184 0 312.36096-107.56096 366.32576-257.72032l-94.96576 54.84544v-1.78176a351.51872 351.51872 0 0 1-39.7312 47.16544C659.12832 807.69024 581.91872 839.68 491.52 839.68c-90.39872 0-167.60832-32.01024-231.6288-96.0512C195.85024 679.60832 163.84 602.37824 163.84 512s32.01024-167.60832 96.0512-231.6288C323.91168 216.33024 401.12128 184.32 491.52 184.32c90.39872 0 167.60832 32.01024 231.6288 96.0512 14.99136 14.99136 28.24192 30.72 39.7312 47.14496v-1.76128l94.96576 54.84544zM703.11936 614.4l-85.11488-209.83808H574.6688L491.86816 614.4h48.70144l15.48288-42.3936h79.4624l16.01536 42.3936h51.58912z m100.72064-22.56896L942.08 512l-138.24-79.83104V471.04H716.8v81.92h87.04v38.87104z m-341.85216-113.0496c-8.94976-11.0592-20.72576-16.62976-35.28704-16.62976-20.23424 0-35.14368 10.1376-44.72832 30.37184-3.9936-9.9328-9.78944-17.46944-17.34656-22.60992a44.6464 44.6464 0 0 0-25.9072-7.76192c-18.3296 0-32.29696 8.3968-41.86112 25.1904a289.40288 289.40288 0 0 1-2.58048-21.17632H254.1568V614.4h45.568v-69.91872c0-13.02528 1.96608-23.1424 5.87776-30.39232 3.93216-7.29088 9.5232-10.93632 16.7936-10.93632 7.24992 0 12.32896 3.56352 15.27808 10.6496 2.99008 7.0656 4.46464 16.5888 4.46464 28.63104V614.4h45.58848v-69.91872c0-13.02528 1.90464-23.1424 5.7344-30.39232 3.82976-7.29088 9.37984-10.93632 16.65024-10.93632 7.4752 0 12.67712 3.56352 15.62624 10.6496 2.99008 7.0656 4.46464 16.5888 4.46464 28.63104V614.4h45.30176v-87.71584c0-20.84864-4.5056-36.80256-13.5168-47.88224z m133.05856-13.18912l24.90368 65.37216h-48.70144l23.79776-65.37216z" p-id="24596" fill="#ffffff"></path></svg>