<?xml version="1.0" standalone="no"?><!DOCTYPE svg PUBLIC "-//W3C//DTD SVG 1.1//EN" "http://www.w3.org/Graphics/SVG/1.1/DTD/svg11.dtd"><svg t="1708918339607" class="icon" viewBox="0 0 1024 1024" version="1.1" xmlns="http://www.w3.org/2000/svg" p-id="21314" xmlns:xlink="http://www.w3.org/1999/xlink" width="32" height="32"><path d="M433.3568 185.6a16.0768 16.0768 0 0 1 23.808 0 62.6176 62.6176 0 0 0 89.7536 0 22.8864 22.8864 0 1 0-32.3584-32.3072l-0.4096 0.4096a14.848 14.848 0 0 1-11.4688 4.864 17.664 17.664 0 0 1-11.9296-5.12 62.5664 62.5664 0 0 0-89.7024 0 22.8352 22.8352 0 0 0 32.3072 32.3072z" p-id="21315" fill="#ffffff"></path><path d="M428.4416 202.3936a16.0256 16.0256 0 0 1-23.7568 0 63.232 63.232 0 0 0-44.9024-18.944 62.4128 62.4128 0 0 0-44.8512 18.944 22.8864 22.8864 0 0 0 32.3584 32.3584 15.9232 15.9232 0 0 1 23.7568 0 62.6176 62.6176 0 0 0 89.7536 0 22.8864 22.8864 0 1 0-32.3584-32.3584zM258.6112 106.5472a15.9744 15.9744 0 0 1 23.808 0 63.3344 63.3344 0 0 0 44.8512 18.944 62.4128 62.4128 0 0 0 44.8512-18.944 22.8864 22.8864 0 1 0-32.3072-32.3584 16.0768 16.0768 0 0 1-23.808 0 62.6176 62.6176 0 0 0-89.7536 0 22.8864 22.8864 0 1 0 32.3584 32.3584z" p-id="21316" fill="#ffffff"></path><path d="M173.1584 155.648a16.0256 16.0256 0 0 1 23.7568 0 63.232 63.232 0 0 0 44.9024 18.944A64.9216 64.9216 0 0 0 286.72 155.648a22.8864 22.8864 0 1 0-32.3072-32.3584 15.9744 15.9744 0 0 1-23.808 0 63.3856 63.3856 0 0 0-44.8512-18.944 62.4128 62.4128 0 0 0-44.9024 18.944 22.8864 22.8864 0 0 0 32.3584 32.3584zM953.1904 522.24a30.72 30.72 0 0 0-28.416-3.3792l-246.9888 95.0272v-77.568a30.72 30.72 0 0 0-42.496-28.416l-150.784 62.6176-21.248-269.824a30.72 30.72 0 0 0-30.72-28.3136H351.744a30.72 30.72 0 0 0-30.72 27.4432l-27.1872 256.7168-3.8912 1.28-34.3552-285.3376a30.72 30.72 0 0 0-30.72-27.0336H139.264a30.72 30.72 0 0 0-30.72 28.9792l-19.456 348.9792-17.8688 5.8368a30.72 30.72 0 0 0-21.1968 29.184v236.6464a71.68 71.68 0 0 0 71.68 71.68h773.12a71.68 71.68 0 0 0 71.68-71.68v-347.6992a30.72 30.72 0 0 0-13.312-25.1392zM404.48 333.824l20.48 261.4784-41.2672 17.152v-42.8544a30.72 30.72 0 0 0-12.6976-24.832 30.976 30.976 0 0 0-13.3632-5.5296L379.392 333.824z m-236.1856-26.9312h29.5424L230.4 577.28l-78.592 25.6z m736.768 588.1856a10.24 10.24 0 0 1-10.24 10.24h-773.12a10.24 10.24 0 0 1-10.24-10.24V680.96l9.984-3.2768a30.72 30.72 0 0 0 12.6976-4.1472l187.9552-61.44v46.4896a30.72 30.72 0 0 0 42.496 28.3648l251.7504-104.4992v75.9808a30.72 30.72 0 0 0 41.7792 28.672l246.9376-94.976z" p-id="21317" fill="#ffffff"></path><path d="M279.3472 757.76H190.5152a22.9888 22.9888 0 0 0-23.04 23.04v66.56a22.9888 22.9888 0 0 0 23.04 23.04h88.832a23.04 23.04 0 0 0 23.04-23.04v-66.56a23.04 23.04 0 0 0-23.04-23.04z m-23.04 66.56h-42.752v-20.48h42.752zM553.2672 757.76H464.4352a22.9888 22.9888 0 0 0-23.04 23.04v66.56a22.9888 22.9888 0 0 0 23.04 23.04h88.832a23.04 23.04 0 0 0 23.04-23.04v-66.56a23.04 23.04 0 0 0-23.04-23.04z m-23.04 66.56h-42.752v-20.48h42.752zM738.3552 870.4h88.832a23.04 23.04 0 0 0 23.04-23.04v-66.56a23.04 23.04 0 0 0-23.04-23.04h-88.832a22.9888 22.9888 0 0 0-23.04 23.04v66.56a22.9888 22.9888 0 0 0 23.04 23.04z m23.04-66.56h42.752v20.48h-42.752z" p-id="21318" fill="#ffffff"></path></svg>