<?xml version="1.0" standalone="no"?><!DOCTYPE svg PUBLIC "-//W3C//DTD SVG 1.1//EN" "http://www.w3.org/Graphics/SVG/1.1/DTD/svg11.dtd"><svg t="1708688168028" class="icon" viewBox="0 0 1024 1024" version="1.1" xmlns="http://www.w3.org/2000/svg" p-id="8298" xmlns:xlink="http://www.w3.org/1999/xlink" width="32" height="32"><path d="M825.07776 696.51456H614.73792c-16.34304 0-29.63456 13.28128-29.63456 29.61408 0 16.34304 13.29152 29.63456 29.63456 29.63456h210.35008c16.3328 0 29.61408-13.29152 29.61408-29.63456 0-16.3328-13.29152-29.61408-29.62432-29.61408zM825.07776 799.72352H614.73792c-16.34304 0-29.63456 13.28128-29.63456 29.61408 0 16.34304 13.29152 29.62432 29.63456 29.62432h210.35008c16.3328 0 29.61408-13.28128 29.61408-29.62432 0-16.32256-13.29152-29.61408-29.62432-29.61408zM825.07776 593.29536H614.73792c-16.34304 0-29.63456 13.28128-29.63456 29.61408 0 16.34304 13.29152 29.62432 29.63456 29.62432h210.35008c16.3328 0 29.61408-13.28128 29.61408-29.62432 0-16.32256-13.29152-29.61408-29.62432-29.61408zM825.07776 386.8672H614.73792c-16.34304 0-29.63456 13.28128-29.63456 29.61408 0 16.34304 13.29152 29.63456 29.63456 29.63456h210.35008c16.3328 0 29.61408-13.29152 29.61408-29.63456 0-16.32256-13.29152-29.61408-29.62432-29.61408zM825.07776 490.0864H614.73792c-16.34304 0-29.63456 13.28128-29.63456 29.61408 0 16.34304 13.29152 29.62432 29.63456 29.62432h210.35008c16.3328 0 29.61408-13.28128 29.61408-29.62432 0-16.3328-13.29152-29.61408-29.62432-29.61408zM825.07776 180.43904H614.73792c-16.34304 0-29.63456 13.28128-29.63456 29.61408 0 16.34304 13.29152 29.62432 29.63456 29.62432h210.35008c16.3328 0 29.61408-13.28128 29.61408-29.62432 0-16.32256-13.29152-29.61408-29.62432-29.61408zM825.07776 283.65824H614.73792c-16.34304 0-29.63456 13.28128-29.63456 29.61408 0 16.34304 13.29152 29.63456 29.63456 29.63456h210.35008c16.3328 0 29.61408-13.29152 29.61408-29.63456 0-16.3328-13.29152-29.61408-29.62432-29.61408z" fill="#ffffff" p-id="8299"></path><path d="M976.62976 950.5792h-8.16128V177.2544c0-88.29952-71.8336-160.13312-160.11264-160.13312H513.86368l-0.9728 0.02048c-1.90464 0.06144-3.79904 0.27648-5.64224 0.64512-1.00352 0.19456-1.95584 0.48128-2.90816 0.78848l-0.6656 0.2048c-0.9216 0.256-1.83296 0.54272-2.79552 0.94208-1.2288 0.512-2.37568 1.13664-3.65568 1.87392-0.67584 0.33792-1.32096 0.69632-2.17088 1.2288a33.36192 33.36192 0 0 0-5.2224 4.3008l-81.53088 81.53088c-32.13312 32.12288-51.07712 73.91232-54.12864 118.82496H219.37152c-41.90208 0-75.9808 34.08896-75.9808 75.99104V606.1056h-29.184c-41.90208 0-75.99104 34.08896-75.99104 75.99104v270.5408c-12.6976 4.34176-21.02272 15.17568-21.02272 28.8768 0 17.92 14.26432 30.93504 33.90464 30.93504h925.5424c19.6608 0 33.92512-13.01504 33.92512-30.93504s-14.27456-30.93504-33.93536-30.93504zM384.21504 295.31136V606.1056h-49.73568V295.31136h49.73568z m-172.99456 8.15104c0-4.49536 3.65568-8.15104 8.15104-8.15104h61.81888V606.1056h-69.96992V303.4624z m32.83968 513.4336h66.9696V950.5792h-66.9696V816.896zM479.9488 950.5792H370.26816V787.27168c0-16.3328-13.28128-29.61408-29.62432-29.61408H214.4256c-16.32256 0-29.61408 13.28128-29.61408 29.61408V950.5792h-78.77632V682.10688c0-4.49536 3.66592-8.16128 8.16128-8.16128H479.9488V950.5792z m0-344.4736h-42.45504V295.31136h42.45504V606.1056z m0-378.624h-57.68192c2.87744-26.75712 14.6944-51.5584 33.98656-70.8608l23.69536-23.69536v94.55616zM900.6592 950.5792h-352.8704V84.96128h260.56704c50.8928 0 92.30336 41.41056 92.30336 92.30336V950.5792z" fill="#ffffff" p-id="8300"></path></svg>