<?xml version="1.0" standalone="no"?><!DOCTYPE svg PUBLIC "-//W3C//DTD SVG 1.1//EN" "http://www.w3.org/Graphics/SVG/1.1/DTD/svg11.dtd"><svg t="1708688215327" class="icon" viewBox="0 0 1024 1024" version="1.1" xmlns="http://www.w3.org/2000/svg" p-id="9325" xmlns:xlink="http://www.w3.org/1999/xlink" width="32" height="32"><path d="M908.2368 269.7216A23.8592 23.8592 0 0 0 901.12 263.168l-349.184-197.7856a83.2512 83.2512 0 0 0-81.152 0L126.0032 259.6352l-3.7376 3.2256A38.5536 38.5536 0 0 0 107.52 291.1744v407.3472a83.0464 83.0464 0 0 0 41.7792 72.1408l344.6272 193.6384a38.1952 38.1952 0 0 0 18.4832 4.864 35.84 35.84 0 0 0 17.152-4.8128l344.7808-193.6896a82.9952 82.9952 0 0 0 42.1376-72.0896V290.56a36.352 36.352 0 0 0-8.2432-20.8384zM475.136 541.44v327.68L185.8048 706.56a9.1648 9.1648 0 0 1-4.6592-7.9872V357.6832z m331.52-248.576L512 477.5424 217.344 292.864 506.88 129.024a9.216 9.216 0 0 1 9.3184 0z m36.1472 65.536v340.4288a9.1648 9.1648 0 0 1-4.6592 7.9872l-289.3312 162.7136v-327.68z" fill="#ffffff" p-id="9326"></path><path d="M230.4 556.9024l163.84 94.5152a31.5392 31.5392 0 0 0 46.08-35.4816 31.7952 31.7952 0 0 0-14.7456-19.2L262.144 502.3744a31.488 31.488 0 1 0-31.744 54.528z" fill="#ffffff" p-id="9327"></path></svg>