<?xml version="1.0" standalone="no"?><!DOCTYPE svg PUBLIC "-//W3C//DTD SVG 1.1//EN" "http://www.w3.org/Graphics/SVG/1.1/DTD/svg11.dtd"><svg t="1715785678965" class="icon" viewBox="0 0 1024 1024" version="1.1" xmlns="http://www.w3.org/2000/svg" p-id="4243" width="32" height="32" xmlns:xlink="http://www.w3.org/1999/xlink"><path d="M496 993.984c-220.928 0-400-179.104-400-400 0-170.08 106.336-315.008 256-372.832l0 142.368c-76.768 48.096-128 133.184-128 230.464 0 150.208 121.792 272 272 272s272-121.792 272-272c0-83.072-37.312-157.28-96-207.2l0-151.552c132.576 65.152 224 201.088 224 358.784 0 220.896-179.104 399.968-400 399.968zM512 545.984c-35.328 0-64-28.672-64-64l0-355.968c0-35.328 28.672-64 64-64s64 28.672 64 64l0 356c0 35.328-28.672 63.968-64 63.968z" fill="#ffffff" p-id="4244"></path></svg>