<?xml version="1.0" standalone="no"?><!DOCTYPE svg PUBLIC "-//W3C//DTD SVG 1.1//EN" "http://www.w3.org/Graphics/SVG/1.1/DTD/svg11.dtd"><svg t="1709782617778" class="icon" viewBox="0 0 1024 1024" version="1.1" xmlns="http://www.w3.org/2000/svg" p-id="32413" xmlns:xlink="http://www.w3.org/1999/xlink" width="32" height="32"><path d="M747.799 928.653l121.305-322.405H661.298L954.95 202.332 822.448 521.843H1024l-276.201 406.81z" p-id="32414"></path><path d="M524.293 246.666h-71.074V38.518c0-21.235-17.275-38.512-38.511-38.512-21.236 0-38.513 17.276-38.513 38.512v208.147H207.859V38.518c0-21.235-17.277-38.512-38.512-38.512-21.236 0-38.513 17.276-38.513 38.512v208.147H59.76C26.809 246.666 0 273.474 0 306.426v87.1c0 32.952 26.809 59.761 59.76 59.761h11.961v170.368l98.646 106.604 35.836 114.285h35.429v179.45h100.716v-179.45h35.504l35.836-114.285 98.646-106.604V453.287h11.959c32.953 0 59.762-26.809 59.762-59.761v-87.1c0-32.952-26.809-59.76-59.762-59.76zM332.717 783.09h-81.38l-11.884-37.896H344.6l-11.883 37.896z m118.162-183.507l-77.873 84.156H211.048l-77.873-84.156V453.287h317.704v146.296z m71.723-207.75H61.454V308.12h461.148v83.713z" p-id="32415" ></path></svg>