<?xml version="1.0" standalone="no"?><!DOCTYPE svg PUBLIC "-//W3C//DTD SVG 1.1//EN" "http://www.w3.org/Graphics/SVG/1.1/DTD/svg11.dtd"><svg t="1709782791637" class="icon" viewBox="0 0 1024 1024" version="1.1" xmlns="http://www.w3.org/2000/svg" p-id="34605" xmlns:xlink="http://www.w3.org/1999/xlink" width="32" height="32"><path d="M538.947368 862.315789H247.915789c-37.726316 0-64.673684-26.947368-64.673684-64.673684V226.357895C183.242105 188.631579 215.578947 161.684211 247.915789 161.684211h512c37.726316 0 64.673684 26.947368 64.673685 64.673684V485.052632c0 16.168421 16.168421 32.336842 32.336842 32.336842s32.336842-16.168421 32.336842-32.336842V226.357895c0-70.063158-59.284211-129.347368-129.347369-129.347369H247.915789c-70.063158 0-129.347368 59.284211-129.347368 129.347369v576.673684c0 70.063158 59.284211 129.347368 129.347368 129.347368H538.947368c16.168421 0 32.336842-16.168421 32.336843-32.336842 0-21.557895-16.168421-37.726316-32.336843-37.726316z" p-id="34606" fill="#ffffff"></path><path d="M317.978947 749.136842l75.452632-247.915789H317.978947L404.210526 269.473684H592.842105L528.168421 441.936842h91.621053l-301.810527 307.2zM377.263158 463.494737h75.452631L409.6 592.842105l107.789474-113.178947h-53.894737l70.063158-167.073684H436.547368L377.263158 463.494737zM883.873684 754.526316c-16.168421 5.389474-37.726316 16.168421-43.115789 32.336842-10.778947 16.168421-10.778947 37.726316-5.389474 53.894737-16.168421 16.168421-32.336842 26.947368-53.894737 32.336842-10.778947-16.168421-32.336842-21.557895-48.505263-21.557895-21.557895 0-37.726316 10.778947-48.505263 21.557895-21.557895-5.389474-37.726316-16.168421-53.894737-32.336842 5.389474-16.168421 5.389474-37.726316-5.389474-53.894737-10.778947-16.168421-26.947368-26.947368-43.115789-32.336842-5.389474-21.557895-5.389474-43.115789 0-64.673684 16.168421-5.389474 37.726316-16.168421 43.115789-32.336843 10.778947-16.168421 10.778947-37.726316 5.389474-53.894736 16.168421-16.168421 32.336842-26.947368 53.894737-32.336842 10.778947 16.168421 32.336842 21.557895 48.505263 21.557894 21.557895 0 37.726316-10.778947 48.505263-21.557894 21.557895 5.389474 37.726316 16.168421 53.894737 32.336842-5.389474 16.168421-5.389474 37.726316 5.389474 53.894736 10.778947 16.168421 26.947368 26.947368 43.115789 32.336843 5.389474 21.557895 5.389474 43.115789 0 64.673684m26.947369-86.231579c0-5.389474-10.778947-10.778947-16.168421-10.778948-10.778947 0-21.557895-5.389474-26.947369-16.168421-5.389474-10.778947-5.389474-21.557895 0-32.336842 5.389474-5.389474 5.389474-16.168421 0-21.557894-21.557895-26.947368-53.894737-43.115789-86.231579-48.505264-5.389474 0-16.168421 0-16.168421 10.778948-5.389474 10.778947-16.168421 16.168421-26.947368 16.168421s-21.557895-5.389474-26.947369-16.168421c-10.778947-5.389474-16.168421-10.778947-26.947368-10.778948-32.336842 10.778947-64.673684 26.947368-86.231579 48.505264-5.389474 5.389474-5.389474 10.778947 0 21.557894s5.389474 21.557895 0 32.336842c-5.389474 10.778947-16.168421 16.168421-26.947368 16.168421-5.389474 0-16.168421 5.389474-16.168422 10.778948-5.389474 16.168421-5.389474 32.336842-5.389473 48.505263 0 16.168421 0 32.336842 5.389473 48.505263 0 5.389474 10.778947 10.778947 16.168422 10.778948 10.778947 0 21.557895 5.389474 26.947368 16.168421 5.389474 10.778947 5.389474 21.557895 0 32.336842-5.389474 5.389474-5.389474 16.168421 0 21.557894 21.557895 26.947368 53.894737 43.115789 86.231579 48.505264 5.389474 0 16.168421 0 16.168421-10.778948 5.389474-10.778947 16.168421-16.168421 26.947368-16.168421s21.557895 5.389474 26.947369 16.168421c5.389474 5.389474 10.778947 10.778947 16.168421 10.778948 32.336842-10.778947 64.673684-26.947368 86.231579-48.505264 5.389474-5.389474 5.389474-10.778947 0-21.557894s-5.389474-21.557895 0-32.336842c5.389474-10.778947 16.168421-16.168421 26.947368-16.168421 5.389474 0 16.168421-5.389474 16.168421-10.778948 16.168421-10.778947 16.168421-26.947368 16.168421-43.115789 0-16.168421 0-37.726316-5.389473-53.894737" p-id="34607" fill="#ffffff"></path><path d="M770.694737 910.821053c-10.778947 0-16.168421-5.389474-21.557895-10.778948-5.389474-5.389474-10.778947-10.778947-21.557895-10.778947s-16.168421 5.389474-21.557894 10.778947c-5.389474 10.778947-16.168421 16.168421-26.947369 10.778948-37.726316-10.778947-64.673684-26.947368-91.621052-53.894737-5.389474-5.389474-10.778947-21.557895-5.389474-26.947369 5.389474-5.389474 5.389474-16.168421 0-21.557894-5.389474-5.389474-10.778947-10.778947-21.557895-10.778948s-21.557895-5.389474-26.947368-16.168421c5.389474-26.947368 5.389474-43.115789 5.389473-59.28421 0-16.168421 0-37.726316 5.389474-53.894737 5.389474-10.778947 10.778947-16.168421 26.947369-16.168421 10.778947 0 16.168421-5.389474 21.557894-10.778948 5.389474-5.389474 5.389474-16.168421 0-21.557894-5.389474-10.778947-5.389474-21.557895 0-26.947369 26.947368-26.947368 59.284211-43.115789 91.621053-53.894737 10.778947 0 21.557895 0 26.947368 10.778948 5.389474 5.389474 10.778947 10.778947 21.557895 10.778947s16.168421-5.389474 21.557895-10.778947c5.389474-10.778947 16.168421-16.168421 26.947368-10.778948 37.726316 10.778947 64.673684 26.947368 91.621053 53.894737 5.389474 5.389474 10.778947 21.557895 5.389474 26.947369-5.389474 5.389474-5.389474 16.168421 0 21.557894 5.389474 5.389474 10.778947 10.778947 21.557894 10.778948s21.557895 5.389474 26.947369 16.168421c5.389474 16.168421 5.389474 32.336842 5.389473 53.894737 0 16.168421 0 37.726316-5.389473 53.894737-5.389474 10.778947-10.778947 16.168421-21.557895 16.168421s-16.168421 5.389474-21.557895 10.778947c-5.389474 5.389474-5.389474 16.168421 0 21.557895 5.389474 10.778947 5.389474 21.557895 0 26.947368-26.947368 26.947368-59.284211 43.115789-91.621052 53.894737-16.168421 5.389474-16.168421 5.389474-21.557895 5.389474z m-37.726316-43.11579c16.168421 0 26.947368 10.778947 37.726316 21.557895 0 5.389474 5.389474 5.389474 10.778947 5.389474 32.336842-5.389474 59.284211-26.947368 86.231579-48.505264 0 0 5.389474-5.389474 0-10.778947-10.778947-10.778947-10.778947-26.947368 0-43.115789 5.389474-10.778947 21.557895-21.557895 37.726316-21.557895 5.389474 0 5.389474 0 5.389474-5.389474 5.389474-16.168421 5.389474-32.336842 5.389473-48.505263 0-16.168421 0-32.336842-5.389473-48.505263 0-5.389474-5.389474-5.389474-5.389474-5.389474-16.168421 0-26.947368-5.389474-37.726316-21.557895-5.389474-10.778947-5.389474-26.947368 0-43.115789v-10.778947c-21.557895-21.557895-53.894737-43.115789-86.231579-48.505264-5.389474 0-5.389474 0-10.778947 5.389474-5.389474 10.778947-21.557895 21.557895-32.336842 21.557895-16.168421 0-26.947368-10.778947-32.336842-21.557895 0-5.389474-5.389474-5.389474-10.778948-5.389474-32.336842 10.778947-59.284211 26.947368-86.231579 48.505264 0 0-5.389474 5.389474 0 10.778947 10.778947 10.778947 10.778947 26.947368 0 43.115789-5.389474 10.778947-21.557895 21.557895-37.726315 21.557895-5.389474 0-5.389474 0-5.389474 5.389474-5.389474 16.168421-5.389474 32.336842-5.389474 48.505263s0 32.336842 5.389474 48.505263c0 5.389474 5.389474 5.389474 5.389474 5.389474 16.168421 0 26.947368 5.389474 37.726315 21.557895 5.389474 10.778947 5.389474 26.947368 0 43.115789v10.778947c21.557895 21.557895 53.894737 43.115789 86.231579 48.505264 5.389474 0 5.389474 0 10.778948-5.389474-5.389474-10.778947 10.778947-21.557895 26.947368-21.557895z m43.11579 10.778948c-16.168421-16.168421-26.947368-26.947368-43.11579-26.947369-16.168421 0-32.336842 5.389474-43.115789 21.557895l-5.389474 5.389474h-5.389474c-21.557895-5.389474-43.115789-16.168421-59.28421-32.336843l-5.389474-5.389473v-5.389474c5.389474-16.168421 5.389474-32.336842-5.389474-48.505263-10.778947-16.168421-21.557895-21.557895-37.726315-26.947369h-5.389474V754.526316c-5.389474-21.557895-5.389474-43.115789 0-64.673684v-5.389474h5.389474c16.168421 0 32.336842-10.778947 37.726315-26.947369 10.778947-16.168421 10.778947-32.336842 5.389474-48.505263v-5.389473l5.389474-5.389474c16.168421-16.168421 37.726316-26.947368 59.28421-32.336842h5.389474l5.389474 5.389474c10.778947 10.778947 26.947368 21.557895 43.115789 21.557894 16.168421 0 32.336842-5.389474 43.11579-21.557894l5.389473-5.389474h5.389474c21.557895 5.389474 43.115789 16.168421 59.28421 32.336842l5.389474 5.389474v5.389473c-5.389474 16.168421-5.389474 32.336842 5.389474 48.505263 10.778947 16.168421 21.557895 21.557895 37.726316 26.947369h5.389473v5.389474c5.389474 21.557895 5.389474 43.115789 0 64.673684v5.389473h-5.389473c-16.168421 0-32.336842 10.778947-37.726316 26.947369-10.778947 16.168421-10.778947 32.336842-5.389474 48.505263v5.389474l-5.389474 5.389473c-21.557895 10.778947-43.115789 21.557895-70.063157 32.336843z m-140.126316-43.11579c10.778947 10.778947 26.947368 21.557895 43.115789 26.947368 10.778947-16.168421 32.336842-21.557895 48.505263-21.557894 21.557895 0 37.726316 5.389474 48.505264 21.557894 16.168421-5.389474 32.336842-16.168421 43.115789-26.947368-5.389474-16.168421-5.389474-37.726316 5.389474-53.894737 10.778947-16.168421 26.947368-26.947368 43.115789-32.336842 5.389474-16.168421 5.389474-32.336842 0-48.505263-21.557895-5.389474-32.336842-16.168421-43.115789-32.336842-10.778947-16.168421-10.778947-37.726316-5.389474-53.894737-10.778947-10.778947-26.947368-21.557895-43.115789-26.947368-10.778947 16.168421-32.336842 21.557895-48.505264 21.557894-21.557895 0-37.726316-5.389474-48.505263-21.557894-16.168421 5.389474-32.336842 16.168421-43.115789 26.947368 5.389474 16.168421 5.389474 37.726316-5.389474 53.894737-10.778947 16.168421-26.947368 26.947368-43.115789 32.336842-5.389474 16.168421-5.389474 32.336842 0 48.505263 21.557895 5.389474 32.336842 16.168421 43.115789 32.336842 10.778947 16.168421 10.778947 32.336842 5.389474 53.894737z" p-id="34608" fill="#ffffff"></path><path d="M732.968421 765.305263c-26.947368 0-48.505263-21.557895-48.505263-48.505263s21.557895-48.505263 48.505263-48.505263 48.505263 21.557895 48.505263 48.505263c-5.389474 32.336842-26.947368 48.505263-48.505263 48.505263m0-123.957895c-43.115789 0-75.452632 32.336842-75.452632 75.452632 0 43.115789 32.336842 75.452632 75.452632 75.452632 43.115789 0 75.452632-32.336842 75.452632-75.452632 0-37.726316-32.336842-75.452632-75.452632-75.452632" p-id="34609" fill="#ffffff"></path><path d="M732.968421 808.421053c-48.505263 0-86.231579-37.726316-86.231579-86.231579s37.726316-86.231579 86.231579-86.231579c48.505263 0 86.231579 37.726316 86.231579 86.231579 0 48.505263-37.726316 86.231579-86.231579 86.231579z m0-156.294737c-37.726316 0-70.063158 32.336842-70.063158 70.063158s32.336842 70.063158 70.063158 70.063158 70.063158-32.336842 70.063158-70.063158-32.336842-70.063158-70.063158-70.063158z m0 123.957895c-32.336842 0-53.894737-26.947368-53.894737-53.894737s26.947368-53.894737 53.894737-53.894737 53.894737 26.947368 53.894737 53.894737-26.947368 53.894737-53.894737 53.894737z m0-91.621053c-21.557895 0-37.726316 16.168421-37.726316 37.726316 0 21.557895 16.168421 37.726316 37.726316 37.726315s37.726316-16.168421 37.726316-37.726315c0-21.557895-16.168421-37.726316-37.726316-37.726316z" p-id="34610" fill="#ffffff"></path></svg>