<?xml version="1.0" standalone="no"?><!DOCTYPE svg PUBLIC "-//W3C//DTD SVG 1.1//EN" "http://www.w3.org/Graphics/SVG/1.1/DTD/svg11.dtd"><svg t="1708688339418" class="icon" viewBox="0 0 1024 1024" version="1.1" xmlns="http://www.w3.org/2000/svg" p-id="12765" xmlns:xlink="http://www.w3.org/1999/xlink" width="32" height="32"><path d="M53 0h102.4v1021.44H53V0z m204.29 0h102.4v680.96h-102.4V0z m204.29 0h102.4v680.96h-102.4V0z m272.38 0h102.4v680.96h-102.4V0z m136.19 0h102.4v680.96h-102.4V0zM189.19 0h34.3v1021.44h-34.3V0z m204.29 0h33.79v680.96h-34.3V0h0.51z m204.29 0h34.3v680.96h-34.3V0z m68.09 0h34.3v680.96h-34.3V0zM315.14 1023.49V802.3c-18.94 10.75-25.09 14.34-45.57 21.5v-60.93c7.68-1.54 10.75-1.54 14.34-3.07 26.62-8.19 35.84-28.16 39.94-36.86h55.3V1024h-64v-0.51z m354.31-156.67c-6.14 7.68-11.78 13.31-26.62 26.11l-24.58 23.04c-26.11 24.06-30.72 30.21-36.86 50.18H684.3v57.34H505.1v-24.58c0-33.28 8.7-58.37 31.23-82.94 15.87-17.41 34.3-32.77 51.71-49.15 25.09-23.04 30.21-29.18 30.21-49.66v-22.02c0-6.14 0-27.65-23.04-27.14-15.36 0-20.99 8.7-23.04 15.36-1.02 2.56-1.54 6.14-1.54 12.29v41.98h-62.46v-38.91c0-22.53 1.02-42.5 18.94-59.9 11.78-11.26 32.77-22.02 70.14-22.02 34.82 0 54.78 10.75 66.56 20.48 3.07 2.56 11.78 10.24 16.38 21.5 4.1 9.22 5.12 19.46 5.12 40.45 0.01 25.6 1.03 46.08-15.86 67.59z m280.06 136.19c-14.34 13.82-34.3 20.48-74.24 20.48-28.16 0-67.58-3.07-81.41-34.3-5.12-11.26-5.63-26.62-5.63-38.91v-36.35h66.56v31.74c0 6.66-1.54 28.67 23.04 28.67 5.12 0 18.94-1.02 22.02-16.38 1.54-5.12 1.54-19.46 1.54-24.58 0-4.61 0-27.14-1.54-31.74-3.58-15.87-20.48-14.34-24.06-13.82h-28.16v-52.74c9.73 0 19.46 0 29.18-0.51 6.66-0.51 14.85-1.54 19.46-6.14 4.1-4.1 4.61-10.75 4.61-21.5 0-5.63-0.51-11.26-0.51-16.38-1.02-17.92-3.07-29.18-24.06-29.18-3.07 0-18.43 0-22.02 13.82-1.02 3.58-1.02 6.66-1.02 10.24v25.09h-62.46v-29.18c0-14.85 1.02-20.48 3.58-27.65 7.68-23.04 31.74-41.98 81.41-41.98 7.17 0 14.85 0.51 22.02 1.54 38.4 4.61 55.3 21.5 61.95 37.89 4.1 11.26 4.61 22.02 4.61 46.08 0 21.5-1.54 29.18-7.68 39.42-5.12 8.19-10.75 13.31-26.11 23.04 6.14 2.05 26.11 8.7 32.77 29.18 4.1 10.75 3.07 23.04 3.07 46.59-0.02 37.35-2.07 52.71-16.92 67.56z" p-id="12766" fill="#ffffff"></path></svg>