<?xml version="1.0" standalone="no"?><!DOCTYPE svg PUBLIC "-//W3C//DTD SVG 1.1//EN" "http://www.w3.org/Graphics/SVG/1.1/DTD/svg11.dtd"><svg t="1708917724759" class="icon" viewBox="0 0 1024 1024" version="1.1" xmlns="http://www.w3.org/2000/svg" p-id="17153" xmlns:xlink="http://www.w3.org/1999/xlink" width="32" height="32"><path d="M844.3 218.9h-172c-9.4 0-17-7.6-17-17s7.6-17 17-17h172c9.4 0 17 7.6 17 17s-7.6 17-17 17zM844.3 474.9h-172c-9.4 0-17-7.6-17-17s7.6-17 17-17h172c9.4 0 17 7.6 17 17s-7.6 17-17 17zM758.3 346.9h-86c-9.4 0-17-7.6-17-17s7.6-17 17-17h86c9.4 0 17 7.6 17 17s-7.6 17-17 17zM411.4 997.4c-2.7 0-5.4 0-8.1-0.1-65.3-2-127-28.4-173.9-74.4-46.8-46-74.3-107.3-77.4-172.5-2-42.6 6-83.6 23.8-121.8 15.7-33.8 39-64.3 67.5-88.5V204.8c0-92.6 75.3-167.9 167.9-167.9h0.2c92.6 0 167.9 75.3 167.9 167.9V540c58.3 49.5 91.5 121.1 91.5 197.8 0 35.7-7.1 70.3-21.2 102.9-13.6 31.4-33 59.5-57.6 83.4-24.6 23.9-53.2 42.4-85 55-30.5 12.2-62.6 18.3-95.6 18.3z m-0.2-926.5c-73.8 0-133.9 60.1-133.9 133.9v351.5l-6.4 5.1c-27.3 21.8-49.5 50-64.2 81.5-15.4 33.2-22.4 68.8-20.7 105.9 2.7 56.6 26.5 109.9 67.2 149.9s94.3 62.9 151 64.7c2.3 0.1 4.7 0.1 7 0.1 59 0 114.5-22.5 157-63.7 44.2-42.9 68.5-100.3 68.5-161.9 0-69.1-31-133.4-85.1-176.5l-6.4-5.1V204.8c0-73.8-60.1-133.9-133.9-133.9h-0.1z" fill="#ffffff" p-id="17154"></path><path d="M410.3 870.9c-74.4 0-135-60.6-135-135s60.6-135 135-135 135 60.6 135 135-60.6 135-135 135z m0-236c-55.7 0-101 45.3-101 101s45.3 101 101 101 101-45.3 101-101-45.3-101-101-101z" fill="#ffffff" p-id="17155"></path><path d="M410.3 634.9c-9.4 0-17-7.6-17-17v-312c0-9.4 7.6-17 17-17s17 7.6 17 17v312c0 9.4-7.6 17-17 17z" fill="#ffffff" p-id="17156"></path></svg>