<?xml version="1.0" standalone="no"?><!DOCTYPE svg PUBLIC "-//W3C//DTD SVG 1.1//EN" "http://www.w3.org/Graphics/SVG/1.1/DTD/svg11.dtd"><svg t="1708917035733" class="icon" viewBox="0 0 1024 1024" version="1.1" xmlns="http://www.w3.org/2000/svg" p-id="4681" xmlns:xlink="http://www.w3.org/1999/xlink" width="32" height="32"><path d="M842.83392 344.63744C780.20608 213.56544 646.3488 122.88 491.52 122.88 276.80768 122.88 102.4 297.28768 102.4 512s174.40768 389.12 389.12 389.12c154.8288 0 288.68608-90.68544 351.31392-221.75744l-52.61312-30.35136c-15.83104 34.2016-38.1952 65.7408-67.072 94.6176C659.12832 807.69024 581.91872 839.68 491.52 839.68c-90.39872 0-167.60832-32.01024-231.6288-96.0512C195.85024 679.60832 163.84 602.37824 163.84 512s32.01024-167.60832 96.0512-231.6288C323.91168 216.33024 401.12128 184.32 491.52 184.32c90.39872 0 167.60832 32.01024 231.6288 96.0512 28.8768 28.8768 51.24096 60.416 67.072 94.6176l52.6336-30.35136z m-483.96288-26.97216l-63.52896 33.21856 18.98496 36.29056 63.52896-33.21856a70.57408 70.57408 0 0 1 46.94016-6.71744 70.98368 70.98368 0 0 1 40.7552 24.2688c8.33536 10.01472 18.08384 18.30912 29.2864 24.8832 10.8544 6.41024 22.50752 10.8544 34.89792 13.312 12.41088 2.49856 24.86272 2.8672 37.35552 1.14688a110.73536 110.73536 0 0 0 36.59776-11.71456l63.52896-33.1776-18.96448-36.31104-63.54944 33.1776a70.73792 70.73792 0 0 1-46.91968 6.73792 70.53312 70.53312 0 0 1-22.20032-8.47872 70.22592 70.22592 0 0 1-18.55488-15.7696 111.34976 111.34976 0 0 0-29.2864-24.90368 111.06304 111.06304 0 0 0-34.9184-13.312 111.616 111.616 0 0 0-73.95328 10.56768zM855.04 591.83104L716.8 512l138.24-79.83104V471.04H942.08v81.92h-87.04v38.87104zM655.36 450.56H307.2v40.96h348.16v-40.96z m-161.09568 248.40192l-58.63424-160.5632h-63.83616L469.07392 778.24h47.5136l94.72-239.8208h-60.6208l-56.4224 160.54272z" p-id="4682" fill="#ffffff"></path></svg>