<?xml version="1.0" standalone="no"?><!DOCTYPE svg PUBLIC "-//W3C//DTD SVG 1.1//EN" "http://www.w3.org/Graphics/SVG/1.1/DTD/svg11.dtd"><svg t="1708918534045" class="icon" viewBox="0 0 1024 1024" version="1.1" xmlns="http://www.w3.org/2000/svg" p-id="23481" xmlns:xlink="http://www.w3.org/1999/xlink" width="32" height="32"><path d="M512 992C248 992 32 776 32 512S248 32 512 32c56 0 112 12 168 28 20 8 32 32 24 52s-32 32-52 24C608 120 560 112 512 112 292 112 112 292 112 512S292 912 512 912 912 732 912 512c0-72-20-140-56-200-12-20-4-44 16-56s44-4 56 16c40 72 64 156 64 240 0 264-216 480-480 480z" fill="#ffffff" p-id="23482"></path><path d="M512 756c-16 0-28-8-36-24L312 388c-8-20 0-44 20-52s44 0 52 20l128 272L640 352c8-20 32-28 52-20s28 32 20 52l-164 344c-8 20-20 28-36 28z" fill="#ffffff" p-id="23483"></path></svg>