<?xml version="1.0" standalone="no"?><!DOCTYPE svg PUBLIC "-//W3C//DTD SVG 1.1//EN" "http://www.w3.org/Graphics/SVG/1.1/DTD/svg11.dtd"><svg t="1715435401519" class="icon" viewBox="0 0 1184 1024" version="1.1" xmlns="http://www.w3.org/2000/svg" p-id="4338" width="37" height="32" xmlns:xlink="http://www.w3.org/1999/xlink"><path d="M585.152 870.272q-11.424 0-53.152-42.016t-41.728-53.44q0-18.272 35.712-30.848t59.136-12.576 59.136 12.576 35.712 30.848q0 11.424-41.728 53.44t-53.152 42.016zM739.424 715.424q-1.152 0-22.848-14.272t-58.016-28.576-73.44-14.272-73.44 14.272-57.728 28.576-23.136 14.272q-10.272 0-53.44-42.848t-43.136-53.152q0-7.424 5.728-13.152 44.576-44 112-69.152t133.152-25.152 133.152 25.152 112 69.152q5.728 5.728 5.728 13.152 0 10.272-43.136 53.152t-53.44 42.848zM895.424 560q-6.272 0-13.152-4.576-77.728-60-144-88.288t-153.152-28.288q-48.576 0-97.44 12.576t-85.152 30.272-64.864 35.424-45.152 30.272-17.728 12.576q-9.728 0-52.576-42.848t-42.848-53.152q0-6.848 5.728-12.576 75.424-75.424 182.848-117.152t217.152-41.728 217.152 41.728 182.848 117.152q5.728 5.728 5.728 12.576 0 10.272-42.848 53.152t-52.576 42.848zM1050.272 405.152q-6.272 0-12.576-5.152-102.272-89.728-212.288-135.136t-240.288-45.44-240.288 45.44-212.288 135.136q-6.272 5.152-12.576 5.152-9.728 0-52.864-42.848t-43.136-53.152q0-7.424 5.728-13.152 106.848-106.272 254.272-164.576t301.152-58.272 301.152 58.272 254.272 164.576q5.728 5.728 5.728 13.152 0 10.272-43.136 53.152t-52.864 42.848z" p-id="4339" fill="#ffffff"></path></svg>