<?xml version="1.0" standalone="no"?><!DOCTYPE svg PUBLIC "-//W3C//DTD SVG 1.1//EN" "http://www.w3.org/Graphics/SVG/1.1/DTD/svg11.dtd"><svg t="1709792629281" class="icon" viewBox="0 0 1288 1024" version="1.1" xmlns="http://www.w3.org/2000/svg" p-id="35872" xmlns:xlink="http://www.w3.org/1999/xlink" width="40.25" height="32"><path d="M1261.766194 699.292903c-3.072-16.185806-13.01471-26.657032-25.699097-26.657032h-2.180129a62.497032 62.497032 0 0 1-62.430968-62.430968c0-10.900645 5.186065-23.25471 5.41729-23.684129a33.758968 33.758968 0 0 0-11.330064-40.794839l-64.512-35.939096-0.990968-0.42942c-12.882581-5.615484-30.554839-1.981935-40.23329 8.026839-6.936774 7.168-30.984258 27.681032-49.284129 27.681032-18.498065 0-42.677677-20.942452-49.614452-28.209548a37.722839 37.722839 0 0 0-40.134193-8.258065l-66.923355 36.56671-0.990968 0.660645c-12.783484 8.91871-17.738323 26.491871-11.462194 40.695742 0.231226 0.561548 5.41729 12.783484 5.417291 23.783226a62.497032 62.497032 0 0 1-62.430968 62.430968h-2.642581c-12.321032 0-22.23071 10.471226-25.335742 26.690064-0.231226 1.090065-5.384258 28.539871-5.384258 50.473291s5.153032 49.383226 5.384258 50.506322c3.105032 16.185806 13.01471 26.657032 25.699097 26.657032h2.213161c34.353548 0 62.397935 28.011355 62.397936 62.430968 0 10.900645-5.186065 23.25471-5.41729 23.783226a33.692903 33.692903 0 0 0 11.363096 40.695742l63.256775 35.476645 0.990967 0.462452c13.146839 5.714581 30.786065 1.981935 40.36542-8.489291 8.819613-9.579355 32.867097-29.431742 50.374193-29.431742 19.092645 0 43.668645 22.131613 50.704516 29.960258 6.507355 7.168 16.549161 11.495226 26.789162 11.495226 4.855742 0 9.381161-0.990968 13.477161-2.774709l65.569032-36.170323 0.990968-0.660645c12.816516-8.91871 17.771355-26.425806 11.363097-40.66271-0.231226-0.561548-5.384258-12.783484-5.384258-23.816258 0-34.386581 27.978323-62.397935 62.397935-62.397935h2.510452c12.354065 0 22.296774-10.471226 25.368774-26.690065 0.231226-1.090065 5.41729-28.539871 5.41729-50.47329 0.330323-21.933419-4.855742-49.284129-5.086967-50.506323z m-253.786839 142.005678a91.895742 91.895742 0 0 1-91.829678-91.730581 91.994839 91.994839 0 0 1 91.829678-91.829677 91.994839 91.994839 0 0 1 91.829677 91.829677 91.961806 91.961806 0 0 1-91.829677 91.730581z" fill="#ffffff" p-id="35873"></path><path d="M657.408 1019.573677a97.246968 97.246968 0 1 0 0-194.526967 97.246968 97.246968 0 0 0 0 194.526967z" fill="#ffffff" p-id="35874"></path><path d="M757.165419 587.346581A389.153032 389.153032 0 0 0 381.192258 687.731613l96.454194 108.015484a248.237419 248.237419 0 0 1 196.409806-74.553807c1.717677-15.624258 3.963871-28.308645 4.624516-31.479742 8.423226-45.815742 40.464516-79.607742 80.730839-87.139096a108.378839 108.378839 0 0 1-2.246194-15.194839zM211.637677 476.754581l97.180904 110.294709c137.612387-142.435097 336.070194-183.725419 509.159225-124.234322l63.091613-35.939097 3.237162-1.783742 3.303225-1.453419a104.051613 104.051613 0 0 1 42.479484-8.91871c28.077419 0 54.932645 10.702452 74.818065 29.233548a107.718194 107.718194 0 0 1 41.389419-23.452903C796.771097 225.511226 440.650323 244.273548 211.637677 476.754581z" fill="#ffffff" p-id="35875"></path><path d="M85.982968 217.946839A882.853161 882.853161 0 0 0 29.068387 269.080774l97.147871 109.303742 1.948903-1.651613c15.492129-15.194839 31.380645-29.464774 47.962839-43.074064 296.827871-245.264516 729.253161-226.667355 1005.733161 43.074064l99.195871-107.619097C952.485161-51.464258 438.668387-73.496774 85.949935 217.880774z" fill="#ffffff" p-id="35876"></path></svg>