<?xml version="1.0" standalone="no"?><!DOCTYPE svg PUBLIC "-//W3C//DTD SVG 1.1//EN" "http://www.w3.org/Graphics/SVG/1.1/DTD/svg11.dtd"><svg t="1708917577896" class="icon" viewBox="0 0 1024 1024" version="1.1" xmlns="http://www.w3.org/2000/svg" p-id="15843" xmlns:xlink="http://www.w3.org/1999/xlink" width="32" height="32"><path d="M739.872 450.544h-98.336L586.224 229.28c-6.144-12.288-18.432-24.592-30.736-24.592-12.288 0-24.592 6.144-30.736 18.432l-86.048 270.448-36.88-141.36c-6.144-12.288-18.432-24.592-30.736-24.592s-24.592 6.144-30.736 18.432L291.2 450.544h-104.496c-18.432 0-30.736 18.432-30.736 30.736 0 18.432 12.288 30.736 30.736 30.736h122.928c12.288 0 24.592-6.144 24.592-18.432l24.592-49.168 43.024 165.952c6.144 12.288 12.288 24.592 30.736 24.592 12.288 0 24.592-6.144 30.736-18.432l86.048-270.448 36.88 141.36c6.128 12.272 18.416 24.56 30.72 24.56h122.928c18.432 0 30.736-18.432 30.736-30.736-0.016-18.432-12.304-30.72-30.752-30.72z" p-id="15844" fill="#ffffff"></path><path d="M7.088 512c0-270.448 221.264-491.712 491.712-491.712S990.512 241.552 990.512 512c0 50.736-61.456 49.872-61.456 0 0-239.712-190.544-430.24-430.24-430.24S68.56 272.288 68.56 512s190.544 430.24 430.24 430.24c73.76 0 147.52-18.432 215.12-55.312 12.288-6.144 30.736-6.144 43.024 12.288 6.144 12.288 6.144 30.736-12.288 43.024-73.76 36.88-159.808 61.456-245.856 61.456C228.368 1003.712 7.088 782.448 7.088 512z" p-id="15845" fill="#ffffff"></path><path d="M833.36 578.288a27.36 27.36 0 0 1 38.688 0l136.832 136.832a27.36 27.36 0 0 1 0 38.688l-136.832 136.832a27.36 27.36 0 0 1-38.688-38.688l90.112-90.112H551.696a27.36 27.36 0 1 1-0.016-54.736h371.808l-90.112-90.112a27.376 27.376 0 0 1-0.016-38.704z" p-id="15846" fill="#ffffff"></path></svg>